<?xml version="1.0" encoding="UTF-8"?>
<svg version="1.1" xmlns="http://www.w3.org/2000/svg" width="800" height="800">
<path d="M0 0 C4.29379387 3.14878217 6.36783841 7.01824831 8 12 C11.72136611 40.46845071 -7.06760031 70.75580245 -23.60205078 92.45825195 C-27.81691471 97.8772657 -32.24922715 103.04154309 -37 108 C-37.73863281 108.79019531 -38.47726562 109.58039063 -39.23828125 110.39453125 C-42.87835544 114.18548934 -45.98765115 117.06789447 -50.6875 119.4375 C-57.78922122 123.96128403 -59.24144067 133.27699362 -61 141 C-63.05361495 151.01137287 -64.21816742 160.77575916 -64 171 C-63.6596875 170.11441406 -63.319375 169.22882813 -62.96875 168.31640625 C-51.94358756 139.9709693 -51.94358756 139.9709693 -42 129 C-41.23945313 128.06414062 -40.47890625 127.12828125 -39.6953125 126.1640625 C-33.27980238 118.51874214 -25.97216011 112.75214574 -15.875 111.0625 C-7.80682418 110.93236813 -0.83008218 111.31424595 6 116 C8.25 118.1875 8.25 118.1875 10 121 C10.37125 121.56847656 10.7425 122.13695312 11.125 122.72265625 C15.91663547 131.35758267 15.4401491 142.4028195 12.7890625 151.6796875 C11.35330493 156.18059858 9.6970682 160.5923072 8 165 C5.31449788 172.25899361 3.25746096 178.2033401 4 186 C5.65392712 189.07600063 5.65392712 189.07600063 8.0625 189.875 C16.05954457 190.21529977 22.11513955 185.94009562 28 181 C28.96292969 180.24203125 29.92585938 179.4840625 30.91796875 178.703125 C34.13914302 176.01217064 36.61968143 172.97596238 39.125 169.625 C39.54136719 169.08617187 39.95773437 168.54734375 40.38671875 167.9921875 C45.22905443 161.61669852 48.31545207 155.54474001 50.5625 147.875 C55.91360642 130.9111195 64.20363995 113.58843076 79 103 C81.31640625 102.3203125 81.31640625 102.3203125 83.5625 102.125 C84.67818359 102.00511719 84.67818359 102.00511719 85.81640625 101.8828125 C88.36181679 102.01941772 89.84215225 102.66886015 92 104 C93.99227818 106.56150051 94.00603407 107.90577573 93.796875 111.171875 C92.87447775 115.60299904 91.24076293 118.72007852 88.9375 122.5625 C88.5348291 123.25722412 88.1321582 123.95194824 87.71728516 124.66772461 C86.4887041 126.78484595 85.24616244 128.89318942 84 131 C71.24647712 152.00880845 71.24647712 152.00880845 66.625 175.6875 C66.60050781 176.43322266 66.57601563 177.17894531 66.55078125 177.94726562 C66.53174314 181.50421916 66.6782988 183.56946797 68.8359375 186.45703125 C72.68079827 189.1984031 76.42647376 189.56648412 81 189 C94.8052784 185.87108545 103.62447586 175.55347953 111 164 C113.44555816 158.94308313 114.88948718 153.91146476 116.25 148.5 C119.49082438 136.28622957 124.99111965 119.2682055 135 111 C140.88923691 110.19167337 145.14263307 111.84271149 150 115 C151.796875 116.38671875 151.796875 116.38671875 153 118 C152.51608365 120.92237702 151.43776819 123.35403057 150.109375 125.984375 C149.73167969 126.74733887 149.35398437 127.51030273 148.96484375 128.29638672 C148.56394531 129.1060791 148.16304687 129.91577148 147.75 130.75 C141.9725752 142.65562182 136.88952855 155.22203299 136.8125 168.625 C136.79832031 169.75164062 136.78414062 170.87828125 136.76953125 172.0390625 C136.77206607 175.18726298 136.77206607 175.18726298 139 178 C143.52854396 179.50951465 146.70364756 178.87159124 150.9453125 177.046875 C162.43688804 171.19185172 174.05573091 157.88390393 179 146 C179.87409839 142.46718566 180.56424086 138.92820869 181.234375 135.3515625 C182.60438158 129.3542888 184.78594969 124.66053773 189.75 120.9375 C195.2579326 119.34867329 200.48975296 119.45413884 206 121 C203.69896914 146.40525909 194.27803572 171.04294634 186 195 C187.73678993 194.0774487 189.47057788 193.14924483 191.203125 192.21875 C192.65187012 191.4443457 192.65187012 191.4443457 194.12988281 190.65429688 C198.43601382 188.17230098 202.18187989 185.16233612 206 182 C206.59296875 181.56429687 207.1859375 181.12859375 207.796875 180.6796875 C217.63329139 173.14445109 223.34295906 161.15863534 228 150 C230.4375 150.8125 230.4375 150.8125 233 152 C234.44167842 156.32503527 232.49341493 159.09539411 230.625 163 C230.26067871 163.763125 229.89635742 164.52625 229.52099609 165.3125 C226.19919193 172.01555262 222.20399129 177.60359222 217 183 C216.26394531 183.76441406 215.52789063 184.52882813 214.76953125 185.31640625 C207.6446213 192.1787567 191.5457472 206 181 206 C180.87939209 206.72276123 180.75878418 207.44552246 180.63452148 208.19018555 C179.53912902 213.04084804 177.20989247 217.34879459 175.0625 221.8125 C174.57104492 222.83553223 174.07958984 223.85856445 173.57324219 224.91259766 C169.2899988 233.67552568 164.52806076 241.96750026 159 250 C158.09507812 251.31677734 158.09507812 251.31677734 157.171875 252.66015625 C150.74708396 261.41168237 142.85536415 269.46764444 132 272 C125.66398269 272.81693776 120.64107289 272.2076689 115 269 C111.02748217 265.55715121 108.41627351 262.65774623 107.59375 257.40625 C107.25446167 246.88831169 110.86566621 238.99357713 118 231.3125 C125.49796982 224.41980287 133.93227358 219.39688927 143.09765625 215.08203125 C144.70918579 214.31596558 144.70918579 214.31596558 146.35327148 213.53442383 C148.49758598 212.52875137 150.65458157 211.54959244 152.82446289 210.6003418 C159.34414786 207.59478074 159.34414786 207.59478074 163.4453125 201.9609375 C164.005987 200.32119663 164.52021082 198.6652052 165 197 C165.3417627 195.97422852 165.68352539 194.94845703 166.03564453 193.89160156 C167.15894648 190.48347467 168.2114716 187.05983651 169.25 183.625 C169.79527344 181.86349609 169.79527344 181.86349609 170.3515625 180.06640625 C172.29954863 174.13588071 172.29954863 174.13588071 173 168 C172.46632813 168.60585938 171.93265625 169.21171875 171.3828125 169.8359375 C168.94423552 172.57828185 166.47623398 175.29161909 164 178 C163.195625 178.89589844 162.39125 179.79179687 161.5625 180.71484375 C154.21438198 188.54577081 147.31942698 193.14205053 136.375 193.5625 C128.05921494 193.19751299 122.06637912 190.61604756 116.19140625 184.7578125 C114.55112924 182.33773166 113.83402909 179.78526925 113 177 C111.82244141 178.30324219 111.82244141 178.30324219 110.62109375 179.6328125 C99.46682001 191.90927162 88.61739365 202.81372851 71 204 C64.131924 204.06585826 57.52727585 203.37576005 52 199 C46.68497084 193.18970676 44.6147903 186.57818255 43 179 C42.33355469 179.78503906 41.66710937 180.57007813 40.98046875 181.37890625 C31.40733363 192.39151828 20.51630041 201.02368952 5.49609375 202.1953125 C-1.08549928 202.46992695 -6.53440429 201.89794423 -12 198 C-16.5804377 193.60883659 -18.38208688 189.25324116 -18.625 182.9375 C-18.31562945 176.44826411 -16.78742816 170.37348039 -15.09375 164.140625 C-13.95768313 159.93637752 -13.02644441 155.71026339 -12.1875 151.4375 C-11.93355469 150.17808594 -11.67960937 148.91867187 -11.41796875 147.62109375 C-10.86516131 142.83181808 -10.93587799 138.72919827 -13.5 134.5625 C-17.3619158 132.14880262 -20.57997872 132.11173206 -25 133 C-38.06448552 138.07079184 -43.59871002 154.65157616 -48.94384766 166.59033203 C-50.48375044 170.10370246 -51.97133241 173.63849109 -53.45996094 177.17382812 C-63.07723025 199.98763546 -63.07723025 199.98763546 -71 205 C-74.5625 206.0625 -74.5625 206.0625 -78 206 C-83.49909118 202.50361274 -84.51858954 198.72327668 -86.21875 192.68359375 C-87.46154938 186.82379467 -87.82078329 180.97687712 -88 175 C-88.4846875 175.70125 -88.969375 176.4025 -89.46875 177.125 C-97.64690038 188.70022823 -105.25758482 196.41919494 -119 201 C-126.18046648 201.56063702 -133.61397819 201.71195149 -140 198 C-144.97048044 193.50691034 -147.82407745 189.84826989 -148.24609375 183.015625 C-148.18049411 177.32111633 -146.64103504 172.18501895 -145.0625 166.75 C-140.90598412 153.40795614 -140.90598412 153.40795614 -141.6875 139.79296875 C-143.51264956 137.29968409 -145.02944121 136.7808326 -148 136 C-156.38089095 136.09364124 -162.5680165 138.83959865 -169 144 C-169.78117188 144.56203125 -170.56234375 145.1240625 -171.3671875 145.703125 C-174.84237346 148.73488961 -177.43839181 152.18858386 -180.1875 155.875 C-180.75919922 156.63385498 -181.33089844 157.39270996 -181.91992188 158.17456055 C-183.62235062 160.44311818 -185.31338328 162.71966967 -187 165 C-187.67603271 165.91048096 -187.67603271 165.91048096 -188.36572266 166.83935547 C-194.51564742 175.16040827 -200.17366025 183.7732386 -205.7109375 192.51293945 C-206.23945313 193.34011475 -206.76796875 194.16729004 -207.3125 195.01953125 C-207.78300781 195.76307861 -208.25351562 196.50662598 -208.73828125 197.27270508 C-210 199 -210 199 -212 200 C-218.55625044 199.43918021 -222.95449345 197.07934572 -228 193 C-227.67 190.03 -227.34 187.06 -227 184 C-227.59425781 184.56847656 -228.18851562 185.13695312 -228.80078125 185.72265625 C-243.24286844 199.17648242 -260.03890295 207.76236789 -280 208 C-291.1898653 207.33157884 -300.40658255 205.06313484 -308.375 196.875 C-314.82121226 188.95424931 -316.72095005 180.77871756 -316.37890625 170.671875 C-313.86536896 146.3138848 -298.74593596 125.93334561 -280.8046875 110.171875 C-268.9613172 101.00068575 -255.70748325 95.09372988 -240.48046875 96.1796875 C-234.85136426 97.11946985 -230.62494203 99.55166393 -227 104 C-223.45556191 111.12443911 -224.13579134 119.28239331 -226.5625 126.6875 C-228.83337035 132.23320443 -232.01365676 136.56437627 -236 141 C-236.6084375 141.68964844 -237.216875 142.37929688 -237.84375 143.08984375 C-251.55930305 157.73288297 -274.14660646 167.08509707 -294 168 C-293.85953617 176.14690242 -293.556684 184.54627284 -288 191 C-279.69289548 195.51275106 -270.24458582 195.22409939 -261.234375 193.12109375 C-242.82807571 186.97890357 -227.32402985 173.30319772 -217 157 C-214.31526889 151.58554229 -213.11599084 146.16013339 -212.3515625 140.19921875 C-212.23868896 139.35246582 -212.12581543 138.50571289 -212.00952148 137.63330078 C-211.79922785 135.95445926 -211.62020392 134.27132273 -211.47680664 132.58544922 C-210.80227994 126.84396334 -210.80227994 126.84396334 -208.43994141 124.35888672 C-203.00727015 120.37397595 -197.69189375 119.01555328 -191 120 C-187.9375 121.875 -187.9375 121.875 -186 125 C-184.68445968 132.52936909 -186.69765292 140.58127288 -188 148 C-187.27296875 147.18917969 -186.5459375 146.37835938 -185.796875 145.54296875 C-182.57922359 141.98288739 -179.30728456 138.47688889 -176 135 C-175.50886719 134.48308594 -175.01773438 133.96617187 -174.51171875 133.43359375 C-165.37708032 123.9969838 -154.36117509 116.28331302 -141 114.8125 C-133.75870646 114.69613805 -127.80002896 116.34808946 -122.38671875 121.390625 C-116.30685281 128.44669477 -115.12913672 135.91732701 -115.57421875 144.96484375 C-116.31110652 153.6974828 -119.73754151 161.79969817 -123.16796875 169.78125 C-124.64867413 173.72979768 -125.13926182 177.48739335 -125.125 181.6875 C-125.12757813 182.45449219 -125.13015625 183.22148437 -125.1328125 184.01171875 C-125.12368933 186.07479336 -125.12368933 186.07479336 -124 188 C-119.95138775 189.59490786 -117.13590375 188.62383027 -113.2578125 187.1796875 C-106.28602777 183.53699029 -101.99022129 178.98827759 -97.375 172.75 C-96.55515625 171.68072266 -96.55515625 171.68072266 -95.71875 170.58984375 C-89.83664731 162.77987487 -85.73733893 155.629205 -83.875 146 C-78.532047 121.51258693 -69.30926395 97.77503812 -59 75 C-58.58927246 74.0836377 -58.17854492 73.16727539 -57.75537109 72.22314453 C-30.3871808 11.54578346 -30.3871808 11.54578346 -9.90625 0.67578125 C-6.24894897 -0.62076194 -3.87915381 -0.63592685 0 0 Z M-6 26 C-11.02522297 30.69236551 -15.06932666 35.55421145 -18.8125 41.3125 C-19.58279541 42.48655396 -19.58279541 42.48655396 -20.36865234 43.68432617 C-31.35476451 60.64882467 -44.45512965 81.11098022 -49 101 C-48.67 101.66 -48.34 102.32 -48 103 C-28.99814995 85.39610622 -9.33738014 54.85078563 -5 29 C-5.495 27.515 -5.495 27.515 -6 26 Z M-258.87109375 113.40234375 C-272.42711503 123.57557807 -284.44178278 137.74430944 -290 154 C-290 154.99 -290 155.98 -290 157 C-273.82121364 156.06660848 -259.94865369 145.78389875 -249.09375 134.41796875 C-242.98538755 127.36372182 -239.44945389 120.5427993 -240 111 C-240.79468763 108.83729663 -240.79468763 108.83729663 -242.828125 108.3359375 C-248.68118158 107.4306086 -254.14559424 110.23043312 -258.87109375 113.40234375 Z M174 165 C175 167 175 167 175 167 Z M155 219 C141.85145654 226.05723922 127.22689114 234.17062411 119.5625 247.5 C118.72271748 251.23236674 118.63376531 254.15453577 119 258 C120.83341465 260.50520579 120.83341465 260.50520579 123 262 C133.35922316 259.66917479 139.56719412 250.44877476 145 242 C148.14441038 236.7468943 151.10241444 231.3923947 154 226 C154.43570313 225.24589844 154.87140625 224.49179687 155.3203125 223.71484375 C156.29142027 221.80169826 156.29142027 221.80169826 155 219 Z " fill="#F8F8F9" transform="translate(510,256)"/>
<path d="M0 0 C1.15628906 -0.02513672 1.15628906 -0.02513672 2.3359375 -0.05078125 C5.26745028 0.41445883 6.53621329 1.20566761 8.625 3.3125 C13.12785511 14.82187238 13.03486754 29.0260447 14.29736328 41.19726562 C14.707224 45.09430193 15.15979336 48.98418083 15.625 52.875 C16.51025572 60.33215409 17.38390953 67.79059347 18.25 75.25 C18.45302734 76.98648804 18.45302734 76.98648804 18.66015625 78.75805664 C18.78519531 79.83692139 18.91023437 80.91578613 19.0390625 82.02734375 C19.1520166 82.99792725 19.2649707 83.96851074 19.38134766 84.96850586 C19.625 87.3125 19.625 87.3125 19.625 89.3125 C20.615 88.9825 21.605 88.6525 22.625 88.3125 C24.8090792 88.45465036 26.98798243 88.68076102 29.16015625 88.94921875 C29.81851974 89.02852631 30.47688324 89.10783386 31.15519714 89.18954468 C33.33345787 89.45335638 35.51042986 89.72655029 37.6875 90 C39.20858206 90.1867431 40.7297423 90.37285048 42.25097656 90.55834961 C44.62216824 90.84755899 46.99328475 91.13728128 49.36410522 91.42951965 C54.8889405 92.10891445 60.41723537 92.7489297 65.94921875 93.3671875 C68.20103748 93.62153751 70.45280241 93.87635951 72.70455933 94.1312561 C74.1282452 94.29113826 75.55217047 94.44890586 76.97634888 94.6043396 C102.05375647 97.3491806 102.05375647 97.3491806 106.37939453 100.65209961 C108.01909028 102.89873285 108.59779591 105.17307901 109.125 107.875 C107.96399904 113.53487967 103.16932647 116.57874194 98.625 119.625 C98.05177002 120.01252441 97.47854004 120.40004883 96.88793945 120.79931641 C95.13904331 121.97872058 93.38314121 123.14693423 91.625 124.3125 C90.64917969 124.96347656 89.67335938 125.61445312 88.66796875 126.28515625 C86.72404823 127.58021684 84.77867711 128.87310208 82.83203125 130.1640625 C79.1986628 132.59810957 75.59854573 135.07742339 72 137.5625 C65.93743477 141.73916409 59.85744267 145.88919774 53.75 150 C52.97060059 150.52948242 52.19120117 151.05896484 51.38818359 151.60449219 C50.66453613 152.08950195 49.94088867 152.57451172 49.1953125 153.07421875 C48.55352051 153.50694092 47.91172852 153.93966309 47.25048828 154.38549805 C45.625 155.3125 45.625 155.3125 43.625 155.3125 C43.89763672 156.735625 43.89763672 156.735625 44.17578125 158.1875 C45.94724766 167.68813525 47.28664761 177.19420523 48.42236328 186.79077148 C49.21785821 193.39171998 50.18475337 199.94445507 51.26196289 206.50512695 C55.70204863 233.68317724 55.70204863 233.68317724 51.78515625 240.52734375 C48.64890129 244.57101425 45.58528286 247.65907238 40.625 249.3125 C32.69788382 250.2662556 27.63995035 247.92221773 21.125 243.6875 C20.63 243.23375 20.135 242.78 19.625 242.3125 C19.625 241.6525 19.625 240.9925 19.625 240.3125 C19.00625 240.003125 18.3875 239.69375 17.75 239.375 C16.375 238.6875 15 238 13.625 237.3125 C13.625 236.6525 13.625 235.9925 13.625 235.3125 C13.10164062 235.09722656 12.57828125 234.88195312 12.0390625 234.66015625 C8.65704369 232.77213604 5.9116829 230.2879736 3 227.75 C-0.93320931 224.16676322 -0.93320931 224.16676322 -5.375 221.3125 C-5.375 220.6525 -5.375 219.9925 -5.375 219.3125 C-5.99375 219.003125 -6.6125 218.69375 -7.25 218.375 C-8.625 217.6875 -10 217 -11.375 216.3125 C-11.375 215.6525 -11.375 214.9925 -11.375 214.3125 C-11.93703125 214.0546875 -12.4990625 213.796875 -13.078125 213.53125 C-15.64204579 212.17080223 -17.82726365 210.58461038 -20.125 208.8125 C-20.92421875 208.2040625 -21.7234375 207.595625 -22.546875 206.96875 C-23.45179688 206.14890625 -23.45179688 206.14890625 -24.375 205.3125 C-24.375 204.6525 -24.375 203.9925 -24.375 203.3125 C-26.71831171 201.83708151 -27.92026884 201.25129168 -30.70751953 201.62646484 C-33.41138914 202.32185873 -35.81151956 203.23098159 -38.3671875 204.3515625 C-39.31142578 204.76341797 -40.25566406 205.17527344 -41.22851562 205.59960938 C-42.72415039 206.26186523 -42.72415039 206.26186523 -44.25 206.9375 C-45.28576172 207.39189453 -46.32152344 207.84628906 -47.38867188 208.31445312 C-54.08380854 211.2636504 -60.71709874 214.3209715 -67.33203125 217.4453125 C-72.70173467 219.9499587 -78.13306961 222.31590866 -83.5625 224.6875 C-84.56796875 225.12900391 -85.5734375 225.57050781 -86.609375 226.02539062 C-87.55683594 226.43724609 -88.50429687 226.84910156 -89.48046875 227.2734375 C-90.32762451 227.64259277 -91.17478027 228.01174805 -92.04760742 228.39208984 C-98.554283 230.96527425 -104.85902223 231.15754929 -111.3828125 228.4921875 C-116.00445158 225.7554522 -119.17094656 221.40650599 -121.8125 216.8125 C-124.37809387 205.40986057 -118.73521281 195.57305039 -114.10617065 185.43762207 C-112.64322445 182.23358476 -111.19497472 179.0229164 -109.74609375 175.8125 C-109.45736893 175.17346741 -109.1686441 174.53443481 -108.87117004 173.8760376 C-105.23814606 165.81823705 -101.76940554 157.68996511 -98.34228516 149.54272461 C-97.66084338 147.97155585 -96.94922212 146.41330664 -96.21630859 144.86547852 C-95.84199707 144.07069092 -95.46768555 143.27590332 -95.08203125 142.45703125 C-94.73760986 141.74651611 -94.39318848 141.03600098 -94.03833008 140.30395508 C-93.11118088 138.0791628 -93.11118088 138.0791628 -94.125 134.75 C-94.5375 133.945625 -94.95 133.14125 -95.375 132.3125 C-96.035 132.3125 -96.695 132.3125 -97.375 132.3125 C-100.375 128.85096154 -100.375 128.85096154 -100.375 126.3125 C-101.035 126.3125 -101.695 126.3125 -102.375 126.3125 C-103.68653763 124.84440495 -104.92494075 123.31054216 -106.125 121.75 C-108.63263148 118.52394125 -111.16201789 115.36783462 -113.875 112.3125 C-116.375 109.3125 -116.375 109.3125 -116.375 107.3125 C-117.035 107.3125 -117.695 107.3125 -118.375 107.3125 C-121.375 103.85096154 -121.375 103.85096154 -121.375 101.3125 C-122.035 101.3125 -122.695 101.3125 -123.375 101.3125 C-125.0390625 99.4765625 -125.0390625 99.4765625 -127 96.9375 C-127.70640625 96.03 -128.4128125 95.1225 -129.140625 94.1875 C-129.87796875 93.23875 -130.6153125 92.29 -131.375 91.3125 C-133.48298311 88.71805925 -135.59503087 86.12704392 -137.7109375 83.5390625 C-141.49812385 78.47170048 -142.02839907 74.53032991 -141.375 68.3125 C-139.65425579 62.34050538 -136.54456591 58.62546912 -131.375 55.3125 C-122.44341458 52.53079188 -112.27754104 54.67107472 -103.25390625 55.9921875 C-102.0327562 56.16501251 -100.81160614 56.33783752 -99.55345154 56.51589966 C-95.68041309 57.06598047 -91.80900419 57.62673444 -87.9375 58.1875 C-85.3431938 58.55665669 -82.74879341 58.92515215 -80.15429688 59.29296875 C-69.20678395 60.85318416 -58.27563553 62.44892621 -47.375 64.3125 C-46.94175415 63.17421753 -46.94175415 63.17421753 -46.49975586 62.01293945 C-45.05791233 58.55120051 -43.04222033 55.58196991 -40.9375 52.5 C-40.49792969 51.849104 -40.05835938 51.19820801 -39.60546875 50.52758789 C-38.20081069 48.45209648 -36.78863046 46.38188852 -35.375 44.3125 C-34.91851074 43.64154297 -34.46202148 42.97058594 -33.99169922 42.27929688 C-28.74079397 34.56474994 -23.40609412 26.9180486 -17.95117188 19.34643555 C-14.4930226 14.52744049 -11.20994538 9.60868676 -7.96875 4.640625 C-5.47612208 0.99943323 -4.36690637 0.02176199 0 0 Z M-1.375 15.3125 C-2.78359342 17.21835595 -2.78359342 17.21835595 -4.16796875 19.703125 C-4.98467041 21.10038818 -4.98467041 21.10038818 -5.81787109 22.52587891 C-6.39359863 23.52796387 -6.96932617 24.53004883 -7.5625 25.5625 C-8.15111816 26.5736084 -8.73973633 27.5847168 -9.34619141 28.62646484 C-11.02851473 31.51835028 -12.70207965 34.41516909 -14.375 37.3125 C-15.09643883 38.5501896 -15.81885084 39.78731341 -16.54296875 41.0234375 C-18.15953885 43.78307433 -19.76805565 46.54725058 -21.375 49.3125 C-23.12158104 52.30776794 -24.86914038 55.30246245 -26.6171875 58.296875 C-27.812475 60.34745711 -29.00508601 62.39960118 -30.1953125 64.453125 C-33.49438173 70.13723563 -36.8534134 75.76333324 -40.375 81.3125 C-55.15112473 80.62441855 -69.84347474 79.18817497 -84.5625 77.75 C-89.30567796 77.28707294 -94.04920867 76.828012 -98.79296875 76.37109375 C-99.86798141 76.26486191 -100.94299408 76.15863007 -102.05058289 76.04917908 C-106.84357662 75.58751919 -111.55259406 75.1723228 -116.375 75.3125 C-114.8472133 78.75002007 -112.87318944 81.50203688 -110.375 84.3125 C-109.715 84.3125 -109.055 84.3125 -108.375 84.3125 C-108.1275 84.869375 -107.88 85.42625 -107.625 86 C-106.14575182 88.73660913 -104.44032561 90.98900869 -102.375 93.3125 C-101.715 93.3125 -101.055 93.3125 -100.375 93.3125 C-100.1275 93.869375 -99.88 94.42625 -99.625 95 C-98.14575182 97.73660913 -96.44032561 99.98900869 -94.375 102.3125 C-93.715 102.3125 -93.055 102.3125 -92.375 102.3125 C-92.1275 102.869375 -91.88 103.42625 -91.625 104 C-90.14575182 106.73660913 -88.44032561 108.98900869 -86.375 111.3125 C-85.715 111.3125 -85.055 111.3125 -84.375 111.3125 C-84.15585938 111.85003906 -83.93671875 112.38757813 -83.7109375 112.94140625 C-81.91694161 116.12548668 -79.4987784 118.61641908 -77 121.25 C-75.56051106 122.77993811 -74.12612128 124.31300464 -72.70800781 125.86279297 C-71.47902275 127.1993705 -70.22118101 128.50926048 -68.9609375 129.81640625 C-67.375 132.3125 -67.375 132.3125 -67.421875 135.11328125 C-68.58839717 139.02877985 -70.02341203 142.7442762 -71.625 146.5 C-71.94146484 147.25466553 -72.25792969 148.00933105 -72.58398438 148.78686523 C-74.66339158 153.71807608 -76.82760045 158.60563431 -79.0703125 163.46484375 C-85.23073149 176.91078818 -90.90574094 190.57265407 -96.375 204.3125 C-91.79604009 202.87058482 -87.43749344 201.08609122 -83.0625 199.125 C-77.3069475 196.57212855 -71.52068527 194.11987604 -65.6875 191.75 C-60.69156243 189.71591154 -55.75950883 187.60572519 -50.875 185.3125 C-45.75773312 182.93132537 -40.62169339 180.60634097 -35.4375 178.375 C-34.72722656 178.05595703 -34.01695312 177.73691406 -33.28515625 177.40820312 C-28.91075155 175.5565375 -26.12318712 174.99727446 -21.375 176.3125 C-21.045 177.3025 -20.715 178.2925 -20.375 179.3125 C-16.89564528 182.95263067 -16.89564528 182.95263067 -12.375 184.3125 C-12.045 185.3025 -11.715 186.2925 -11.375 187.3125 C-7.89564528 190.95263067 -7.89564528 190.95263067 -3.375 192.3125 C-3.045 193.3025 -2.715 194.2925 -2.375 195.3125 C-0.68348482 196.80703704 -0.68348482 196.80703704 1.375 198.1875 C4.83146143 200.60174596 7.6688236 203.30682902 10.625 206.3125 C21.13743091 216.4111812 21.13743091 216.4111812 32.625 225.3125 C32.80522341 217.41485269 32.09577672 209.68051271 31.3125 201.828125 C31.17753392 200.44053389 31.04302051 199.05289869 30.90893555 197.66522217 C30.5574586 194.03697201 30.20127337 190.40920193 29.84362793 186.78155518 C29.27034704 180.96280217 28.7024537 175.14353027 28.13809204 169.32390594 C27.94087015 167.30020618 27.74048332 165.27683753 27.53979492 163.253479 C27.41967041 162.02159851 27.2995459 160.78971802 27.17578125 159.52050781 C27.06919189 158.43956848 26.96260254 157.35862915 26.8527832 156.24493408 C26.6449419 153.5692279 26.46223732 150.99206969 26.625 148.3125 C28.21484375 146.86328125 28.21484375 146.86328125 30.5625 145.625 C31.47386719 145.12355469 32.38523438 144.62210938 33.32421875 144.10546875 C34.41347656 143.51378906 35.50273437 142.92210937 36.625 142.3125 C38.65708814 141.13052364 40.67825151 139.93110609 42.69921875 138.73022461 C48.78582092 135.11391419 54.90827304 131.56229624 61.0625 128.0625 C65.70921806 125.41703892 70.32580996 122.73499746 74.89453125 119.95703125 C77.11088228 118.62214744 79.33768643 117.31217582 81.57421875 116.01171875 C82.60784546 115.40541626 82.60784546 115.40541626 83.66235352 114.78686523 C85.03839146 113.97984497 86.41773332 113.17842813 87.80053711 112.38305664 C89.44250729 111.41471525 91.0389124 110.36989173 92.625 109.3125 C92.625 108.6525 92.625 107.9925 92.625 107.3125 C55.15400255 98.68401616 55.15400255 98.68401616 17.625 90.3125 C13.19333272 71.7529889 8.87302724 53.1864064 4.94921875 34.51171875 C3.59527212 28.09152384 2.12172337 21.70073132 0.625 15.3125 C-0.035 15.3125 -0.695 15.3125 -1.375 15.3125 Z " fill="#EE818B" transform="translate(194.375,473.6875)"/>
<path d="M0 0 C7.03324676 7.23419666 10.01885482 15.88870395 10.28515625 25.93359375 C9.74296243 38.85367572 6.31333087 51.84021762 -2.87109375 61.390625 C-7.60403149 65.6632954 -11.04083791 67.72093188 -17.67578125 67.671875 C-21.59179961 66.89869404 -24.29966579 64.24355032 -26.8125 61.25 C-27.1425 60.26 -27.4725 59.27 -27.8125 58.25 C-27.38839844 57.87230469 -26.96429688 57.49460937 -26.52734375 57.10546875 C-16.72975525 47.91080877 -7.00567998 32.9782182 -6.5625 19.1875 C-6.80552105 15.35991845 -7.03256885 12.64805037 -8.8125 9.25 C-15.18829044 5.5587529 -24.73239958 6.48889462 -31.6875 8.1875 C-47.43029236 13.57852053 -59.99574638 26.35811874 -69.8125 39.25 C-70.59238281 40.26449219 -71.37226562 41.27898437 -72.17578125 42.32421875 C-97.03580631 75.43261627 -115.93453363 120.49557467 -110.50341797 162.64892578 C-108.96379124 171.62909855 -105.7634985 179.60587594 -100.8125 187.25 C-100.235 188.178125 -99.6575 189.10625 -99.0625 190.0625 C-92.69017769 196.25781336 -84.86443123 200.19188818 -75.96484375 200.27734375 C-69.17764458 199.94270308 -63.69557384 198.65774277 -57.8125 195.25 C-56.84957031 194.70279297 -56.84957031 194.70279297 -55.8671875 194.14453125 C-38.37761599 182.63823421 -28.62555438 158.44471694 -24.26904297 138.79931641 C-23.30661399 133.96996823 -22.51573583 129.1233009 -21.8125 124.25 C-28.73271698 122.66285416 -35.41056889 121.8665275 -42.5 121.625 C-43.44955566 121.58705322 -44.39911133 121.54910645 -45.37744141 121.51000977 C-53.19154502 121.21910822 -60.99392841 121.14039386 -68.8125 121.25 C-67.15400344 114.83423699 -65.08209183 109.5048783 -59.8125 105.25 C-49.27981766 99.48063599 -37.42926672 102.28113938 -26.53173828 105.43115234 C-16.23842016 108.53079222 -6.02257021 111.8882526 4.1875 115.25 C3.85016846 116.35174561 3.51283691 117.45349121 3.1652832 118.58862305 C0.2047652 128.27711364 -2.71163234 137.97753839 -5.57572937 147.69499207 C-5.8214418 148.52807388 -6.06715424 149.3611557 -6.3203125 150.21948242 C-6.56322021 151.04717133 -6.80612793 151.87486023 -7.05639648 152.72763062 C-7.56958806 154.43964319 -8.09966277 156.14666764 -8.64477539 157.8487854 C-11.65356597 167.31410391 -13.05606349 176.47967236 -13.3203125 186.39453125 C-13.34981491 187.3000322 -13.37931732 188.20553314 -13.40971375 189.13847351 C-13.68541437 198.17372268 -13.77878959 207.2109831 -13.8125 216.25 C-15.24392411 215.97100641 -16.67322518 215.68110779 -18.1015625 215.38671875 C-18.89771973 215.22647217 -19.69387695 215.06622559 -20.51416016 214.90112305 C-25.4159568 213.51243687 -28.0418377 210.59865902 -30.5625 206.1875 C-32.4735911 201.09879587 -33.06480416 195.60702075 -33.8125 190.25 C-34.55113281 191.03503906 -35.28976563 191.82007813 -36.05078125 192.62890625 C-47.9762544 205.07563574 -61.19139682 214.10963611 -78.99267578 214.54199219 C-87.93639022 214.62105681 -95.42446891 213.65055314 -103.8125 210.25 C-104.52277344 209.99605469 -105.23304687 209.74210938 -105.96484375 209.48046875 C-118.09777862 204.44368802 -127.62358773 192.10580415 -132.59716797 180.40380859 C-144.90754623 149.04107634 -138.31499311 113.82746219 -125.625 83.625 C-117.51056969 65.02460155 -106.76948426 47.35706997 -92.8984375 32.48828125 C-90.94805617 30.39545634 -89.09618633 28.24701459 -87.25 26.0625 C-83.74045089 22.0561654 -79.94627887 18.60248046 -75.8125 15.25 C-74.93851563 14.5384375 -74.06453125 13.826875 -73.1640625 13.09375 C-52.86811148 -2.79476929 -24.15932242 -15.03246729 0 0 Z " fill="#F9F9F9" transform="translate(185.8125,260.75)"/>
<path d="M0 0 C3.5250156 3.59577322 4.51015041 6.00974949 4.6875 11 C4.74164062 12.22589844 4.79578125 13.45179688 4.8515625 14.71484375 C4.87379883 15.39272949 4.89603516 16.07061523 4.91894531 16.76904297 C5.00815297 19.22440306 5.13803008 21.67566917 5.2734375 24.12890625 C5.79416401 33.76060517 6.1610927 43.35233715 6 53 C6.70898438 52.98839844 7.41796875 52.97679687 8.1484375 52.96484375 C16.52247255 52.89387735 24.88103577 53.09642882 33.25 53.375 C34.35005371 53.40585693 35.45010742 53.43671387 36.58349609 53.46850586 C53.55716235 54.08282741 53.55716235 54.08282741 57.70410156 57.33740234 C59.51117219 59.65581812 60.0602271 62.00587075 60.3125 64.90405273 C59.36785334 71.23982742 50.29118022 76.21088731 45.51953125 79.75195312 C44.64683594 80.39068359 43.77414062 81.02941406 42.875 81.6875 C41.12191466 82.98242175 39.369296 84.27797558 37.6171875 85.57421875 C36.40434082 86.46633057 36.40434082 86.46633057 35.16699219 87.37646484 C33.41223387 88.6911497 31.70233836 90.06557333 30.0078125 91.45703125 C28 93 28 93 26 93 C26.17015625 93.7321875 26.3403125 94.464375 26.515625 95.21875 C28.31393514 103.25375275 29.80761751 111.321125 31.1875 119.4375 C31.36635742 120.46746094 31.54521484 121.49742187 31.72949219 122.55859375 C34.19804413 137.34103345 34.19804413 137.34103345 30 144 C26.36052526 148.47135468 22.60145316 150.8403646 17 152 C9.06321074 152.23825259 3.30454356 148.52190847 -2.5 143.5 C-7.16559763 139.51186036 -11.91349933 135.65428806 -16.75 131.875 C-17.37068359 131.38966797 -17.99136719 130.90433594 -18.63085938 130.40429688 C-20.08609416 129.26806271 -21.54286984 128.13380246 -23 127 C-25.85586475 128.18353921 -28.70978545 129.37140557 -31.5625 130.5625 C-32.42351318 130.92021484 -33.28452637 131.27792969 -34.17163086 131.64648438 C-38.9306672 133.64213833 -43.58589625 135.74859378 -48.19458008 138.06884766 C-55.53435203 141.72770143 -61.38479016 143.68811688 -69.46875 141.2578125 C-75.72497183 138.80001107 -78.52466753 135.6872127 -81.75 129.8125 C-84.51855467 122.78906422 -83.37942644 115.72454533 -80.45922852 108.97314453 C-80.10143311 108.19825684 -79.7436377 107.42336914 -79.375 106.625 C-79.01398193 105.80499512 -78.65296387 104.98499023 -78.28100586 104.14013672 C-75.75995994 98.47432687 -73.05445977 92.91378584 -70.12890625 87.4453125 C-68.97809578 84.95255349 -68.42164121 82.70431951 -68 80 C-68.66 80 -69.32 80 -70 80 C-70.66 78.35 -71.32 76.7 -72 75 C-72.66 75 -73.32 75 -74 75 C-75.62763263 73.09706148 -77.13505394 71.19454334 -78.625 69.1875 C-79.06577881 68.59799561 -79.50655762 68.00849121 -79.96069336 67.40112305 C-80.86784673 66.18652098 -81.7730267 64.97044265 -82.67626953 63.75292969 C-83.88326943 62.15457866 -85.14041686 60.59441304 -86.40234375 59.0390625 C-91.01198316 53.22074729 -93.76629435 48.58501523 -93 41 C-91.4083479 35.03130464 -88.16522548 31.23954918 -83 28 C-72.48720284 23.82715931 -60.58589817 27.46860236 -49.875 29.625 C-47.49878266 30.10329642 -45.12122374 30.57499041 -42.7421875 31.0390625 C-41.19313721 31.35157959 -41.19313721 31.35157959 -39.61279297 31.67041016 C-36.89349038 32.20475891 -36.89349038 32.20475891 -34 31 C-32.66929109 29.62815708 -32.66929109 29.62815708 -31.46875 27.89453125 C-30.9931665 27.24693848 -30.51758301 26.5993457 -30.02758789 25.93212891 C-29.52348389 25.23265137 -29.01937988 24.53317383 -28.5 23.8125 C-27.42680091 22.35732037 -26.35255939 20.90290901 -25.27734375 19.44921875 C-24.46112549 18.34006104 -24.46112549 18.34006104 -23.62841797 17.20849609 C-21.13407402 13.82561223 -18.61696946 10.46270447 -16.0625 7.125 C-15.62679687 6.5369458 -15.19109375 5.9488916 -14.7421875 5.34301758 C-10.57410601 -0.06667126 -6.69097193 -2.13541657 0 0 Z M-7 15 C-8.32967768 16.88371004 -9.562695 18.83595931 -10.75 20.8125 C-11.10634521 21.40272949 -11.46269043 21.99295898 -11.82983398 22.60107422 C-14.4854568 27.03525528 -16.95896885 31.55638587 -19.39160156 36.11645508 C-21.05447169 39.09765713 -22.83915361 41.96391174 -24.68359375 44.8359375 C-25.3067749 45.80837402 -25.92995605 46.78081055 -26.57202148 47.78271484 C-27.04325439 48.51441895 -27.5144873 49.24612305 -28 50 C-32.22919039 49.68782059 -36.45834774 49.37519558 -40.6875 49.0625 C-41.86634766 48.97548828 -43.04519531 48.88847656 -44.25976562 48.79882812 C-52.17429201 48.21337001 -60.08757636 47.61321902 -68 47 C-66.37159701 50.40219909 -64.51714616 53.16821057 -62 56 C-61.34 56 -60.68 56 -60 56 C-59.7834375 56.53496094 -59.566875 57.06992187 -59.34375 57.62109375 C-57.51682778 60.85538338 -55.04116187 63.38672878 -52.5 66.0625 C-49.78869481 68.93844517 -47.20153517 71.69769724 -45 75 C-44.34 75 -43.68 75 -43 75 C-42.34212428 80.92088144 -43.99103036 84.66784341 -46.5703125 89.96484375 C-48.0738601 93.15680136 -49.32928758 96.38233751 -50.5625 99.6875 C-51.98281047 103.46300886 -53.46691851 107.10031343 -55.3125 110.6875 C-57.15130859 113.67741848 -57.15130859 113.67741848 -57 116 C-52.18241715 114.49944141 -47.5782383 112.87435866 -43 110.75 C-38.05309464 108.46249483 -33.07779618 106.25767268 -28.0625 104.125 C-27.32837891 103.80241211 -26.59425781 103.47982422 -25.83789062 103.14746094 C-20.58274727 100.9371952 -20.58274727 100.9371952 -17.82983398 101.23388672 C-17.22598877 101.4867041 -16.62214355 101.73952148 -16 102 C-15.67 102.99 -15.34 103.98 -15 105 C-13.44152856 106.65899675 -13.44152856 106.65899675 -11.5625 108.1875 C-10.94503906 108.71730469 -10.32757812 109.24710938 -9.69140625 109.79296875 C-8.07499198 111.1936275 -8.07499198 111.1936275 -6 111 C-5.67 111.99 -5.34 112.98 -5 114 C-1.52064528 117.64013067 -1.52064528 117.64013067 3 119 C3.33 119.99 3.66 120.98 4 122 C5.62882397 123.43948118 5.62882397 123.43948118 7.5625 124.6875 C8.52349609 125.34298828 8.52349609 125.34298828 9.50390625 126.01171875 C9.99761719 126.33785156 10.49132812 126.66398438 11 127 C12.23428286 123.29715141 11.83474081 120.76774768 11.44140625 116.8828125 C11.37340317 116.18864227 11.30540009 115.49447205 11.2353363 114.77926636 C11.01706361 112.56053187 10.79024218 110.3427808 10.5625 108.125 C10.33969105 105.9142535 10.11872805 103.70334811 9.90037537 101.49215698 C9.70105813 99.48023903 9.49629716 97.46886259 9.29125977 95.45751953 C8.8052294 89.68789504 8.8052294 89.68789504 9 87 C12.43145662 83.3318912 17.07914385 81.26464999 21.46484375 78.91796875 C26.07897799 76.43258758 30.63559898 73.84716173 35.1875 71.25 C36.05004395 70.76587646 36.91258789 70.28175293 37.80126953 69.78295898 C38.60290527 69.32348877 39.40454102 68.86401855 40.23046875 68.390625 C41.31944458 67.7723584 41.31944458 67.7723584 42.43041992 67.14160156 C42.94838135 66.76487305 43.46634277 66.38814453 44 66 C44 65.34 44 64.68 44 64 C42.83428467 63.77449463 41.66856934 63.54898926 40.4675293 63.31665039 C36.13695025 62.46787488 31.81870985 61.56658516 27.50219727 60.64916992 C25.6340433 60.25978889 23.76286347 59.88463875 21.88891602 59.52416992 C19.19141438 59.00269586 16.50902056 58.43058825 13.82421875 57.84765625 C12.98662521 57.6972438 12.14903168 57.54683136 11.28605652 57.39186096 C8.88869494 56.84055084 7.08027266 56.31725148 5 55 C3.28593512 52.13912212 2.64397776 49.24943425 2 46 C1.67555908 44.72374756 1.35111816 43.44749512 1.0168457 42.13256836 C0.73929443 40.88096924 0.46174316 39.62937012 0.17578125 38.33984375 C0.02465378 37.66450089 -0.12647369 36.98915802 -0.28218079 36.29335022 C-0.75502734 34.17568511 -1.22138722 32.05665623 -1.6875 29.9375 C-2.01063565 28.48492986 -2.33420004 27.03245503 -2.65820312 25.58007812 C-3.44374601 22.05447003 -4.22348626 18.52760918 -5 15 C-5.66 15 -6.32 15 -7 15 Z " fill="#EE808C" transform="translate(552,542)"/>
<path d="M0 0 C2.71164178 2.12365589 3.85580095 3.33202702 4.58959961 6.73120117 C4.63093018 7.76220947 4.67226074 8.79321777 4.71484375 9.85546875 C4.7701123 11.00837402 4.82538086 12.1612793 4.88232422 13.34912109 C4.94057373 15.15630615 4.94057373 15.15630615 5 17 C5.0530127 18.17256348 5.10602539 19.34512695 5.16064453 20.55322266 C5.31753943 24.13918088 5.44402 27.72508111 5.5625 31.3125 C5.60568359 32.52228516 5.64886719 33.73207031 5.69335938 34.97851562 C5.90040512 40.98941514 6.05229917 46.985595 6 53 C6.70898438 52.98839844 7.41796875 52.97679687 8.1484375 52.96484375 C16.52247255 52.89387735 24.88103577 53.09642882 33.25 53.375 C34.35005371 53.40585693 35.45010742 53.43671387 36.58349609 53.46850586 C53.52437981 54.08164093 53.52437981 54.08164093 57.71582031 57.32958984 C59.92167265 60.19887534 60.22613891 63.4914206 60 67 C57.71575047 71.04136455 55.4031265 72.65460024 51 74 C51 74.66 51 75.32 51 76 C49.5390625 77.2890625 49.5390625 77.2890625 47.625 78.625 C46.99851563 79.07101563 46.37203125 79.51703125 45.7265625 79.9765625 C44 81 44 81 42 81 C42 81.66 42 82.32 42 83 C39.03578889 85.00008632 36.05924732 86.93983435 32.9765625 88.75195312 C29.30892756 91.13346787 29.30892756 91.13346787 27.49438477 94.95605469 C27.43580853 97.37576595 27.64989904 99.60453555 28 102 C28.12745605 102.88147705 28.25491211 103.7629541 28.38623047 104.67114258 C28.84910572 107.50195606 29.38126777 110.31111933 29.9375 113.125 C30.3019468 115.02321409 30.66525434 116.92164732 31.02734375 118.8203125 C31.19782227 119.71057129 31.36830078 120.60083008 31.54394531 121.51806641 C33.14202166 130.21509219 34.28659425 137.12470605 29.46875 144.98046875 C26.69802397 148.79021704 24.03973731 150.52447842 19.453125 151.59375 C12.80103444 152.54929892 8.43862963 151.93728945 3 148 C-1.71648357 144.2710086 -6.26511804 140.34742207 -10.82666016 136.43212891 C-12.68236329 134.8530224 -14.55744893 133.29998662 -16.4375 131.75 C-17.30592529 130.99674438 -17.30592529 130.99674438 -18.19189453 130.22827148 C-20.03086653 128.66054262 -20.03086653 128.66054262 -23 127 C-25.64284382 127.63630382 -25.64284382 127.63630382 -28 129 C-30.3671875 128.9765625 -30.3671875 128.9765625 -32.875 128.625 C-49.31154518 126.8474831 -63.31002504 129.41687574 -79 134 C-82.75661542 129.42672906 -83.36783683 125.34071535 -83.2734375 119.53515625 C-82.32692794 110.75966045 -77.43331868 102.43204005 -73.68359375 94.54296875 C-72.2856478 91.60111962 -70.9052212 88.65486608 -69.5625 85.6875 C-69.25441406 85.01074219 -68.94632813 84.33398438 -68.62890625 83.63671875 C-67.88043984 81.98107796 -67.88043984 81.98107796 -68 80 C-68.66 80 -69.32 80 -70 80 C-70.66 78.35 -71.32 76.7 -72 75 C-72.66 75 -73.32 75 -74 75 C-75.83119512 72.86959 -77.55136807 70.73251192 -79.25 68.5 C-79.74363037 67.8594165 -80.23726074 67.21883301 -80.74584961 66.55883789 C-81.72575649 65.28500728 -82.7029497 64.00908396 -83.67724609 62.73095703 C-84.77022718 61.30068093 -85.87740489 59.88126568 -86.98828125 58.46484375 C-91.09004178 53.18242758 -93.53208514 49.08486033 -93.30859375 42.1171875 C-92.50919029 36.63267265 -89.99548214 32.43484542 -85.625 29.0625 C-77.25988353 23.82106626 -66.90231267 26.55538224 -57.7578125 28.3671875 C-56.50742188 28.61210937 -55.25703125 28.85703125 -53.96875 29.109375 C-52.03158167 29.49523373 -50.09436577 29.8815721 -48.16308594 30.29589844 C-46.26253166 30.69996826 -44.35389042 31.06539462 -42.4453125 31.4296875 C-41.32656738 31.65897949 -40.20782227 31.88827148 -39.05517578 32.12451172 C-35.79580858 32.30066476 -35.79580858 32.30066476 -33.23974609 29.71484375 C-30.91643069 26.89870386 -28.6674357 24.0632491 -26.5 21.125 C-25.72527344 20.08085937 -24.95054687 19.03671875 -24.15234375 17.9609375 C-22.42045171 15.57840725 -20.73136857 13.1765448 -19.0625 10.75 C-18.381875 9.8425 -17.70125 8.935 -17 8 C-16.34 8 -15.68 8 -15 8 C-14.79375 7.2575 -14.5875 6.515 -14.375 5.75 C-11.23204279 -0.53591443 -6.50693654 -1.9279812 0 0 Z M-7 15 C-9.21102244 18.7692625 -11.41830862 22.54070054 -13.625 26.3125 C-14.24246094 27.36501953 -14.85992187 28.41753906 -15.49609375 29.50195312 C-19.45337127 36.27098047 -23.28881916 43.09293673 -27 50 C-40.69228279 49.29306149 -54.34150272 48.18492078 -68 47 C-66.19972829 50.86133286 -63.719017 53.67968063 -60.8125 56.75 C-59.81574476 57.8196965 -58.81965107 58.89000982 -57.82421875 59.9609375 C-57.34001465 60.48010742 -56.85581055 60.99927734 -56.35693359 61.53417969 C-53.49642885 64.62422476 -50.74353895 67.80634919 -48 71 C-47.505 71.56589844 -47.01 72.13179687 -46.5 72.71484375 C-44.40786435 75.14576273 -43.02574482 76.92276555 -42 80 C-42.91303355 82.45678105 -43.8907911 84.75859299 -45 87.125 C-45.64871638 88.55787904 -46.29579589 89.99150005 -46.94140625 91.42578125 C-47.44824951 92.54460693 -47.44824951 92.54460693 -47.96533203 93.68603516 C-49.68641267 97.53511546 -51.31931211 101.41926106 -52.9375 105.3125 C-53.24365234 106.03518066 -53.54980469 106.75786133 -53.86523438 107.50244141 C-55.10457451 110.49039075 -56 112.73198296 -56 116 C-46.36453151 112.21603059 -36.73970718 108.42250755 -27.5 103.73046875 C-21.71608661 100.88607713 -21.71608661 100.88607713 -18.25 101.4375 C-15.49628238 103.34980391 -13.36397938 105.61920711 -11 108 C-8.95886024 109.96089267 -6.8894161 111.88961971 -4.8125 113.8125 C-4.27947266 114.31458984 -3.74644531 114.81667969 -3.19726562 115.33398438 C-0.53648582 118.12085707 -0.53648582 118.12085707 3 119 C3.33 119.99 3.66 120.98 4 122 C5.62882397 123.43948118 5.62882397 123.43948118 7.5625 124.6875 C8.52349609 125.34298828 8.52349609 125.34298828 9.50390625 126.01171875 C9.99761719 126.33785156 10.49132812 126.66398437 11 127 C12.21000671 123.36997987 11.82331876 120.39059615 11.44140625 116.6640625 C11.37340317 115.94769623 11.30540009 115.23132996 11.2353363 114.49325562 C11.0170244 112.20321592 10.79021 109.91412269 10.5625 107.625 C10.33973409 105.34291372 10.11879767 103.06067386 9.90037537 100.77816772 C9.7641067 99.35880441 9.62512661 97.93969801 9.48304749 96.52090454 C9.14048407 92.99933406 8.92448858 89.53837121 9 86 C9.64324219 85.6596875 10.28648437 85.319375 10.94921875 84.96875 C16.23756498 82.1322048 21.40537979 79.17269762 26.5 76 C32.21924243 72.43831609 38.04552379 69.15026397 44 66 C43.67 65.34 43.34 64.68 43 64 C40.21915094 63.17960864 37.48312647 62.47831534 34.66015625 61.8359375 C33.82286484 61.63900299 32.98557343 61.44206848 32.12290955 61.23916626 C30.34920139 60.82353489 28.57455432 60.41189345 26.79907227 60.00390625 C24.07565011 59.3780221 21.35504964 58.74093392 18.63476562 58.1015625 C16.91421567 57.69986421 15.19351725 57.29880121 13.47265625 56.8984375 C12.24604027 56.61255264 12.24604027 56.61255264 10.99464417 56.32089233 C7.03841095 55.35328026 7.03841095 55.35328026 3 55 C2.90589844 53.8346875 2.81179687 52.669375 2.71484375 51.46875 C2.00074494 45.06319582 0.51460712 38.82403678 -0.95629883 32.55859375 C-1.44247026 30.47873708 -1.91391015 28.39587087 -2.38476562 26.3125 C-2.69182743 24.98937859 -2.99973845 23.66645391 -3.30859375 22.34375 C-3.58501709 21.14943359 -3.86144043 19.95511719 -4.14624023 18.72460938 C-4.42798096 17.82548828 -4.70972168 16.92636719 -5 16 C-5.66 15.67 -6.32 15.34 -7 15 Z " fill="#EDBE5C" transform="translate(209,114)"/>
<path d="M0 0 C3.375 0.875 3.375 0.875 5.375 2.875 C5.69384766 5.76416016 5.69384766 5.76416016 5.7890625 9.4140625 C5.84707031 11.36699219 5.84707031 11.36699219 5.90625 13.359375 C5.93770763 14.73957862 5.96895491 16.11978704 6 17.5 C6.03817934 18.88804541 6.07723105 20.27606711 6.1171875 21.6640625 C6.21172943 25.06757185 6.29727897 28.47107165 6.375 31.875 C7.07061035 31.86452637 7.7662207 31.85405273 8.48291016 31.84326172 C11.65523623 31.80151363 14.82750431 31.77561415 18 31.75 C19.64162109 31.72486328 19.64162109 31.72486328 21.31640625 31.69921875 C31.66321508 31.63651082 31.66321508 31.63651082 36.375 33.875 C38.375 35.875 38.375 35.875 38.8125 38.1875 C38.19069325 42.00717001 36.28499526 43.45000395 33.375 45.875 C32.715 45.875 32.055 45.875 31.375 45.875 C31.375 46.535 31.375 47.195 31.375 47.875 C29.73046875 49.3125 29.73046875 49.3125 27.5625 50.875 C26.85480469 51.390625 26.14710938 51.90625 25.41796875 52.4375 C23.75419271 53.60818754 22.06769789 54.74653474 20.375 55.875 C19.80186069 62.2187885 21.38964219 68.01799394 22.81640625 74.15625 C23.59568162 79.34415317 23.44085951 83.27621073 20.5 87.6875 C17.57549818 90.69801657 15.4177006 92.20596108 11.25 92.4375 C5.14337266 92.30883524 1.74746686 88.77371823 -2.625 84.875 C-4.02550789 83.68898431 -5.44140436 82.52080064 -6.875 81.375 C-7.77992188 80.61703125 -7.77992188 80.61703125 -8.703125 79.84375 C-11.4702241 78.44895208 -12.67362891 78.93950229 -15.625 79.875 C-19.16641912 81.32869917 -22.6563992 82.90009221 -26.12304688 84.5234375 C-31.47660458 86.86651926 -34.9000145 87.21022026 -40.625 85.875 C-44.45456818 83.88628602 -46.99326303 80.84963699 -48.625 76.875 C-49.76531685 70.00774035 -47.73528106 65.0045261 -44.5 59.0625 C-43.71214885 57.60535782 -42.93800315 56.14069756 -42.1796875 54.66796875 C-41.83405762 54.0339917 -41.48842773 53.40001465 -41.13232422 52.74682617 C-40.41752053 50.82738193 -40.41752053 50.82738193 -41.38330078 48.83129883 C-43.26809815 45.86179797 -45.44118931 43.12660147 -47.625 40.375 C-54.36277315 31.88540583 -54.36277315 31.88540583 -55 27 C-54.51707914 22.97565951 -53.18649404 20.99033058 -50.625 17.875 C-46.77537972 15.0175499 -44.41951601 14.55528517 -39.6875 15.0625 C-37.97626953 15.20945313 -37.97626953 15.20945313 -36.23046875 15.359375 C-32.625 15.875 -32.625 15.875 -29.05078125 16.890625 C-25.22334161 17.8843277 -22.5508005 18.46114382 -18.625 17.875 C-14.34787876 14.65814104 -11.59450988 9.99907832 -8.74658203 5.55029297 C-6.09592881 1.5910456 -4.87814161 -0.16821178 0 0 Z M-2.625 10.875 C-3.25148438 11.99519531 -3.87796875 13.11539063 -4.5234375 14.26953125 C-5.34889523 15.74222287 -6.17441954 17.21487718 -7 18.6875 C-7.4125 19.42548828 -7.825 20.16347656 -8.25 20.92382812 C-8.64960938 21.63603516 -9.04921875 22.34824219 -9.4609375 23.08203125 C-9.82751465 23.7366333 -10.1940918 24.39123535 -10.57177734 25.06567383 C-11.52706799 26.70676306 -12.5716896 28.2950344 -13.625 29.875 C-16.09375 30.203125 -16.09375 30.203125 -19.125 30.125 C-20.19234375 30.09921875 -21.2596875 30.0734375 -22.359375 30.046875 C-26.80231151 29.81303624 -31.21004372 29.42198573 -35.625 28.875 C-35.625 33.05342078 -33.33991649 35.033796 -30.75 38.0625 C-30.28980469 38.62130859 -29.82960938 39.18011719 -29.35546875 39.75585938 C-28.16192808 41.17254026 -26.89784584 42.52912202 -25.625 43.875 C-24.965 43.875 -24.305 43.875 -23.625 43.875 C-22.56600752 47.75397244 -22.65587428 49.85251568 -24.27734375 53.51953125 C-24.64150391 54.36064453 -25.00566406 55.20175781 -25.38085938 56.06835938 C-25.77080078 56.93267578 -26.16074219 57.79699219 -26.5625 58.6875 C-26.94857422 59.57115234 -27.33464844 60.45480469 -27.73242188 61.36523438 C-28.68490219 63.54065238 -29.6493014 65.70992068 -30.625 67.875 C-26.32936453 67.31827552 -22.9466354 66.27562956 -19.0625 64.375 C-12.39255038 61.12044302 -12.39255038 61.12044302 -8.625 60.875 C-6.66796875 62.0625 -6.66796875 62.0625 -4.8125 63.875 C-3.79542969 64.83599609 -3.79542969 64.83599609 -2.7578125 65.81640625 C-2.05398438 66.49574219 -1.35015625 67.17507812 -0.625 67.875 C0.84639796 69.19620336 2.32525468 70.50916136 3.8125 71.8125 C4.47121094 72.39902344 5.12992187 72.98554688 5.80859375 73.58984375 C7.16615912 74.98071451 7.16615912 74.98071451 8.375 74.875 C8.045 67.285 7.715 59.695 7.375 51.875 C13.975 47.915 20.575 43.955 27.375 39.875 C23.42028933 37.89764466 19.63211719 36.79114279 15.375 35.75 C14.6634375 35.56824219 13.951875 35.38648438 13.21875 35.19921875 C9.80365356 34.35181609 6.91654278 33.875 3.375 33.875 C3.2203125 32.0496875 3.2203125 32.0496875 3.0625 30.1875 C2.37257176 24.0077142 1.2227513 17.81609508 -0.625 11.875 C-1.285 11.545 -1.945 11.215 -2.625 10.875 Z " fill="#E9BD5A" transform="translate(464.625,125.125)"/>
<path d="M0 0 C2.4375 1.25 2.4375 1.25 4.4375 4.25 C4.75634766 7.0690918 4.75634766 7.0690918 4.8515625 10.44921875 C4.90957031 12.26196289 4.90957031 12.26196289 4.96875 14.11132812 C4.9996875 15.37396484 5.030625 16.63660156 5.0625 17.9375 C5.12050781 19.84885742 5.12050781 19.84885742 5.1796875 21.79882812 C5.27407686 24.94907292 5.3596583 28.09930991 5.4375 31.25 C6.22922607 31.25410889 7.02095215 31.25821777 7.83666992 31.26245117 C11.43353252 31.29540154 15.02870475 31.36605043 18.625 31.4375 C19.87087891 31.44330078 21.11675781 31.44910156 22.40039062 31.45507812 C32.70799529 31.70378708 32.70799529 31.70378708 35.8125 34.625 C37.4375 37.25 37.4375 37.25 37.25 40.0625 C36.8478125 41.1453125 36.8478125 41.1453125 36.4375 42.25 C35.7775 42.25 35.1175 42.25 34.4375 42.25 C34.4375 42.91 34.4375 43.57 34.4375 44.25 C32.71484375 45.80078125 32.71484375 45.80078125 30.375 47.5625 C29.62089844 48.13613281 28.86679687 48.70976563 28.08984375 49.30078125 C24.89443714 51.64909921 21.66916771 53.95183729 18.4375 56.25 C18.56390869 56.88502441 18.69031738 57.52004883 18.82055664 58.17431641 C19.39116242 61.07253918 19.94570036 63.97361638 20.5 66.875 C20.69916016 67.87402344 20.89832031 68.87304688 21.10351562 69.90234375 C23.24463267 81.24650773 23.24463267 81.24650773 20.31640625 86.11328125 C15.80997905 91.07436283 15.80997905 91.07436283 12.30078125 91.5234375 C5.63340074 91.78890747 2.3930644 90.77464576 -2.5625 86.25 C-2.5625 85.59 -2.5625 84.93 -2.5625 84.25 C-4.2125 83.59 -5.8625 82.93 -7.5625 82.25 C-7.5625 81.59 -7.5625 80.93 -7.5625 80.25 C-10.38173195 78.8178662 -12.4909546 77.94479044 -15.61621094 78.83496094 C-17.93238443 79.86127074 -20.18602293 80.96355357 -22.4375 82.125 C-28.47297247 85.20889234 -32.72312633 86.86774988 -39.5625 86.25 C-43.33676504 84.94352364 -45.22458011 83.61459778 -47.9375 80.6875 C-50.19613662 75.90961485 -50.6052137 72.44325588 -49.5625 67.25 C-48.06569809 63.21712732 -46.14769758 59.39591536 -44.19140625 55.5703125 C-42.28231691 52.04777264 -42.28231691 52.04777264 -41.5625 48.25 C-43.13848733 45.95786798 -43.13848733 45.95786798 -45.375 43.8125 C-48.37997823 40.75433631 -50.1999125 38.33776251 -51.5625 34.25 C-52.2225 34.25 -52.8825 34.25 -53.5625 34.25 C-55.53495698 29.49289787 -55.83733437 26.25827787 -54.5625 21.25 C-53.02989485 18.37636534 -51.83198632 16.75391692 -48.75610352 15.53295898 C-42.112752 13.85629997 -36.63031005 14.71205504 -30 16.125 C-28.99130859 16.32480469 -27.98261719 16.52460937 -26.94335938 16.73046875 C-24.4793419 17.22093668 -22.01991642 17.72763517 -19.5625 18.25 C-19.15257812 17.6003125 -18.74265625 16.950625 -18.3203125 16.28125 C-17.78148437 15.4459375 -17.24265625 14.610625 -16.6875 13.75 C-16.15382813 12.9146875 -15.62015625 12.079375 -15.0703125 11.21875 C-14.57273437 10.5690625 -14.07515625 9.919375 -13.5625 9.25 C-12.9025 9.25 -12.2425 9.25 -11.5625 9.25 C-11.315 8.693125 -11.0675 8.13625 -10.8125 7.5625 C-5.80609704 -1.69934548 -5.80609704 -1.69934548 0 0 Z M-3.5625 11.25 C-4.98700803 12.95876848 -4.98700803 12.95876848 -6.375 15.1875 C-7.16777344 16.40759766 -7.16777344 16.40759766 -7.9765625 17.65234375 C-9.93435427 20.85907164 -11.69286861 24.14722447 -13.38671875 27.5 C-14.5625 29.25 -14.5625 29.25 -17.5625 30.25 C-19.27483688 30.1629796 -20.98425406 30.00902838 -22.6875 29.8125 C-27.68509437 29.29344226 -32.54067877 29.16767506 -37.5625 29.25 C-35.71264033 33.18951596 -33.48684659 36.03321875 -30.5625 39.25 C-29.9025 39.25 -29.2425 39.25 -28.5625 39.25 C-28.294375 39.806875 -28.02625 40.36375 -27.75 40.9375 C-26.60045961 43.32782716 -26.60045961 43.32782716 -24.85546875 45.56640625 C-23.5625 48.25 -23.5625 48.25 -24.2578125 50.828125 C-24.72960937 51.70984375 -25.20140625 52.5915625 -25.6875 53.5 C-28.14357865 58.35289534 -29.94608647 63.06046184 -31.5625 68.25 C-25.43588939 66.32188069 -25.43588939 66.32188069 -19.57421875 63.7265625 C-16.5463331 62.21069599 -13.87320054 60.97618908 -10.5625 60.25 C-7.09655752 61.47966606 -5.01768454 63.57213593 -2.5625 66.25 C-1.634375 67.136875 -0.70625 68.02375 0.25 68.9375 C1.54642903 70.30801069 2.83947766 71.68175379 4.125 73.0625 C5.38968271 74.47363777 5.38968271 74.47363777 7.4375 74.25 C7.29615273 71.35388456 7.1495847 68.4581919 7 65.5625 C6.96068359 64.74587891 6.92136719 63.92925781 6.88085938 63.08789062 C6.66851997 59.05344189 6.39302078 55.19252691 5.4375 51.25 C6.12585938 51.0025 6.81421875 50.755 7.5234375 50.5 C10.90757989 49.04835715 13.95646174 47.20722959 17.0625 45.25 C17.92101562 44.71632813 17.92101562 44.71632813 18.796875 44.171875 C21.37035315 42.56793978 23.91422661 40.93218226 26.4375 39.25 C18.57882068 36.35469709 10.64627337 34.77494999 2.4375 33.25 C2.2828125 31.4246875 2.2828125 31.4246875 2.125 29.5625 C1.44911197 23.34035428 -0.07111963 17.31869875 -1.5625 11.25 C-2.2225 11.25 -2.8825 11.25 -3.5625 11.25 Z " fill="#EB7E8C" transform="translate(684.5625,577.75)"/>
<path d="M0 0 C4.62 2.31 9.24 4.62 14 7 C14 10 14 10 12.49609375 11.76171875 C11.81675781 12.39722656 11.13742187 13.03273438 10.4375 13.6875 C7.67310334 16.34520065 5.04951027 19.01847386 2.5625 21.9375 C-0.00665271 24.92801716 -2.69317256 27.73116684 -5.5 30.5 C-9.54932602 34.50136446 -13.29390913 38.68310573 -17 43 C-18.37113956 44.56588875 -19.74622777 46.12832766 -21.125 47.6875 C-21.74632812 48.39261719 -22.36765625 49.09773438 -23.0078125 49.82421875 C-25.26730782 52.29194207 -27.63416906 54.63416906 -30 57 C-31.80154616 58.92945049 -33.59284279 60.86539586 -35.375 62.8125 C-40.23738253 68.09506928 -45.10787991 73.36994702 -50 78.625 C-50.63470215 79.31182861 -51.2694043 79.99865723 -51.92333984 80.70629883 C-52.5261377 81.35236084 -53.12893555 81.99842285 -53.75 82.6640625 C-54.28109375 83.23592285 -54.8121875 83.8077832 -55.359375 84.39697266 C-58.76978339 87.72922585 -61.08781088 89.44021955 -65.9375 89.5 C-69.84523339 89.39065253 -70.77616875 89.17253659 -74 86.6875 C-77.5671461 81.89414742 -78.33421875 80.01657947 -77.55078125 74.23046875 C-76.77279366 71.07989488 -75.34343712 69.20141063 -73 67 C-72.34 67 -71.68 67 -71 67 C-70.76925781 66.42121094 -70.53851563 65.84242188 -70.30078125 65.24609375 C-68.67349767 62.4362197 -66.77112805 61.01862019 -64.1875 59.0625 C-60.49908075 56.25573013 -57.25181741 53.30161553 -54 50 C-51.51583545 47.67033064 -48.98461511 45.39215126 -46.4609375 43.10546875 C-44.03375194 40.89610754 -41.6658466 38.6658466 -39.34375 36.34375 C-37.45266732 34.45266732 -35.55450083 32.70562333 -33.5 31 C-31.47011409 29.28307295 -29.57089158 27.57089158 -27.6875 25.6875 C-24.29682125 22.29682125 -20.70809195 19.15579099 -17.109375 15.98828125 C-14.94486736 14.17649554 -14.94486736 14.17649554 -14 12 C-13.34 12 -12.68 12 -12 12 C-11.77570313 11.42765625 -11.55140625 10.8553125 -11.3203125 10.265625 C-8.72908396 5.81913815 -4.01612591 3.08932762 0 0 Z " fill="#EE9281" transform="translate(358,461)"/>
<path d="M0 0 C0.90298828 0.17402344 1.80597656 0.34804688 2.73632812 0.52734375 C8.05898352 1.56797877 13.31327966 2.76204454 18.5625 4.125 C18.68367187 5.00542969 18.80484375 5.88585937 18.9296875 6.79296875 C19.18105469 8.53513672 19.18105469 8.53513672 19.4375 10.3125 C19.59992187 11.46105469 19.76234375 12.60960937 19.9296875 13.79296875 C20.50310245 16.81224625 21.31009043 19.33075848 22.5625 22.125 C15.79988351 22.23597627 9.22464361 21.81758682 2.5 21.125 C1.05850586 20.98191406 1.05850586 20.98191406 -0.41210938 20.8359375 C-2.75432923 20.6028808 -5.09606955 20.36583651 -7.4375 20.125 C-6.9513623 20.66753418 -6.46522461 21.21006836 -5.96435547 21.76904297 C-2.99790009 25.08866792 -0.16246944 28.4006429 2.375 32.0625 C4.21808265 35.14774454 4.21808265 35.14774454 6.5625 36.125 C6.0243552 40.34046759 4.70334391 42.58442465 2.0625 45.875 C-6.57890957 57.46374748 -12.18167824 70.12515467 -16.69921875 83.8137207 C-19.49400478 92.08685468 -19.49400478 92.08685468 -23.4375 95.125 C-23.91958881 88.89940479 -22.33554859 84.58210363 -19.8125 78.9375 C-19.45293213 78.10323486 -19.09336426 77.26896973 -18.72290039 76.40942383 C-16.21753306 70.66423293 -13.47054784 65.11817763 -10.37109375 59.66796875 C-9.17160945 56.40075418 -9.49538525 54.44526848 -10.4375 51.125 C-12.06199243 49.41720027 -13.72970027 47.74949243 -15.4375 46.125 C-16.75 43.3125 -16.75 43.3125 -17.4375 41.125 C-18.0975 41.125 -18.7575 41.125 -19.4375 41.125 C-21.16832971 39.09728698 -22.78158286 37.06895409 -24.375 34.9375 C-24.81779297 34.35935547 -25.26058594 33.78121094 -25.71679688 33.18554688 C-30.6133871 26.72730194 -34.02037304 21.51594308 -33.4375 13.125 C-31.87233121 7.86512987 -29.68534144 3.44039326 -24.875 0.5625 C-16.26879087 -3.03646018 -8.94906042 -1.79362832 0 0 Z " fill="#EFAC6F" transform="translate(565.4375,316.875)"/>
<path d="M0 0 C-1.70042603 4.14415205 -4.6415183 7.24379837 -7.5625 10.5625 C-8.65723639 11.82206003 -9.75097798 13.08248534 -10.84375 14.34375 C-11.38257813 14.96507813 -11.92140625 15.58640625 -12.4765625 16.2265625 C-14.5478397 18.63774159 -16.55921009 21.09467909 -18.5625 23.5625 C-21.82778303 27.58358091 -25.14557844 31.55345162 -28.5 35.5 C-31.87283589 39.46903543 -35.21176645 43.46017021 -38.5 47.5 C-42.24787798 52.1045358 -46.06983444 56.64019191 -49.9140625 61.1640625 C-53.54965134 65.44958901 -57.11114067 69.79160238 -60.65625 74.15234375 C-63.87527199 78.06345547 -67.15918943 81.91858408 -70.45898438 85.76171875 C-72.9946086 88.69812204 -72.9946086 88.69812204 -75 92 C-75.66 92 -76.32 92 -77 92 C-77.2475 92.61875 -77.495 93.2375 -77.75 93.875 C-79.30552932 96.51939985 -80.07621471 97.07669938 -83 98 C-87.17776989 98.33156904 -89.90991872 98.41180849 -93.8125 96.9375 C-96.85497152 94.24273951 -97.83617886 91.87940378 -99 88 C-99.20356573 84.2679617 -98.83862111 82.08331161 -96.52734375 79.09765625 C-92.05363705 74.45859694 -87.00518782 70.44953544 -81.98828125 66.41796875 C-78.78394754 63.82518108 -75.63821504 61.17195536 -72.5 58.5 C-67.65084922 54.37847102 -62.74837899 50.33007593 -57.8125 46.3125 C-54.68200334 43.73853608 -51.58827539 41.12430914 -48.5 38.5 C-44.53092065 35.12721426 -40.53983137 31.78823483 -36.5 28.5 C-29.6517628 22.92216043 -22.92874699 17.198016 -16.20507812 11.47119141 C-15.00620596 10.45008527 -13.80683337 9.42956636 -12.60693359 8.40966797 C-11.47846519 7.45045392 -10.35112824 6.48990669 -9.22509766 5.52783203 C-2.71874274 0 -2.71874274 0 0 0 Z " fill="#EAC652" transform="translate(322,63)"/>
<path d="M0 0 C-1 2 -2 4 -3 6 C-3.66 6 -4.32 6 -5 6 C-5.4640625 6.928125 -5.4640625 6.928125 -5.9375 7.875 C-6.625 9.25 -7.3125 10.625 -8 12 C-8.66 12 -9.32 12 -10 12 C-10.4640625 12.928125 -10.4640625 12.928125 -10.9375 13.875 C-11.625 15.25 -12.3125 16.625 -13 18 C-13.66 18 -14.32 18 -15 18 C-15.309375 18.61875 -15.61875 19.2375 -15.9375 19.875 C-16.625 21.25 -17.3125 22.625 -18 24 C-18.66 24 -19.32 24 -20 24 C-20.309375 24.61875 -20.61875 25.2375 -20.9375 25.875 C-21.625 27.25 -22.3125 28.625 -23 30 C-23.66 30 -24.32 30 -25 30 C-25.309375 30.61875 -25.61875 31.2375 -25.9375 31.875 C-26.625 33.25 -27.3125 34.625 -28 36 C-28.66 36 -29.32 36 -30 36 C-30.4640625 36.928125 -30.4640625 36.928125 -30.9375 37.875 C-31.625 39.25 -32.3125 40.625 -33 42 C-33.66 42 -34.32 42 -35 42 C-35.309375 42.61875 -35.61875 43.2375 -35.9375 43.875 C-36.625 45.25 -37.3125 46.625 -38 48 C-38.66 48 -39.32 48 -40 48 C-40.309375 48.61875 -40.61875 49.2375 -40.9375 49.875 C-41.625 51.25 -42.3125 52.625 -43 54 C-43.66 54 -44.32 54 -45 54 C-45.309375 54.61875 -45.61875 55.2375 -45.9375 55.875 C-46.625 57.25 -47.3125 58.625 -48 60 C-48.66 60 -49.32 60 -50 60 C-50.309375 60.61875 -50.61875 61.2375 -50.9375 61.875 C-51.625 63.25 -52.3125 64.625 -53 66 C-53.66 66 -54.32 66 -55 66 C-55.309375 66.61875 -55.61875 67.2375 -55.9375 67.875 C-56.625 69.25 -57.3125 70.625 -58 72 C-58.66 72 -59.32 72 -60 72 C-60.21140625 72.51949219 -60.4228125 73.03898437 -60.640625 73.57421875 C-62.57968124 77.03443117 -65.14181769 79.83853602 -67.75 82.8125 C-68.26304687 83.40353516 -68.77609375 83.99457031 -69.3046875 84.60351562 C-70.3407785 85.79710287 -71.37919225 86.98867782 -72.41992188 88.17822266 C-73.50965918 89.4346534 -74.58848535 90.70060255 -75.65820312 91.97412109 C-76.18865234 92.60527832 -76.71910156 93.23643555 -77.265625 93.88671875 C-77.74290039 94.45994873 -78.22017578 95.03317871 -78.71191406 95.6237793 C-80.9906242 98.05840572 -83.03878462 98.23300748 -86.25 98.375 C-89.80339568 98.35207487 -91.74740032 97.89656284 -94.5 95.625 C-98.09472026 91.85054372 -98.48786585 89.44411543 -98.390625 84.36328125 C-97.21591193 77.25626718 -89.34880262 72.66778052 -84.09375 68.48828125 C-81.8492308 66.68303033 -79.64982995 64.8592149 -77.46875 62.98046875 C-76.88101807 62.47483398 -76.29328613 61.96919922 -75.68774414 61.44824219 C-74.53549103 60.45366243 -73.386152 59.45569496 -72.23999023 58.45410156 C-68.22030118 55 -68.22030118 55 -66 55 C-66 54.34 -66 53.68 -66 53 C-62.53846154 50 -62.53846154 50 -60 50 C-60 49.34 -60 48.68 -60 48 C-56.53846154 45 -56.53846154 45 -54 45 C-54 44.34 -54 43.68 -54 43 C-50.53846154 40 -50.53846154 40 -48 40 C-48 39.34 -48 38.68 -48 38 C-44.53846154 35 -44.53846154 35 -42 35 C-42 34.34 -42 33.68 -42 33 C-38.53846154 30 -38.53846154 30 -36 30 C-36 29.34 -36 28.68 -36 28 C-32.53846154 25 -32.53846154 25 -30 25 C-30 24.34 -30 23.68 -30 23 C-26.53846154 20 -26.53846154 20 -24 20 C-24 19.34 -24 18.68 -24 18 C-20.53846154 15 -20.53846154 15 -18 15 C-18 14.34 -18 13.68 -18 13 C-14.53846154 10 -14.53846154 10 -12 10 C-12 9.34 -12 8.68 -12 8 C-8.53846154 5 -8.53846154 5 -6 5 C-6 4.34 -6 3.68 -6 3 C-2.53846154 0 -2.53846154 0 0 0 Z " fill="#EDB168" transform="translate(363,223)"/>
<path d="M0 0 C11.10948361 10.52477395 6.5450473 39.57024608 7 54 C7.75394043 53.99476318 8.50788086 53.98952637 9.28466797 53.98413086 C34.58999682 53.83196759 34.58999682 53.83196759 45.375 54.25 C46.42276611 54.27114868 46.42276611 54.27114868 47.49169922 54.29272461 C52.34781491 54.53414568 55.25495927 55.94703833 59 59 C60.5625 61.9375 60.5625 61.9375 61 65 C59.08062884 68.94043087 56.62126737 71.48326413 53.3125 74.3125 C52.50425781 75.00988281 51.69601562 75.70726562 50.86328125 76.42578125 C50.24839844 76.94527344 49.63351562 77.46476562 49 78 C47.70391053 77.06862408 46.41328368 76.1296434 45.125 75.1875 C44.40570313 74.66542969 43.68640625 74.14335937 42.9453125 73.60546875 C41 72 41 72 39 69 C40.98 67.515 40.98 67.515 43 66 C34.96527311 63.10821014 26.75009102 61.20525232 18.4375 59.3125 C17.03311081 58.9893332 15.62881312 58.66576849 14.22460938 58.34179688 C10.81744817 57.55661095 7.40908292 56.77680552 4 56 C3.80365967 55.17387207 3.60731934 54.34774414 3.4050293 53.49658203 C2.6636976 50.3835553 1.91973216 47.27117228 1.17407227 44.15917969 C0.85403209 42.82120944 0.53499316 41.48299923 0.21704102 40.14453125 C-1.6342116 32.35469346 -3.57261832 24.63212915 -6 17 C-9.82176444 22.53534199 -13.24315323 28.14733506 -16.41796875 34.078125 C-18.14601956 37.26968551 -19.93438869 40.41995123 -21.75 43.5625 C-22.32234375 44.55378906 -22.8946875 45.54507813 -23.484375 46.56640625 C-25 49 -25 49 -27 51 C-33.34210188 51.56780578 -39.74534844 51.13720937 -46 50 C-45.21734114 46.26165299 -43.81883095 42.87791133 -42.3125 39.375 C-41.83425781 38.22773438 -41.35601562 37.08046875 -40.86328125 35.8984375 C-39 33 -39 33 -36.15625 32.0625 C-31.5676247 30.51781425 -29.88569792 27.50025213 -27.1875 23.625 C-26.67268066 22.9134375 -26.15786133 22.201875 -25.62744141 21.46875 C-24.57865787 20.01883681 -23.53564656 18.5647303 -22.49853516 17.10644531 C-20.32225505 14.04731453 -18.10619331 11.01919228 -15.875 8 C-15.17117187 7.030625 -14.46734375 6.06125 -13.7421875 5.0625 C-12.87980469 4.0415625 -12.87980469 4.0415625 -12 3 C-11.34 3 -10.68 3 -10 3 C-10 2.34 -10 1.68 -10 1 C-6.37671381 -0.20776206 -3.80388473 -0.40040892 0 0 Z " fill="#E9AD6A" transform="translate(245,274)"/>
<path d="M0 0 C0.66 0 1.32 0 2 0 C2 0.66 2 1.32 2 2 C1.34 2 0.68 2 0 2 C-0.66 3.65 -1.32 5.3 -2 7 C-2.66 7 -3.32 7 -4 7 C-4.2371875 7.53109375 -4.474375 8.0621875 -4.71875 8.609375 C-6.37378384 11.69742595 -8.40548128 14.4528472 -10.5 17.25 C-10.90347656 17.80429687 -11.30695313 18.35859375 -11.72265625 18.9296875 C-12.76450171 20.32569165 -13.87745412 21.66802392 -15 23 C-15.66 23 -16.32 23 -17 23 C-17.66 24.65 -18.32 26.3 -19 28 C-19.66 28 -20.32 28 -21 28 C-21.66 29.65 -22.32 31.3 -23 33 C-23.66 33 -24.32 33 -25 33 C-25.2371875 33.53109375 -25.474375 34.0621875 -25.71875 34.609375 C-27.37378384 37.69742595 -29.40548128 40.4528472 -31.5 43.25 C-31.90347656 43.80429687 -32.30695312 44.35859375 -32.72265625 44.9296875 C-33.76450171 46.32569165 -34.87745412 47.66802392 -36 49 C-36.66 49 -37.32 49 -38 49 C-38.66 50.65 -39.32 52.3 -40 54 C-40.66 54 -41.32 54 -42 54 C-42.66 55.65 -43.32 57.3 -44 59 C-44.66 59 -45.32 59 -46 59 C-46.66 60.65 -47.32 62.3 -48 64 C-48.66 64 -49.32 64 -50 64 C-50.2371875 64.53109375 -50.474375 65.0621875 -50.71875 65.609375 C-52.37378384 68.69742595 -54.40548128 71.4528472 -56.5 74.25 C-56.90347656 74.80429687 -57.30695312 75.35859375 -57.72265625 75.9296875 C-58.76450171 77.32569165 -59.87745412 78.66802392 -61 80 C-61.66 80 -62.32 80 -63 80 C-63.28875 80.61875 -63.5775 81.2375 -63.875 81.875 C-65 84 -65 84 -67 86 C-71.36866957 87.16206611 -75.0603674 87.29581026 -79.375 85.9375 C-82.72512426 83.46478923 -83.82997451 82.02196261 -85 78 C-84.74830926 73.17211401 -83.95184768 69.24930008 -81 65.375 C-79 64 -79 64 -77 64 C-77 63.34 -77 62.68 -77 62 C-75.35 61.34 -73.7 60.68 -72 60 C-72 59.34 -72 58.68 -72 58 C-70.50292969 56.61132812 -70.50292969 56.61132812 -68.421875 55.03125 C-67.67292969 54.46019531 -66.92398438 53.88914062 -66.15234375 53.30078125 C-65.35957031 52.70652344 -64.56679688 52.11226563 -63.75 51.5 C-62.97269531 50.90574219 -62.19539062 50.31148438 -61.39453125 49.69921875 C-58.02168654 47.14508164 -54.84570345 44.79681607 -51 43 C-51 42.34 -51 41.68 -51 41 C-49.35 40.34 -47.7 39.68 -46 39 C-46 38.34 -46 37.68 -46 37 C-44.55053711 35.67480469 -44.55053711 35.67480469 -42.52734375 34.171875 C-41.79193359 33.61886719 -41.05652344 33.06585938 -40.29882812 32.49609375 C-39.51958984 31.91988281 -38.74035156 31.34367187 -37.9375 30.75 C-36.42423683 29.62186036 -34.91250237 28.49166709 -33.40234375 27.359375 C-32.6635498 26.80572266 -31.92475586 26.25207031 -31.16357422 25.68164062 C-28.47486585 23.59183886 -25.93202126 21.36465282 -23.41235352 19.07519531 C-22 18 -22 18 -20 18 C-20 17.34 -20 16.68 -20 16 C-18.35 15.34 -16.7 14.68 -15 14 C-15 13.34 -15 12.68 -15 12 C-12.72247812 10.06924919 -10.43771937 8.24026611 -8.0625 6.4375 C-6.76142712 5.43657688 -5.46063154 4.43529318 -4.16015625 3.43359375 C-3.11730469 2.63050781 -2.07445312 1.82742187 -1 1 C-0.67 0.67 -0.34 0.34 0 0 Z " fill="#EBAE6A" transform="translate(728,250)"/>
<path d="M0 0 C0.84820312 0.28617187 1.69640625 0.57234375 2.5703125 0.8671875 C5.99288278 1.99764921 9.42849719 3.06994812 12.875 4.125 C14.02742188 4.47820312 15.17984375 4.83140625 16.3671875 5.1953125 C17.67042969 5.59363281 17.67042969 5.59363281 19 6 C15.89536845 12.46912212 11.04209302 17.06675777 5.92578125 22 C1.39242388 26.43330024 -2.64106995 30.9573529 -6.4609375 36.015625 C-8.44741659 38.57687215 -10.65337121 40.76511543 -13 43 C-14.50274976 44.49724519 -16.0024732 45.99753087 -17.5 47.5 C-18.27472656 48.2734375 -19.04945313 49.046875 -19.84765625 49.84375 C-21.11084914 51.10923543 -22.37038867 52.3784212 -23.62109375 53.65625 C-26.80864485 56.91001136 -28.08439315 57.92369943 -32.75 58.3125 C-37.21969472 58.21497939 -39.72945872 57.19267125 -43 54 C-44.75920802 50.3301767 -45.39839323 46.93039628 -44.5703125 42.91796875 C-42.28475431 37.39997827 -38.06760717 34.31633038 -33.390625 30.80859375 C-30.67207076 28.75190975 -28.37571417 26.43992266 -26 24 C-24.30000912 22.51795666 -22.57897997 21.06556828 -20.84375 19.625 C-19.4299949 18.37897856 -18.07081135 17.07081135 -16.73828125 15.73828125 C-13.46637689 12.46637689 -10.08590238 9.32690982 -6.6875 6.1875 C-6.04232422 5.59001953 -5.39714844 4.99253906 -4.73242188 4.37695312 C-3.15576508 2.91708572 -1.57799662 1.45841907 0 0 Z " fill="#F0957F" transform="translate(277,463)"/>
<path d="M0 0 C-1.60034032 3.56286292 -3.75774664 6.46527478 -6.125 9.5625 C-9.98893432 14.63742505 -13.71569033 19.78729041 -17.37109375 25.015625 C-17.90863281 25.67046875 -18.44617188 26.3253125 -19 27 C-19.66 27 -20.32 27 -21 27 C-21.2371875 27.69480469 -21.474375 28.38960937 -21.71875 29.10546875 C-23.2310527 32.52198185 -25.25238367 35.35756671 -27.5 38.3125 C-27.90347656 38.86228516 -28.30695312 39.41207031 -28.72265625 39.97851562 C-29.76268691 41.36007451 -30.87633454 42.68556298 -32 44 C-32.66 44 -33.32 44 -34 44 C-34.20625 44.66 -34.4125 45.32 -34.625 46 C-36.49124252 50.07180186 -38.97561527 53.68796998 -42 57 C-42.66 57 -43.32 57 -44 57 C-44.37898438 58.09248047 -44.37898438 58.09248047 -44.765625 59.20703125 C-47.27371805 64.88198863 -51.66430526 69.80925366 -57.1875 72.625 C-61.30329371 73.17377249 -63.84321602 72.49576456 -67.625 70.875 C-70.90997734 68.28159684 -71.80436647 65.98544511 -73 62 C-72.84844654 57.84648803 -72.53916396 55.65953083 -69.8828125 52.41015625 C-68.97273438 51.63542969 -68.06265625 50.86070312 -67.125 50.0625 C-65.64580078 48.79986328 -65.64580078 48.79986328 -64.13671875 47.51171875 C-51.15643105 37 -51.15643105 37 -48 37 C-48 36.34 -48 35.68 -48 35 C-45.82564902 33.27330952 -43.6428583 31.65843099 -41.375 30.0625 C-36.09534945 26.27471977 -30.90030159 22.41712711 -25.8125 18.375 C-21.3182249 14.81878232 -16.81296703 11.28038272 -12.25 7.8125 C-11.28578125 7.07644531 -10.3215625 6.34039062 -9.328125 5.58203125 C-7 4 -7 4 -5 4 C-5 3.34 -5 2.68 -5 2 C-2 0 -2 0 0 0 Z " fill="#ECC752" transform="translate(551,80)"/>
<path d="M0 0 C3.96 1.98 7.92 3.96 12 6 C12 6.99 12 7.98 12 9 C11.34 9 10.68 9 10 9 C9.690625 9.61875 9.38125 10.2375 9.0625 10.875 C8.375 12.25 7.6875 13.625 7 15 C6.34 15 5.68 15 5 15 C4.690625 15.61875 4.38125 16.2375 4.0625 16.875 C3.375 18.25 2.6875 19.625 2 21 C1.34 21 0.68 21 0 21 C-0.309375 21.61875 -0.61875 22.2375 -0.9375 22.875 C-1.625 24.25 -2.3125 25.625 -3 27 C-3.66 27 -4.32 27 -5 27 C-5.309375 27.61875 -5.61875 28.2375 -5.9375 28.875 C-6.625 30.25 -7.3125 31.625 -8 33 C-8.66 33 -9.32 33 -10 33 C-10.309375 33.61875 -10.61875 34.2375 -10.9375 34.875 C-11.625 36.25 -12.3125 37.625 -13 39 C-13.66 39 -14.32 39 -15 39 C-15.309375 39.61875 -15.61875 40.2375 -15.9375 40.875 C-16.625 42.25 -17.3125 43.625 -18 45 C-18.66 45 -19.32 45 -20 45 C-20.20625 45.556875 -20.4125 46.11375 -20.625 46.6875 C-22.55654023 49.93599948 -24.66675516 52.25141254 -28 54 C-31.52936626 54.82504666 -34.47945194 54.88868203 -38 54 C-41.46508429 51.72646643 -43.50766793 49.00394536 -44.5 44.96484375 C-44.80999801 39.93706351 -43.18723637 36.74968984 -40 33 C-39.34 33 -38.68 33 -38 33 C-38 32.34 -38 31.68 -38 31 C-34.53846154 28 -34.53846154 28 -32 28 C-32 27.34 -32 26.68 -32 26 C-30.48828125 24.66015625 -30.48828125 24.66015625 -28.3125 23.0625 C-24.2787085 20.01812906 -20.40172968 16.84487759 -16.5625 13.5625 C-11.12855514 8.92761777 -5.60219793 4.4315894 0 0 Z " fill="#EE8A85" transform="translate(613,533)"/>
<path d="M0 0 C-2.46682525 6.5034484 -5.74731419 12.62984057 -8.90332031 18.81738281 C-9.97286511 20.94599601 -11.00118078 23.09054236 -12.0234375 25.2421875 C-17.44583853 36.40257197 -17.44583853 36.40257197 -22.0625 39 C-25.96047955 40.3349245 -29.03960889 40.24678979 -33 39 C-36.40568991 36.8599381 -38.69474642 34.91576075 -40 31 C-40.68335926 24.05251416 -40.68335926 24.05251416 -38.10546875 20.08203125 C-34.47813931 16.00866607 -29.76216441 13.88270296 -24.9375 11.5 C-24.00317139 11.0258667 -23.06884277 10.5517334 -22.10620117 10.06323242 C-20.25381265 9.125239 -18.39848975 8.19301421 -16.54003906 7.26708984 C-14.35931304 6.17924209 -12.18881669 5.07499502 -10.0234375 3.95703125 C-2.29735748 0 -2.29735748 0 0 0 Z " fill="#EB8487" transform="translate(737,565)"/>
<path d="M0 0 C2.76839189 3.80653885 2.89320858 6.34399707 2.5 11.0625 C-0.80492495 17.41812491 -5.67842212 21.78864071 -12.5 24.0625 C-17.86625026 24.73425767 -22.2007909 24.72350112 -27.0625 22.25 C-30.10963584 19.51539091 -31.3862944 17.90717015 -31.9375 13.8125 C-31.23429216 7.78500419 -28.30166753 4.57753861 -23.75 0.75 C-16.63980767 -2.94183063 -6.83195083 -5.29476189 0 0 Z " fill="#F7F7F8" transform="translate(628.5,311.9375)"/>
<path d="M0 0 C3.32770833 1.12021865 5.15616113 3.03635214 7.375 5.6875 C9.15126107 7.80978595 10.90866014 9.90434796 12.8203125 11.90625 C16.96313521 16.29956897 16.96313521 16.29956897 17.125 19.375 C16.75375 20.24125 16.3825 21.1075 16 22 C15.51466797 23.14275391 15.51466797 23.14275391 15.01953125 24.30859375 C14.04789229 26.55704348 13.03892798 28.78200958 12 31 C8.7991888 30.03878078 5.60386715 29.06365454 2.4140625 28.06640625 C0.43625377 27.44862389 -1.54616138 26.84455407 -3.5390625 26.27734375 C-6.92005509 25.21999214 -8.67883219 24.54866168 -10.5 21.4375 C-11.2425 19.7359375 -11.2425 19.7359375 -12 18 C-14.04650675 15.29319748 -16.18902808 12.68565805 -18.35546875 10.07421875 C-20 8 -20 8 -20 7 C-19.14277344 6.82984375 -18.28554687 6.6596875 -17.40234375 6.484375 C-9.8294111 4.98611921 -9.8294111 4.98611921 -2.9375 1.6875 C-1.968125 1.130625 -0.99875 0.57375 0 0 Z " fill="#EDA870" transform="translate(187,335)"/>
<path d="M0 0 C0.33 0 0.66 0 1 0 C1.33 7.26 1.66 14.52 2 22 C4.71863281 21.98259766 4.71863281 21.98259766 7.4921875 21.96484375 C30.27151649 21.85838366 30.27151649 21.85838366 40.375 22.25 C41.42276611 22.27114868 41.42276611 22.27114868 42.49169922 22.29272461 C47.34781491 22.53414568 50.25495927 23.94703833 54 27 C55.5625 29.9375 55.5625 29.9375 56 33 C54.08062884 36.94043087 51.62126737 39.48326413 48.3125 42.3125 C47.50425781 43.00988281 46.69601562 43.70726562 45.86328125 44.42578125 C44.94095703 45.20501953 44.94095703 45.20501953 44 46 C42.70391053 45.06862408 41.41328368 44.1296434 40.125 43.1875 C39.04605469 42.40439453 39.04605469 42.40439453 37.9453125 41.60546875 C36 40 36 40 34 37 C35.32 36.01 36.64 35.02 38 34 C29.96527311 31.10821014 21.75009102 29.20525232 13.4375 27.3125 C12.03311081 26.9893332 10.62881312 26.66576849 9.22460938 26.34179688 C5.81744817 25.55661095 2.40908292 24.77680552 -1 24 C-1.33 22.35 -1.66 20.7 -2 19 C-1.67 19 -1.34 19 -1 19 C-0.67 12.73 -0.34 6.46 0 0 Z " fill="#E3A46E" transform="translate(250,306)"/>
<path d="M0 0 C1.1828231 0.03254631 1.1828231 0.03254631 2.38954163 0.06575012 C4.06339257 0.11505355 5.73703641 0.17187143 7.41040039 0.2355957 C9.93159701 0.3304859 12.45251159 0.40071895 14.97460938 0.46679688 C38.42426365 1.16609767 38.42426365 1.16609767 42.78881836 4.47338867 C44.94636337 7.36631632 45.2484227 10.64283373 45.03515625 14.14453125 C42.5731378 18.55564764 38.38009604 21.62960305 34.03515625 24.14453125 C32.03515625 24.14453125 32.03515625 24.14453125 29.59765625 21.76953125 C28.32921875 20.47015625 28.32921875 20.47015625 27.03515625 19.14453125 C26.04515625 18.48453125 25.05515625 17.82453125 24.03515625 17.14453125 C24.53015625 15.65953125 24.53015625 15.65953125 25.03515625 14.14453125 C26.02515625 13.81453125 27.01515625 13.48453125 28.03515625 13.14453125 C28.36515625 12.48453125 28.69515625 11.82453125 29.03515625 11.14453125 C27.88144531 11.05300781 26.72773437 10.96148437 25.5390625 10.8671875 C18.2380707 10.05596619 11.1174451 8.23998762 3.97265625 6.58203125 C2.52028762 6.24888943 1.06781436 5.91620342 -0.38476562 5.58398438 C-3.91268013 4.77608484 -7.43913871 3.96202604 -10.96484375 3.14453125 C-8.23879609 -0.9110042 -4.38657803 -0.18030954 0 0 Z " fill="#E2A16F" transform="translate(639.96484375,341.85546875)"/>
<path d="M0 0 C4.42707523 1.35271743 6.58709501 3.03283639 9 7 C8.65625 10.33984375 8.65625 10.33984375 7.5 13.9375 C7.1390625 15.12214844 6.778125 16.30679687 6.40625 17.52734375 C4.94013595 21.14783095 3.27154185 23.84775442 1 27 C-0.85625 26.690625 -0.85625 26.690625 -2.75 26.375 C-6.20519941 25.93015069 -7.99575337 26.10843731 -11 28 C-11.99 28 -12.98 28 -14 28 C-13.4090431 22.9418096 -11.07796454 18.9647795 -8.6875 14.5625 C-8.29626953 13.82451172 -7.90503906 13.08652344 -7.50195312 12.32617188 C-5.2097603 8.04969272 -2.76244913 3.98879954 0 0 Z " fill="#E69C78" transform="translate(606,391)"/>
<path d="M0 0 C0.33 0 0.66 0 1 0 C1.33045377 5.97460408 0.52492683 10.09420431 -2.125 15.5 C-2.77228197 16.88613551 -3.4153941 18.27422454 -4.0546875 19.6640625 C-4.38049805 20.37208008 -4.70630859 21.08009766 -5.04199219 21.80957031 C-6.91667383 26.09592191 -8.4464512 30.52147266 -9.95751953 34.94726562 C-11.22982722 38.52318689 -11.73997655 39.82665104 -15 42 C-15.48203205 35.77513789 -13.8992613 31.45613667 -11.375 25.8125 C-11.01398193 24.97968506 -10.65296387 24.14687012 -10.28100586 23.28881836 C-7.76113425 17.53602996 -5.06193116 11.90202223 -2.12890625 6.34765625 C-1.10362157 4.21548985 -0.46639835 2.31054814 0 0 Z " fill="#BF8877" transform="translate(557,370)"/>
<path d="M0 0 C2.9375 2.3125 2.9375 2.3125 5 5 C4.62890625 7.16796875 4.62890625 7.16796875 4 9 C3.21496094 8.9278125 2.42992187 8.855625 1.62109375 8.78125 C-3.94093627 8.28988048 -9.41631878 7.87309815 -15 8 C-11.17126357 1.61877262 -7.77002136 -2.59000712 0 0 Z " fill="#D9A56D" transform="translate(624,289)"/>
<path d="M0 0 C0.66 0.33 1.32 0.66 2 1 C0.60596932 2.5641085 -0.79031505 4.1262085 -2.1875 5.6875 C-2.96480469 6.55761719 -3.74210937 7.42773438 -4.54296875 8.32421875 C-6.15670635 10.08162775 -7.81405217 11.80014755 -9.515625 13.47265625 C-12.94244763 16.95874783 -15.83381901 20.80536675 -18.81640625 24.671875 C-20.98791969 26.9871201 -21.87648207 27.8150983 -25 28 C-25.66 27.67 -26.32 27.34 -27 27 C-25.49055027 23.15776433 -23.23156958 21.48004177 -20 19 C-19.21625 18.21625 -18.4325 17.4325 -17.625 16.625 C-15.63050439 14.63050439 -13.64873137 12.81386415 -11.5 11 C-8.51093146 8.47228769 -5.73153256 5.80740846 -3 3 C-2 2 -1 1 0 0 Z " fill="#CC9270" transform="translate(416,336)"/>
<path d="M0 0 C0.33 0 0.66 0 1 0 C1.16906149 4.49991334 1.33481932 8.99994266 1.5 13.5 C1.54769531 14.7684375 1.59539062 16.036875 1.64453125 17.34375 C1.87141554 23.56686207 2.06290201 29.77270099 2 36 C6.62 36 11.24 36 16 36 C14.02 36.495 14.02 36.495 12 37 C12 37.66 12 38.32 12 39 C6.96488101 40.0070238 3.76052962 39.97387813 -1 38 C-1.66 34.37 -2.32 30.74 -3 27 C-2.01 27.33 -1.02 27.66 0 28 C0 18.76 0 9.52 0 0 Z " fill="#A28858" transform="translate(213,131)"/>
<path d="M0 0 C0.33 0 0.66 0 1 0 C1.33474144 2.79150449 1.66785498 5.58318644 2 8.375 C2.09539062 9.1690625 2.19078125 9.963125 2.2890625 10.78125 C3 16.7734375 3 16.7734375 3 19 C3.99 18.67 4.98 18.34 6 18 C8.59069971 18.24632882 11.11836247 18.55128978 13.6875 18.9375 C14.38939453 19.03740234 15.09128906 19.13730469 15.81445312 19.24023438 C17.54386527 19.48729325 19.2720627 19.74282852 21 20 C21 20.33 21 20.66 21 21 C18.69 21 16.38 21 14 21 C14 21.66 14 22.32 14 23 C9.03083364 22.48594831 4.70973649 21.76615118 0 20 C-1.582626 12.69557232 -2.47075377 7.1377331 0 0 Z " fill="#CE7A82" transform="translate(211,544)"/>
<path d="M0 0 C0.33 0 0.66 0 1 0 C1.33 8.91 1.66 17.82 2 27 C15.365 27.495 15.365 27.495 29 28 C29 28.33 29 28.66 29 29 C28.07719238 29.03758423 28.07719238 29.03758423 27.13574219 29.07592773 C24.34029844 29.19218487 21.54516702 29.31477642 18.75 29.4375 C17.78191406 29.47681641 16.81382812 29.51613281 15.81640625 29.55664062 C14.88183594 29.59853516 13.94726562 29.64042969 12.984375 29.68359375 C11.69611816 29.73858032 11.69611816 29.73858032 10.38183594 29.79467773 C8.03042824 29.90775442 8.03042824 29.90775442 6.00097656 30.64477539 C4 31 4 31 -1 29 C-0.67 19.43 -0.34 9.86 0 0 Z " fill="#A6637E" transform="translate(688,582)"/>
<path d="M0 0 C0.33 0 0.66 0 1 0 C1.60465428 11.33887596 2.18966094 22.64141683 2 34 C3.98 34 5.96 34 8 34 C6.8125 35.5625 6.8125 35.5625 5 37 C2.4375 37 2.4375 37 0 36 C-1.375 33.625 -1.375 33.625 -2 31 C-1.505 29.515 -1.505 29.515 -1 28 C-0.84929203 25.86338742 -0.7514034 23.72287876 -0.68359375 21.58203125 C-0.64169922 20.32841797 -0.59980469 19.07480469 -0.55664062 17.78320312 C-0.51732422 16.47287109 -0.47800781 15.16253906 -0.4375 13.8125 C-0.39429008 12.47720022 -0.350675 11.14191348 -0.30664062 9.80664062 C-0.20043498 6.53786703 -0.09839003 3.26901667 0 0 Z " fill="#A86579" transform="translate(556,561)"/>
<path d="M0 0 C0.66 0.33 1.32 0.66 2 1 C0.38113585 2.67262717 -1.2452729 4.33795537 -2.875 6 C-4.23238281 7.3921875 -4.23238281 7.3921875 -5.6171875 8.8125 C-8 11 -8 11 -10 11 C-9.7242265 17.2049038 -8.89359206 21.10160999 -5 26 C-8.34273074 24.96260081 -9.04309664 23.92420935 -10.8125 20.8125 C-12.16269331 16.47766885 -12.11969593 14.37440529 -11 10 C-8.49609375 7.12890625 -8.49609375 7.12890625 -5.4375 4.5625 C-4.91736328 4.11712891 -4.39722656 3.67175781 -3.86132812 3.21289062 C-2.58755791 2.12609585 -1.2955332 1.06075783 0 0 Z " fill="#9D875A" transform="translate(490,125)"/>
<path d="M0 0 C0.33 0 0.66 0 1 0 C1.33 9.57 1.66 19.14 2 29 C3.98 29 5.96 29 8 29 C8 29.33 8 29.66 8 30 C5.03 30.33 2.06 30.66 -1 31 C-1.33 28.36 -1.66 25.72 -2 23 C-1.67 23 -1.34 23 -1 23 C-0.67 15.41 -0.34 7.82 0 0 Z " fill="#96815B" transform="translate(469,128)"/>
<path d="M0 0 C0.66 0.33 1.32 0.66 2 1 C1.38511719 1.67546875 0.77023437 2.3509375 0.13671875 3.046875 C-0.67152344 3.93890625 -1.47976563 4.8309375 -2.3125 5.75 C-3.11300781 6.63171875 -3.91351563 7.5134375 -4.73828125 8.421875 C-6.60916911 10.55449328 -8.34084286 12.70187943 -10 15 C-11.32 14.34 -12.64 13.68 -14 13 C-13.113125 12.278125 -12.22625 11.55625 -11.3125 10.8125 C-8.37088913 8.3634702 -5.67143151 5.74363236 -3 3 C-2 2 -1 1 0 0 Z " fill="#B4856D" transform="translate(416,336)"/>
<path d="M0 0 C-1.36370299 2.99220268 -2.94908083 5.29026529 -5.125 7.75 C-5.93324219 8.67039062 -5.93324219 8.67039062 -6.7578125 9.609375 C-7.37269531 10.29773438 -7.37269531 10.29773438 -8 11 C-8.66 10.34 -9.32 9.68 -10 9 C-10.99 9.99 -11.98 10.98 -13 12 C-13.66 11.67 -14.32 11.34 -15 11 C-13.39801112 9.53927468 -11.79332884 8.08150284 -10.1875 6.625 C-9.29417969 5.81289062 -8.40085937 5.00078125 -7.48046875 4.1640625 C-2.70758123 0 -2.70758123 0 0 0 Z " fill="#A99653" transform="translate(322,63)"/>
<path d="M0 0 C0 3 0 3 -1.4609375 4.7890625 C-2.09257812 5.39492188 -2.72421875 6.00078125 -3.375 6.625 C-4.00148438 7.23601562 -4.62796875 7.84703125 -5.2734375 8.4765625 C-8.47686855 11.30311931 -10.82646362 11.09072905 -15 11 C-12.4650336 8.18911889 -9.58096754 6.36286905 -6.375 4.375 C-3.00896249 2.42174335 -3.00896249 2.42174335 0 0 Z " fill="#BF867E" transform="translate(273,415)"/>
<path d="M0 0 C-1 2 -2 4 -3 6 C-3.66 6 -4.32 6 -5 6 C-5.309375 6.61875 -5.61875 7.2375 -5.9375 7.875 C-6.625 9.25 -7.3125 10.625 -8 12 C-8.66 12 -9.32 12 -10 12 C-10 11.01 -10 10.02 -10 9 C-10.66 8.67 -11.32 8.34 -12 8 C-8.25 5 -8.25 5 -6 5 C-6 4.34 -6 3.68 -6 3 C-2.53846154 0 -2.53846154 0 0 0 Z " fill="#B38E61" transform="translate(363,223)"/>
<path d="M0 0 C0.66 0.33 1.32 0.66 2 1 C1.22914063 1.68964844 0.45828125 2.37929688 -0.3359375 3.08984375 C-6.25169258 8.56703218 -10.31232251 12.61033462 -11 21 C-11.33 21 -11.66 21 -12 21 C-12.47748924 17.10050458 -12.8672831 13.52677962 -10.875 10.01953125 C-7.65847163 6.22503294 -3.90247006 3.06622648 0 0 Z " fill="#C1926B" transform="translate(277,293)"/>
<path d="M0 0 C-1.77945087 4.04420651 -4.39529673 7.46078487 -7 11 C-7.66 10.01 -8.32 9.02 -9 8 C-9.99 8 -10.98 8 -12 8 C-7.25 4 -7.25 4 -5 4 C-5 3.34 -5 2.68 -5 2 C-2 0 -2 0 0 0 Z " fill="#AD9853" transform="translate(551,80)"/>
<path d="M0 0 C1.77706209 2.66559313 2.87548273 5.0280615 4 8 C-2.11485027 8.09706112 -7.93303301 7.77040851 -14 7 C-14 6.67 -14 6.34 -14 6 C-9.05 6 -4.1 6 1 6 C0.67 4.02 0.34 2.04 0 0 Z " fill="#A87F6F" transform="translate(584,331)"/>
<path d="M0 0 C0.33 0 0.66 0 1 0 C1.19632025 3.6245793 1.38055978 7.24967267 1.5625 10.875 C1.61857422 11.90753906 1.67464844 12.94007813 1.73242188 14.00390625 C1.78076172 14.99003906 1.82910156 15.97617187 1.87890625 16.9921875 C1.9260376 17.90339355 1.97316895 18.81459961 2.02172852 19.75341797 C2 22 2 22 1 24 C0.34 24 -0.32 24 -1 24 C-1.33 22.35 -1.66 20.7 -2 19 C-1.67 19 -1.34 19 -1 19 C-0.67 12.73 -0.34 6.46 0 0 Z " fill="#937064" transform="translate(250,306)"/>
<path d="M0 0 C-1.32 0.33 -2.64 0.66 -4 1 C-4 1.66 -4 2.32 -4 3 C-11.42857143 4.28571429 -11.42857143 4.28571429 -15 3 C-15 2.34 -15 1.68 -15 1 C-9.92928099 0.28832014 -5.11791642 -0.10662326 0 0 Z " fill="#BE9D56" transform="translate(229,167)"/>
<path d="M0 0 C0.66 0 1.32 0 2 0 C0.84826645 2.46800047 -0.04783565 4.04783565 -2 6 C-2.46006346 8.20250992 -2.46006346 8.20250992 -2.625 10.625 C-2.69976563 11.44226563 -2.77453125 12.25953125 -2.8515625 13.1015625 C-2.90054688 13.72804688 -2.94953125 14.35453125 -3 15 C-5 12 -5 12 -4.875 8.625 C-3.93436221 4.72807202 -2.81386546 2.81386546 0 0 Z " fill="#B2687D" transform="translate(634,594)"/>
<path d="M0 0 C0.33 0 0.66 0 1 0 C2.30267176 5.50016964 1.71033431 10.47032059 1 16 C-1.6781634 13.3218366 -1.72119442 11.76387529 -2 8 C-1.51050535 5.25091894 -0.78777171 2.68769171 0 0 Z " fill="#C8797F" transform="translate(211,544)"/>
<path d="M0 0 C0.66 0.33 1.32 0.66 2 1 C0.92646259 2.4655595 -0.1592554 3.92220152 -1.25 5.375 C-1.85328125 6.18710937 -2.4565625 6.99921875 -3.078125 7.8359375 C-4.97181904 9.96826778 -6.38328518 10.94636704 -9 12 C-7.55575365 8.76138697 -5.74227753 6.38030837 -3.375 3.75 C-2.74335938 3.04359375 -2.11171875 2.3371875 -1.4609375 1.609375 C-0.97882813 1.07828125 -0.49671875 0.5471875 0 0 Z " fill="#916B73" transform="translate(348,410)"/>
<path d="M0 0 C0.33 0 0.66 0 1 0 C1.28571429 8.57142857 1.28571429 8.57142857 -1 12 C-1.99 12 -2.98 12 -4 12 C-2.87204037 7.89100419 -1.66489182 3.92438786 0 0 Z " fill="#B48272" transform="translate(557,370)"/>
<path d="M0 0 C0.33 0 0.66 0 1 0 C1.25 2.75 1.25 2.75 1 6 C-1 8.375 -1 8.375 -3 10 C-3 7.69 -3 5.38 -3 3 C-2.01 2.67 -1.02 2.34 0 2 C0 1.34 0 0.68 0 0 Z " fill="#CE8E78" transform="translate(545,402)"/>
<path d="M0 0 C1.27241896 4.61251872 0.83288253 8.31503575 0 13 C-1.32 12.34 -2.64 11.68 -4 11 C-2.95902388 7.13351728 -1.96301592 3.50538557 0 0 Z " fill="#B68073" transform="translate(547,393)"/>
<path d="M0 0 C0.66 0.33 1.32 0.66 2 1 C-1.3 4.3 -4.6 7.6 -8 11 C-8.33 10.01 -8.66 9.02 -9 8 C-6.03 5.36 -3.06 2.72 0 0 Z " fill="#C5A758" transform="translate(490,125)"/>
<path d="M0 0 C0.33 0 0.66 0 1 0 C1.33 4.29 1.66 8.58 2 13 C1.01 12.67 0.02 12.34 -1 12 C-1.33 10.02 -1.66 8.04 -2 6 C-1.67 6 -1.34 6 -1 6 C-0.67 4.02 -0.34 2.04 0 0 Z " fill="#A16474" transform="translate(212,552)"/>
<path d="M0 0 C0.7425 0.0825 1.485 0.165 2.25 0.25 C1.5075 0.8275 0.765 1.405 0 2 C-2.74198619 4.15659314 -2.74198619 4.15659314 -4.9375 6.5 C-6.75 8.25 -6.75 8.25 -8.75 8.25 C-6.92599593 3.9939905 -4.88604345 0.44418577 0 0 Z " fill="#C0A459" transform="translate(463.75,124.75)"/>
<path d="M0 0 C-1.28519565 2.86697492 -2.57129254 4.97607712 -5 7 C-5.66 7 -6.32 7 -7 7 C-3.86206897 0 -3.86206897 0 0 0 Z " fill="#C1777A" transform="translate(63,530)"/>
<path d="M0 0 C0.66 0.33 1.32 0.66 2 1 C1.0479279 2.00596297 0.08812654 3.00461563 -0.875 4 C-1.40867187 4.556875 -1.94234375 5.11375 -2.4921875 5.6875 C-4 7 -4 7 -6 7 C-4.60667426 3.63279613 -3.0210714 2.0140476 0 0 Z " fill="#D59D6D" transform="translate(651,313)"/>
<path d="M0 0 C-0.99 1.485 -0.99 1.485 -2 3 C-4.31 2.67 -6.62 2.34 -9 2 C-9 1.34 -9 0.68 -9 0 C-5.93109813 -1.53445094 -3.29905734 -0.54984289 0 0 Z " fill="#BA717F" transform="translate(223,563)"/>
<path d="M0 0 C0.66 0.33 1.32 0.66 2 1 C0.02 3.31 -1.96 5.62 -4 8 C-4.99 7.34 -5.98 6.68 -7 6 C-4.69 4.02 -2.38 2.04 0 0 Z " fill="#8E6B63" transform="translate(416,336)"/>
<path d="M0 0 C0 0.66 0 1.32 0 2 C-0.66 2 -1.32 2 -2 2 C-2.66 3.65 -3.32 5.3 -4 7 C-5.32 6.34 -6.64 5.68 -8 5 C-2.25 0 -2.25 0 0 0 Z " fill="#8D705C" transform="translate(730,250)"/>
<path d="M0 0 C0.33 0.66 0.66 1.32 1 2 C-1.31 3.65 -3.62 5.3 -6 7 C-6 6.01 -6 5.02 -6 4 C-3 1.8125 -3 1.8125 0 0 Z " fill="#B58D6C" transform="translate(618,288)"/>
<path d="M0 0 C0.99 0.495 0.99 0.495 2 1 C1.01 1.495 1.01 1.495 0 2 C0 1.34 0 0.68 0 0 Z " fill="#5D5343" transform="translate(322,61)"/>
<path d="" fill="#5E484E" transform="translate(0,0)"/>
<path d="" fill="#7B5C71" transform="translate(0,0)"/>
<path d="" fill="#8B6777" transform="translate(0,0)"/>
<path d="" fill="#8A6972" transform="translate(0,0)"/>
<path d="" fill="#695365" transform="translate(0,0)"/>
<path d="" fill="#876D5C" transform="translate(0,0)"/>
<path d="" fill="#52473F" transform="translate(0,0)"/>
</svg>
