<?xml version="1.0" encoding="UTF-8"?>
<svg version="1.1" xmlns="http://www.w3.org/2000/svg" width="800" height="800">
<path d="M0 0 C4.06602561 2.16854699 6.08010794 4.95968726 7.48828125 9.36328125 C12.49161809 35.14383367 -3.08590238 62.59648498 -16.8515625 83.35546875 C-22.90994208 92.26531513 -29.4708713 100.29577529 -37 108 C-37.69738281 108.74765625 -38.39476562 109.4953125 -39.11328125 110.265625 C-42.58457041 113.91082645 -45.72874298 116.41807544 -50.125 118.875 C-58.18768073 124.36158612 -59.69485616 134.59585587 -61.53466797 143.62353516 C-63.24213386 152.79376078 -64.19917744 161.66570896 -64 171 C-63.6596875 170.1028125 -63.319375 169.205625 -62.96875 168.28125 C-54.6872239 146.81558089 -44.23583613 123.15992197 -22.375 112.75 C-13.58743889 109.9749807 -5.35360072 110.19585097 3 114 C9.20783447 117.82020583 12.0834783 123.01033264 14 130 C16.13943971 142.86249251 12.62487842 153.84252256 7.90258789 165.69140625 C4.70456684 173.54875077 4.70456684 173.54875077 3.6875 181.875 C3.69136719 182.59429687 3.69523437 183.31359375 3.69921875 184.0546875 C3.90984176 186.32089648 3.90984176 186.32089648 6 189 C10.13313727 190.75345217 13.57965086 189.61393627 17.609375 188.1328125 C21.95129667 186.07536596 25.42616716 183.1767403 29 180 C30.11375 179.01 30.11375 179.01 31.25 178 C41.40403935 168.41007395 47.13024171 158.68373291 51.41113281 145.59228516 C56.34419324 130.60337078 64.55887751 110.97202237 79 103 C82.63782632 101.78739123 85.17735999 101.60455448 89 102 C92 104 92 104 94 107 C93.79188371 113.19145963 92.18199482 117.27153534 89 122.5 C88.18080378 123.90223522 87.36179888 125.30458222 86.54296875 126.70703125 C86.12192871 127.41682129 85.70088867 128.12661133 85.26708984 128.85791016 C71.71161384 150.6271633 71.71161384 150.6271633 66.75 175.1875 C66.74226563 175.88552734 66.73453125 176.58355469 66.7265625 177.30273438 C66.74061244 180.99435612 66.81123035 183.94171912 69 187 C74.22865648 189.74504465 79.39469667 189.16995428 85 188 C95.94534947 184.57183394 105.50979545 174.02889133 110.93408203 164.29199219 C113.67983197 158.38793804 115.2586732 151.99391613 117.046875 145.75073242 C120.60531371 133.45657478 125.68927556 118.28919687 136.3125 110.25 C141.89493508 109.73070371 146.70675842 113.04986333 151.0625 116.25 C151.701875 116.8275 152.34125 117.405 153 118 C152.39871207 122.57501688 150.46291128 126.18219164 148.3125 130.1875 C145.19980984 136.18496809 142.67831461 142.20736012 140.5625 148.625 C140.19282104 149.74297974 140.19282104 149.74297974 139.81567383 150.88354492 C137.87038554 156.98910848 136.85326749 162.75438948 136.8125 169.1875 C136.79832031 170.21230469 136.78414062 171.23710937 136.76953125 172.29296875 C136.79980612 175.22200339 136.79980612 175.22200339 139 178 C143.13318105 179.75347075 146.58309008 178.61819176 150.609375 177.125 C159.45805904 172.96091339 165.19005475 165.61559551 171 158 C171.65355469 157.23042969 172.30710937 156.46085938 172.98046875 155.66796875 C177.64700364 149.82733766 179.06911931 144.36671422 180.51293945 137.20239258 C181.8767345 130.73830826 184.08831379 124.62472451 189.8046875 120.7890625 C192.66339981 119.7615538 195.09350843 119.7715339 198.125 119.8125 C199.17945313 119.81894531 200.23390625 119.82539063 201.3203125 119.83203125 C204 120 204 120 206 121 C205.47837452 128.73888759 204.01598551 136.04927198 202.125 143.5625 C201.82907959 144.7489209 201.53315918 145.9353418 201.22827148 147.15771484 C198.22598201 158.7922448 194.46464423 170.15204365 190.55712891 181.51000977 C190.32159805 182.19578598 190.0860672 182.88156219 189.84339905 183.58811951 C189.19947726 185.45623617 188.54928193 187.32218701 187.89868164 189.18798828 C186.89852713 191.82549205 186.89852713 191.82549205 187 194 C194.67394308 190.20454129 201.12252683 186.53697284 207.29296875 180.50390625 C209 179 209 179 211 179 C211.27585937 178.39800781 211.55171875 177.79601562 211.8359375 177.17578125 C213 175 213 175 215.625 172.1875 C221.01929643 166.10060255 225.43871035 157.68386895 228 150 C230.53540696 150.33805426 231.67792917 150.58633105 233.27734375 152.640625 C234.78213158 157.55355391 231.23497938 162.76140326 229.01220703 167.15722656 C223.04734602 178.01655384 214.34683889 186.74969659 204.4375 194 C203.54091675 194.65899292 203.54091675 194.65899292 202.6262207 195.33129883 C198.98071024 197.90525161 195.60177563 199.54631607 191.37792969 201.07226562 C179.04044195 205.93540432 175.32428476 219.40076111 170.37452698 230.72158813 C163.22246133 246.97133991 152.09460715 263.37806385 135.60546875 271.125 C129.50432655 273.1739593 122.3633613 273.02966743 116.5 270.3125 C112.18371002 267.78195161 109.59036201 264.77108602 108 260 C106.9825752 249.63680165 108.45746258 242.54721961 115.06640625 234.4765625 C126.49545834 222.2378741 143.57143502 212.84493409 159.09448242 206.79370117 C162.96158529 204.40637198 163.42095102 202.43899511 164.73828125 198.13671875 C164.94938034 197.46711624 165.16047943 196.79751373 165.37797546 196.10762024 C166.04450209 193.97358952 166.67825043 191.83131657 167.3125 189.6875 C167.75644591 188.25783545 168.20239044 186.82878991 168.65039062 185.40039062 C170.43425742 179.63642987 172.12935756 173.98545152 173 168 C172.33355469 168.83402344 171.66710937 169.66804687 170.98046875 170.52734375 C153.60940809 191.89193457 153.60940809 191.89193457 139.74609375 193.33984375 C131.80780759 193.69094379 125.43743216 192.89831176 119 188 C116.92284842 185.75589061 115.57798605 183.66285145 114 181 C113.34 180.01 112.68 179.02 112 178 C111.43152344 178.64066406 110.86304688 179.28132812 110.27734375 179.94140625 C108.66506013 181.7474869 107.04337653 183.54520537 105.4140625 185.3359375 C104.03127833 186.86192262 102.66221545 188.40121827 101.3359375 189.9765625 C93.78802044 198.45345397 81.88185488 203.16003474 70.76953125 204.2109375 C63.947899 204.51620848 58.11087657 202.83824525 52.25 199.375 C46.66090455 193.47539925 44.37612633 186.8814508 43 179 C42.29617188 179.845625 41.59234375 180.69125 40.8671875 181.5625 C31.7960016 192.11209156 21.24097454 200.95841752 6.75390625 202.30078125 C-6.94057738 202.35106699 -6.94057738 202.35106699 -12.74609375 197.55859375 C-16.89340083 193.27204854 -18.89278122 188.97126136 -19 183 C-18.0779504 174.55505977 -16.18189389 166.45676072 -13.8125 158.3125 C-11.88113672 151.33274699 -10.69182505 144.20458117 -12 137 C-13.85316809 134.5332001 -15.07126017 133.27347215 -18.04296875 132.3984375 C-23.4515385 132.33932745 -27.3800332 133.42569422 -31.74609375 136.66796875 C-36.79034709 141.88706623 -39.82310755 148.54156115 -43 155 C-43.51626953 156.04438232 -43.51626953 156.04438232 -44.04296875 157.10986328 C-47.21024015 163.57637573 -50.18906259 170.12248712 -53.06640625 176.72265625 C-63.21037016 199.98860655 -63.21037016 199.98860655 -70 205 C-72.73928747 205.93918428 -75.11425957 206.28096459 -78 206 C-82.48728326 203.70649967 -83.86327368 200.65565895 -85.421875 196.09765625 C-86.74311363 191.30370256 -87.2379197 186.64894171 -87.5625 181.6875 C-87.64628906 180.43324219 -87.73007812 179.17898438 -87.81640625 177.88671875 C-87.87699219 176.93410156 -87.93757812 175.98148438 -88 175 C-88.56847656 175.78503906 -89.13695312 176.57007813 -89.72265625 177.37890625 C-97.20688482 187.56195514 -104.59307312 197.2708533 -117.47265625 200.6484375 C-124.93925015 201.68706725 -133.44312641 202.27744543 -140 198 C-144.0373008 194.22975801 -147.65352571 190.61798306 -148.20092773 184.90185547 C-148.32682724 178.1849465 -147.02408339 172.51641774 -145.0625 166.125 C-140.42840242 152.00955592 -140.42840242 152.00955592 -143 138 C-148.71782873 135.31612121 -153.25412714 135.99427372 -159 138 C-181.90015 147.29689745 -198.27529902 179.53319741 -210 200 C-216.77271708 199.82754656 -221.72825613 198.37415678 -227 194 C-227.66 193.01 -228.32 192.02 -229 191 C-228.125 187.3125 -228.125 187.3125 -227 184 C-227.63164062 184.6290625 -228.26328125 185.258125 -228.9140625 185.90625 C-243.00921068 199.39209783 -259.93681327 207.6978711 -279.73828125 208.0703125 C-290.33325191 207.70235642 -299.59306748 205.58477757 -307.5 198.1875 C-315.7273 189.13918046 -316.56021914 179.75424362 -316.12304688 168.00390625 C-314.94494583 148.81768925 -301.65600214 131.40313644 -289 118 C-288.41347656 117.360625 -287.82695312 116.72125 -287.22265625 116.0625 C-276.4146676 104.66960843 -261.35589175 96.37094361 -245.5 95.6875 C-239.85814235 95.86473113 -234.45973315 96.81872721 -230.13671875 100.65234375 C-225.08163599 106.35891688 -224.64743119 111.05561925 -224.72265625 118.578125 C-225.60144498 129.42064513 -232.26707572 137.81942745 -240 145 C-240.55042969 145.53238281 -241.10085938 146.06476563 -241.66796875 146.61328125 C-254.84915463 158.87042523 -275.78755739 168.28556095 -294 168 C-293.7697175 170.52401744 -293.51645793 173.04225203 -293.25 175.5625 C-293.188125 176.26697266 -293.12625 176.97144531 -293.0625 177.69726562 C-292.47184358 183.03778406 -291.24074849 186.6593286 -288 191 C-280.26625586 195.52368527 -270.49052137 195.22550099 -261.90234375 193.30859375 C-259.16057995 192.3657426 -256.60827102 191.26437528 -254 190 C-253.13375 189.61070312 -252.2675 189.22140625 -251.375 188.8203125 C-236.28522273 181.40702076 -221.84337398 167.45942917 -215 152 C-214.08792781 149.28950623 -214.08792781 149.28950623 -213.4375 146.5 C-213.18355469 145.46746094 -212.92960937 144.43492187 -212.66796875 143.37109375 C-211.95457018 139.77072552 -211.60634916 136.21412093 -211.25 132.5625 C-210.47968909 126.59752835 -210.47968909 126.59752835 -208.42578125 124.0390625 C-202.98222431 120.0904866 -197.50513662 119.25948532 -191 120 C-187.9375 121.25 -187.9375 121.25 -186 124 C-184.82997133 132.01594111 -186.43856169 140.13704281 -188 148 C-187.29875 147.2265625 -186.5975 146.453125 -185.875 145.65625 C-159.47609889 116.62726903 -159.47609889 116.62726903 -140.78515625 114.78125 C-134.42627145 114.52037268 -128.91430857 115.40690781 -124.05078125 119.734375 C-118.1152415 126.15521045 -115.43919894 132.48284284 -115.5625 141.1875 C-115.56862305 141.9314502 -115.57474609 142.67540039 -115.58105469 143.44189453 C-115.76919009 150.15543389 -117.43990143 155.80369363 -120 162 C-120.73676169 163.99721462 -121.4661617 165.99716324 -122.1875 168 C-122.67283203 169.299375 -122.67283203 169.299375 -123.16796875 170.625 C-124.64143225 174.83094276 -125.11582693 178.27053783 -125.0625 182.75 C-125.05347656 183.73484375 -125.04445313 184.7196875 -125.03515625 185.734375 C-125.02355469 186.48203125 -125.01195312 187.2296875 -125 188 C-116.3471416 188.79790702 -111.89316925 187.02702205 -105.30078125 181.6015625 C-94.43569338 171.62290371 -86.41946771 158.36340136 -83.4375 144.0625 C-73.40227441 99.71796417 -53.04983135 47.43982729 -23 13 C-21.99839844 11.78376953 -21.99839844 11.78376953 -20.9765625 10.54296875 C-14.94554995 3.3912508 -9.80175822 -1.264743 0 0 Z M-6 26 C-21.94729038 42.37101065 -32.67845376 63.09725371 -42.0625 83.75 C-42.42029541 84.53463623 -42.77809082 85.31927246 -43.14672852 86.12768555 C-45.57652313 91.62823481 -47.38984564 97.20921385 -49 103 C-28.1903565 87.27715825 -9.31473402 53.5321417 -5 28 C-5.495 27.01 -5.495 27.01 -6 26 Z M-274.44042969 127.69482422 C-280.42284497 135.18247856 -290 147.18513478 -290 157 C-283.97039682 156.5238022 -279.52517792 155.23543383 -274.1875 152.4375 C-273.49462891 152.08107422 -272.80175781 151.72464844 -272.08789062 151.35742188 C-258.87442666 144.38943207 -245.93295309 134.86244186 -240.6875 120.375 C-239.87787542 116.40047933 -239.1366701 112.7266598 -241 109 C-255.45786886 107.83404283 -265.55536435 117.24056599 -274.44042969 127.69482422 Z M155 219 C141.27307509 226.28069422 127.17863054 234.48527946 119.625 248.5625 C118.79133865 251.81377928 118.75252728 254.65911822 119 258 C119.66 258.99 120.32 259.98 121 261 C124.62143265 261.57613701 126.59113189 261.20443405 129.875 259.5625 C141.97330954 250.48876785 150.31683567 234.81297906 156 221 C155.505 220.01 155.505 220.01 155 219 Z " fill="#130F21" transform="translate(526,264)"/>
<path d="M0 0 C7.8505936 6.36534616 6.83094874 22.11822447 7.9453125 31.5546875 C8.12160571 33.02916945 8.29811322 34.50362578 8.474823 35.97805786 C8.84166912 39.04533928 9.2061448 42.11289003 9.56884766 45.18066406 C10.03299106 49.105018 10.50284542 53.02866335 10.97441292 56.95213127 C11.33860509 59.98707595 11.69994966 63.02235441 12.06042099 66.05774307 C12.23261575 67.50507733 12.40565257 68.95231167 12.57956314 70.39944077 C12.82169886 72.41813277 13.05962085 74.43732885 13.29736328 76.45654297 C13.43345001 77.60250946 13.56953674 78.74847595 13.70974731 79.9291687 C13.96649308 82.64550168 14.05724065 85.27444617 14 88 C15.16861572 88.10376953 16.33723145 88.20753906 17.54125977 88.31445312 C32.06946653 89.63554325 46.5518851 91.28802977 61.03491211 93.03173828 C63.66317269 93.34709667 66.29156961 93.65998427 68.9206543 93.96826172 C72.76949136 94.42050778 76.61724891 94.88106824 80.46484375 95.34375 C82.22259377 95.54852966 82.22259377 95.54852966 84.01585388 95.75744629 C97.28912745 97.37917337 97.28912745 97.37917337 101.375 101.25 C103.3619376 104.61250978 103.70594446 106.1565246 103 110 C98.7705728 116.31216889 92.68160827 119.82240595 86.375 123.875 C84.29793233 125.22418413 82.2224033 126.57574002 80.1484375 127.9296875 C79.23239746 128.51991699 78.31635742 129.11014648 77.37255859 129.71826172 C74.48346794 131.62979491 71.70044321 133.67254124 68.90869141 135.72314453 C62.82998245 140.16720475 56.59222578 144.34684394 50.3125 148.5 C49.21744141 149.22703125 48.12238281 149.9540625 46.99414062 150.703125 C44.33084372 152.47090286 41.66612325 154.23648894 39 156 C39.11053207 156.78989822 39.22106415 157.57979645 39.33494568 158.39363098 C40.38210155 165.88036014 41.42671271 173.36743806 42.46855068 180.85490894 C43.00410572 184.70318973 43.54060346 188.55133393 44.0793457 192.39916992 C44.60035773 196.12063551 45.11877579 199.84245448 45.6354847 203.56451988 C45.83190856 204.97621925 46.02922742 206.38779442 46.22750664 207.79923439 C49.94695059 234.29144501 49.94695059 234.29144501 46 241 C42.2148572 245.18647811 38.57010162 248.55611525 32.80078125 249.2734375 C21.56581558 249.73200753 15.3623893 242.79231013 7.2890625 235.82421875 C4.42187193 233.35058046 1.50562827 230.94565254 -1.4375 228.5625 C-5.68394069 225.10724476 -9.8526085 221.57262781 -14 218 C-18.34896325 214.25966575 -22.70959964 210.5368387 -27.125 206.875 C-28.39730469 205.81925781 -28.39730469 205.81925781 -29.6953125 204.7421875 C-30.45585937 204.16726563 -31.21640625 203.59234375 -32 203 C-32.55880859 202.57533447 -33.11761719 202.15066895 -33.69335938 201.71313477 C-37.30947648 200.59515444 -39.96064672 202.30348789 -43.2109375 203.84765625 C-43.92348694 204.17080307 -44.63603638 204.49394989 -45.37017822 204.82688904 C-46.90854718 205.52667521 -48.44369002 206.23358765 -49.97589111 206.94677734 C-52.38784079 208.0684717 -54.80814483 209.16977112 -57.23193359 210.265625 C-61.36243448 212.13527834 -65.48666549 214.01828486 -69.60913086 215.90557861 C-75.30172772 218.5113673 -80.99795423 221.10691372 -86.72003174 223.64743042 C-88.57988643 224.4798094 -90.42903504 225.33325269 -92.27880859 226.18774414 C-99.62784722 229.45115026 -106.34535963 231.83424818 -114.28125 229.26000977 C-120.31030471 226.74117478 -124.09798188 222.19884866 -127.375 216.6875 C-129.48368827 207.62014043 -127.18444948 200.76597273 -123.35574341 192.47772217 C-122.47947672 190.5805662 -121.62704146 188.6741091 -120.77905273 186.76416016 C-118.15478583 180.87530576 -115.46538598 175.0162591 -112.78173828 169.15429688 C-110.89757283 165.03818459 -109.02705516 160.91605033 -107.16210938 156.79119873 C-106.0730895 154.39826857 -104.96491654 152.01486096 -103.85546875 149.63134766 C-103.18537458 148.15825185 -102.51606421 146.68479918 -101.84765625 145.2109375 C-101.52857803 144.5393158 -101.20949982 143.86769409 -100.88075256 143.17572021 C-99.22301696 139.56173868 -99.22301696 139.56173868 -99.66992188 135.73657227 C-101.82619673 132.92130371 -104.09823893 130.22517816 -106.4375 127.5625 C-107.52640975 126.30761097 -108.6149431 125.05239524 -109.703125 123.796875 C-110.25419922 123.16330078 -110.80527344 122.52972656 -111.37304688 121.87695312 C-113.83223122 119.03988691 -116.26296708 116.17919172 -118.6875 113.3125 C-119.14181396 112.77568604 -119.59612793 112.23887207 -120.06420898 111.68579102 C-123.64709435 107.44125107 -127.164945 103.1459252 -130.6640625 98.83203125 C-132.38685849 96.74335719 -134.12678894 94.68311806 -135.8984375 92.63671875 C-136.39279297 92.06308594 -136.88714844 91.48945312 -137.39648438 90.8984375 C-138.35347168 89.79101229 -139.31541054 88.68783866 -140.28320312 87.58984375 C-145.33660143 81.72997339 -147.56467785 77.06819216 -147.27734375 69.390625 C-146.56154323 63.22062612 -143.26155682 59.9948534 -138.71875 56.19921875 C-130.76019897 50.64632065 -116.55648982 54.37752396 -107.67947006 55.69732857 C-105.56163195 56.01216511 -103.44240319 56.31555664 -101.32254028 56.61643982 C-96.83854074 57.25502617 -92.35675186 57.90835775 -87.875 58.5625 C-82.64115904 59.32436798 -77.40651042 60.08009485 -72.17026138 60.82523918 C-70.08483222 61.12457931 -68.00080299 61.43256736 -65.91671753 61.74110413 C-64.65755524 61.92136642 -63.39839294 62.10162872 -62.10107422 62.28735352 C-60.9922287 62.44945816 -59.88338318 62.61156281 -58.74093628 62.77857971 C-55.90945693 63.18736861 -55.90945693 63.18736861 -53 62 C-51.46499082 59.99606424 -50.08298028 58.01795922 -48.71875 55.90234375 C-48.30856125 55.28071854 -47.8983725 54.65909332 -47.47575378 54.01863098 C-46.14323359 51.99626202 -44.82178886 49.96689514 -43.5 47.9375 C-42.58925792 46.55242792 -41.67755424 45.16798766 -40.76489258 43.78417969 C-39.41147972 41.73207715 -38.05849986 39.67971386 -36.70845032 37.62539673 C-31.91837134 30.33809865 -26.98163738 23.15721877 -22 16 C-20.99259766 14.53433594 -20.99259766 14.53433594 -19.96484375 13.0390625 C-9.37040611 -2.30150326 -9.37040611 -2.30150326 0 0 Z M-7 15 C-7.41660889 15.73299316 -7.83321777 16.46598633 -8.26245117 17.22119141 C-17.36902151 33.23167336 -26.5640078 49.18055428 -36 65 C-36.46615723 65.78375 -36.93231445 66.5675 -37.41259766 67.375 C-38.68970622 69.52204974 -39.96914954 71.66768089 -41.25 73.8125 C-41.62116943 74.43552002 -41.99233887 75.05854004 -42.37475586 75.70043945 C-44.88261423 79.88261423 -44.88261423 79.88261423 -46 81 C-48.30513888 80.97501471 -50.5650022 80.87503924 -52.86328125 80.72265625 C-53.97718987 80.65269188 -53.97718987 80.65269188 -55.11360168 80.58131409 C-66.82585996 79.79694973 -78.5059677 78.57888586 -90.1875 77.4375 C-94.93067796 76.97457294 -99.67420867 76.515512 -104.41796875 76.05859375 C-105.49298141 75.95236191 -106.56799408 75.84613007 -107.67558289 75.73667908 C-112.46857662 75.27501919 -117.17759406 74.8598228 -122 75 C-119.53926947 79.60087294 -116.32026006 83.07193793 -112.75 86.8125 C-111.57208626 88.06302042 -110.39499529 89.31431635 -109.21875 90.56640625 C-108.65800781 91.16211426 -108.09726563 91.75782227 -107.51953125 92.37158203 C-105.17309368 94.88616085 -102.91894656 97.47508171 -100.671875 100.078125 C-98.64241927 102.41105074 -96.572353 104.70511245 -94.5 107 C-91.24076963 110.6115796 -88.01293381 114.24556502 -84.8359375 117.9296875 C-83.45674287 119.48494953 -82.03830476 121.00555105 -80.6015625 122.5078125 C-79.78429687 123.37148438 -78.96703125 124.23515625 -78.125 125.125 C-77.36445313 125.91132812 -76.60390625 126.69765625 -75.8203125 127.5078125 C-73.56575438 130.59452512 -73.18921715 132.17034376 -73 136 C-73.85649677 139.12556906 -75.15872897 142.01448656 -76.48828125 144.96484375 C-77.04990715 146.2588485 -77.04990715 146.2588485 -77.62287903 147.57899475 C-78.83877786 150.37151539 -80.07544691 153.15429484 -81.3125 155.9375 C-82.14646273 157.84377032 -82.97898098 159.75067322 -83.81005859 161.65820312 C-85.83090281 166.28851149 -87.8672707 170.91176317 -89.91009521 175.53240967 C-91.90062652 180.03905636 -93.87460089 184.55289334 -95.84448242 189.06860352 C-96.67668888 190.97371371 -97.51382279 192.87668171 -98.35668945 194.77709961 C-98.71593506 195.59315674 -99.07518066 196.40921387 -99.4453125 197.25 C-99.74969238 197.93578125 -100.05407227 198.6215625 -100.36767578 199.328125 C-101.11791882 201.01386981 -101.11791882 201.01386981 -101 203 C-94.92228378 201.07909068 -89.0826849 198.85262662 -83.2578125 196.26953125 C-82.44996307 195.91541672 -81.64211365 195.56130219 -80.80978394 195.19645691 C-78.24653797 194.07218591 -75.68565001 192.94266942 -73.125 191.8125 C-67.26982811 189.23556725 -61.40998718 186.66976339 -55.54455566 184.11627197 C-52.9289467 182.9688296 -50.32345635 181.80015538 -47.71777344 180.63037109 C-46.01784469 179.88188127 -44.31765854 179.13397572 -42.6171875 178.38671875 C-41.83908722 178.03084183 -41.06098694 177.6749649 -40.25930786 177.30830383 C-35.78478185 175.36579471 -32.86087892 174.49410413 -28 176 C-26.1640625 177.3828125 -26.1640625 177.3828125 -24.625 179.125 C-22.24105104 181.6915271 -19.84279511 184.08834747 -17.1875 186.375 C-14.09040869 189.04676542 -11.035007 191.75780378 -8 194.5 C-5.01937279 197.18983431 -2.02754767 199.86310364 1 202.5 C4.02754767 205.13689636 7.01937279 207.81016569 10 210.5 C10.83789062 211.25410156 11.67578125 212.00820313 12.5390625 212.78515625 C14.119261 214.2073349 15.69755464 215.63163453 17.2734375 217.05859375 C17.96695313 217.67863281 18.66046875 218.29867187 19.375 218.9375 C19.98085937 219.48277344 20.58671875 220.02804687 21.2109375 220.58984375 C23.05542398 222.04368571 24.89160899 222.98178945 27 224 C25.27161349 198.2805768 22.56811205 172.64601394 20 147 C20.71502686 146.73155273 21.43005371 146.46310547 22.16674805 146.18652344 C25.04284845 144.98205571 27.63668369 143.58145042 30.33203125 142.015625 C31.36634277 141.41685547 32.4006543 140.81808594 33.46630859 140.20117188 C35.12267334 139.2353418 35.12267334 139.2353418 36.8125 138.25 C37.96940855 137.57850849 39.1264747 136.90728844 40.28369141 136.23632812 C43.27011879 134.50348956 46.25403914 132.76638671 49.23699951 131.02758789 C50.94819646 130.03019437 52.6598817 129.03363875 54.37158203 128.03710938 C60.31034515 124.57943347 66.24587291 121.11626867 72.17871094 117.6484375 C77.11748369 114.76278557 82.05882765 111.88154051 87 109 C86.67 108.34 86.34 107.68 86 107 C83.86742444 106.34785492 81.69976404 105.80992749 79.52416992 105.32006836 C78.84769913 105.16532547 78.17122833 105.01058258 77.47425842 104.85115051 C75.2280541 104.339409 72.97935742 103.83964461 70.73046875 103.33984375 C69.17189426 102.98711955 67.61349058 102.63363978 66.05525208 102.2794342 C61.94352742 101.3468741 57.82961042 100.42436632 53.71514893 99.50396729 C49.53730685 98.5676779 45.36148557 97.62247015 41.18554688 96.67773438 C36.4910569 95.61608924 31.79636849 94.55539675 27.10014343 93.50144958 C26.38394836 93.34063904 25.6677533 93.17982849 24.92985535 93.0141449 C22.99724635 92.58043665 21.06450776 92.147306 19.13175964 91.71421814 C16.74589356 91.17010587 14.37011484 90.60813081 12 90 C10.70699304 84.46295688 9.41551844 78.92555895 8.12524414 73.38787842 C7.66794149 71.42607927 7.21026117 69.46436812 6.75219727 67.50274658 C4.40230045 57.43810598 2.06252853 47.37268157 -0.15234375 37.27734375 C-0.31295792 36.54899826 -0.47357208 35.82065277 -0.63905334 35.07023621 C-1.38358189 31.69270554 -2.1199865 28.31380301 -2.84204102 24.93139648 C-3.22960571 23.16711304 -3.22960571 23.16711304 -3.625 21.3671875 C-3.84414062 20.34737793 -4.06328125 19.32756836 -4.2890625 18.27685547 C-4.52367187 17.52549316 -4.75828125 16.77413086 -5 16 C-5.99 15.505 -5.99 15.505 -7 15 Z " fill="#48147E" transform="translate(216,482)"/>
<path d="M0 0 C9.23636213 -0.33827441 18.71831614 1.21148379 25.953125 7.30078125 C31.5277805 13.22385272 34.80936351 20.10233785 35.703125 28.16015625 C35.785625 28.89363281 35.868125 29.62710937 35.953125 30.3828125 C36.63461527 43.13945843 32.07433038 57.53129427 23.90234375 67.31640625 C19.61575513 71.79575367 16.13930447 74.43070317 9.765625 74.59765625 C5.92357525 74.51843873 4.92761836 74.32384933 1.703125 71.97265625 C-0.1354471 69.38716423 -1.34900853 67.17609503 -2.296875 64.16015625 C-1.306875 63.43828125 -0.316875 62.71640625 0.703125 61.97265625 C6.0871435 57.37494472 9.26779167 51.25993111 12.703125 45.16015625 C13.14011719 44.38800781 13.57710938 43.61585938 14.02734375 42.8203125 C17.47285498 36.35197357 19.52299022 29.53894325 18.703125 22.16015625 C16.58317851 18.1474004 14.93141257 15.80199132 10.703125 14.16015625 C-3.98665017 12.25756489 -15.08801597 18.5322845 -26.296875 27.16015625 C-27.0496875 27.73894531 -27.8025 28.31773437 -28.578125 28.9140625 C-34.3020846 33.62724352 -38.78396298 39.3108965 -43.296875 45.16015625 C-43.7290332 45.71203613 -44.16119141 46.26391602 -44.60644531 46.83251953 C-52.29703869 56.6994344 -58.57883639 67.04291146 -64.296875 78.16015625 C-64.69148926 78.92344238 -65.08610352 79.68672852 -65.49267578 80.47314453 C-80.08985189 109.04698122 -92.32082481 146.57992604 -82.5546875 178.5703125 C-78.71270506 189.53547357 -73.71985058 199.24627858 -62.921875 204.59765625 C-53.62008093 208.18754247 -44.50382321 207.80123354 -35.38671875 203.921875 C-17.79871224 194.77611161 -7.88693293 175.45591069 -1.94189453 157.27490234 C0.77089194 148.38082345 2.66221247 139.39439015 3.703125 130.16015625 C-6.17314338 129.03675657 -16.05749771 128.83738862 -25.984375 128.59765625 C-27.6686282 128.55436217 -29.35287311 128.51074484 -31.03710938 128.46679688 C-35.12361211 128.36085897 -39.2102017 128.259287 -43.296875 128.16015625 C-40.86138347 120.18424026 -38.4849801 114.86497413 -31.296875 110.22265625 C-14.52954003 104.42699047 6.09422078 114.0671899 21.82666016 119.51318359 C24.44533351 120.41605692 27.07369877 121.28918461 29.703125 122.16015625 C28.06147336 128.42367588 26.27787656 134.6349507 24.36328125 140.8203125 C24.15351654 141.50032318 23.94375183 142.18033386 23.72763062 142.88095093 C22.86009977 145.69107381 21.99173723 148.50087221 21.11254883 151.30737305 C15.48823044 169.29208749 12.10550666 185.88274281 11.953125 204.78515625 C11.92486569 206.5820586 11.89492505 208.37893532 11.86328125 210.17578125 C11.79061925 214.50385802 11.74033475 218.83163557 11.703125 223.16015625 C10.270659 222.87449379 8.84000258 222.57974848 7.41015625 222.28125 C6.61327393 222.11810303 5.8163916 221.95495605 4.99536133 221.78686523 C1.35527631 220.79164761 -1.09526979 219.15380236 -3.296875 216.16015625 C-6.28727921 210.04516302 -7.78691087 203.91718097 -8.296875 197.16015625 C-8.67457031 197.64484375 -9.05226563 198.12953125 -9.44140625 198.62890625 C-16.68160437 207.44600934 -25.83022087 213.71056415 -36.296875 218.16015625 C-37.00457031 218.47984375 -37.71226562 218.79953125 -38.44140625 219.12890625 C-49.84329289 223.44205426 -65.12156847 222.60762402 -76.40625 218.484375 C-92.33167387 211.1888092 -102.3964858 199.35900652 -108.609375 183.16015625 C-108.85187988 182.53238281 -109.09438477 181.90460938 -109.34423828 181.2578125 C-112.64245938 172.13933835 -113.66806272 162.87175523 -113.609375 153.22265625 C-113.60373535 152.22903076 -113.5980957 151.23540527 -113.59228516 150.21166992 C-112.85919703 104.61866918 -90.17518566 60.88511365 -58.296875 29.16015625 C-57.81508789 28.67579102 -57.33330078 28.19142578 -56.83691406 27.69238281 C-41.64892605 12.59062894 -21.56486147 1.50367231 0 0 Z " fill="#120E21" transform="translate(176.296875,261.83984375)"/>
<path d="M0 0 C3.3125 2.0625 3.3125 2.0625 6 5 C7.22584329 10.83410604 7.32032445 16.80600755 7.5625 22.75 C7.6049585 23.74974854 7.64741699 24.74949707 7.69116211 25.77954102 C8.06139838 35.18890589 8.09887221 44.58516864 8 54 C9.17691406 53.98839844 10.35382813 53.97679687 11.56640625 53.96484375 C21.15601372 53.89986951 30.72911026 54.01030932 40.3125 54.375 C41.7512146 54.4212854 41.7512146 54.4212854 43.21899414 54.46850586 C49.42397233 54.73162801 55.19021363 55.05476328 60.4375 58.6875 C62.67164241 61.99403076 62.54890266 64.08906856 62 68 C59.25920096 71.99887073 56.04395815 74.72416733 52.1875 77.625 C51.63360596 78.04885986 51.07971191 78.47271973 50.5090332 78.90942383 C47.33777693 81.31922648 44.11371796 83.61918186 40.8125 85.84765625 C40.12518799 86.32187012 39.43787598 86.79608398 38.72973633 87.28466797 C37.39174281 88.20374875 36.04017992 89.10344927 34.67456055 89.98095703 C32.55440811 91.37378016 32.55440811 91.37378016 30 94 C29.64440941 98.72194529 30.22722921 103.07371818 31.09375 107.7109375 C31.31933594 108.95617187 31.54492188 110.20140625 31.77734375 111.484375 C32.25771193 114.07057343 32.73947469 116.65651322 33.22265625 119.2421875 C36.55731651 137.68762253 36.55731651 137.68762253 32.33984375 145.20703125 C29.1903593 149.42164747 25.1388631 151.98841278 20 153 C12.2587024 153.74435554 6.96659909 150.70246829 1.03515625 146.01171875 C-0.29472939 144.91045353 -1.61884891 143.80219286 -2.9375 142.6875 C-4.33974088 141.53242719 -5.74208391 140.37747837 -7.14453125 139.22265625 C-9.39045377 137.35459318 -11.61398791 135.4692359 -13.82421875 133.55859375 C-14.96310547 132.60146484 -14.96310547 132.60146484 -16.125 131.625 C-16.74632812 131.08101562 -17.36765625 130.53703125 -18.0078125 129.9765625 C-20.95267238 128.53300373 -22.83129073 129.28136981 -26 130 C-28.21060596 130.91173231 -30.390924 131.89893902 -32.54296875 132.94140625 C-33.79454453 133.5314001 -35.04651063 134.12056652 -36.29882812 134.70898438 C-38.2403814 135.6305196 -40.17826569 136.55799251 -42.10961914 137.50073242 C-50.6769502 141.66326039 -58.71285216 145.2197446 -68.34033203 142.28710938 C-73.80788066 140.1049632 -77.05270453 135.96654981 -80 131 C-83.84459517 119.46621448 -78.96722095 110.14560414 -73.9375 100 C-72.91945155 97.91474763 -71.90848263 95.82675677 -70.91078186 93.73168945 C-70.29368397 92.43890256 -69.6643362 91.15187137 -69.02122498 89.87182617 C-67.82693569 87.39431777 -66.95604679 85.545127 -67.18017578 82.76538086 C-68.6089286 79.68875441 -70.80461421 77.17104203 -72.9375 74.5625 C-73.93535412 73.31547074 -74.93273889 72.06806579 -75.9296875 70.8203125 C-76.43854492 70.18770508 -76.94740234 69.55509766 -77.47167969 68.90332031 C-79.85762871 65.93193716 -82.21793108 62.94160161 -84.5625 59.9375 C-85.36816406 58.91527344 -86.17382812 57.89304687 -87.00390625 56.83984375 C-90.5567672 51.78518639 -91.90031304 47.17683122 -91 41 C-89.08777009 34.79384065 -85.67130804 31.06592755 -80 28 C-71.43094079 25.14364693 -61.97260551 27.89337675 -53.375 29.5 C-50.82134156 29.97432411 -48.26667413 30.44325423 -45.7109375 30.90625 C-44.02943604 31.22045898 -44.02943604 31.22045898 -42.31396484 31.54101562 C-38.75856154 32.03343924 -35.58073855 32.33032154 -32 32 C-29.95202874 30.49530646 -29.95202874 30.49530646 -28.5703125 28.23046875 C-28.00675049 27.42859131 -27.44318848 26.62671387 -26.86254883 25.80053711 C-26.28915771 24.93823486 -25.7157666 24.07593262 -25.125 23.1875 C-23.9044287 21.44124917 -22.68177616 19.69645118 -21.45703125 17.953125 C-20.86873535 17.10298828 -20.28043945 16.25285156 -19.67431641 15.37695312 C-17.50017248 12.29041693 -15.20094029 9.36148255 -12.8125 6.4375 C-11.80123047 5.19806641 -11.80123047 5.19806641 -10.76953125 3.93359375 C-7.35826638 0.20605266 -4.94495801 -0.67871973 0 0 Z M-5 16 C-5.35715088 16.63389648 -5.71430176 17.26779297 -6.08227539 17.92089844 C-19.19198141 41.17916857 -19.19198141 41.17916857 -25 51 C-38.69228279 50.29306149 -52.34150272 49.18492078 -66 48 C-63.45923988 52.81455631 -59.98038306 56.41682204 -56.25 60.3125 C-54.98888181 61.64907801 -53.72845756 62.98631116 -52.46875 64.32421875 C-51.86804688 64.96020996 -51.26734375 65.59620117 -50.6484375 66.25146484 C-48.66213902 68.35837683 -46.69003154 70.47534641 -44.75 72.625 C-43.99976563 73.44871094 -43.99976563 73.44871094 -43.234375 74.2890625 C-41.61456722 76.53423911 -40.7466289 78.3125121 -40 81 C-40.84277344 84.02685547 -40.84277344 84.02685547 -42.359375 87.3671875 C-42.75603363 88.26390671 -42.75603363 88.26390671 -43.16070557 89.17874146 C-44.00751741 91.08529578 -44.8774993 92.98008273 -45.75 94.875 C-46.60363512 96.76450153 -47.45217703 98.65613147 -48.29644775 100.54983521 C-49.06834899 102.27547117 -49.85363264 103.99510267 -50.63964844 105.71435547 C-52.05152789 109.12445482 -53.05402384 112.43764995 -54 116 C-48.71116562 114.36271191 -43.67274877 112.4744298 -38.609375 110.23046875 C-37.48789062 109.73482422 -36.36640625 109.23917969 -35.2109375 108.72851562 C-32.88332478 107.69212373 -30.5604435 106.64504634 -28.2421875 105.58789062 C-26.56769531 104.8540918 -26.56769531 104.8540918 -24.859375 104.10546875 C-23.85358398 103.65324951 -22.84779297 103.20103027 -21.81152344 102.73510742 C-18.34757587 101.82941568 -17.08416356 102.2613581 -14 104 C-12.09057617 105.49291992 -12.09057617 105.49291992 -10.29296875 107.23046875 C-9.2884668 108.18856445 -9.2884668 108.18856445 -8.26367188 109.16601562 C-7.57853516 109.83310547 -6.89339844 110.50019531 -6.1875 111.1875 C-2.06398221 115.15317979 2.06131985 119.10935107 6.32421875 122.92578125 C6.95803467 123.49337158 7.59185059 124.06096191 8.24487305 124.64575195 C10.06675621 126.20512669 10.06675621 126.20512669 13 127 C13.11054775 120.25658741 12.6853832 113.70564108 12 107 C11.3146168 100.29435892 10.88945225 93.74341259 11 87 C11.74572266 86.57178955 12.49144531 86.1435791 13.25976562 85.70239258 C16.06351874 84.0914528 18.86648349 82.47915176 21.66894531 80.8659668 C22.87501815 80.17207289 24.08139105 79.47870025 25.28808594 78.78588867 C29.20097071 76.53906222 33.10475773 74.27734136 37 72 C38.30130859 71.24082275 38.30130859 71.24082275 39.62890625 70.46630859 C41.45582942 69.36959082 43.23548596 68.19454106 45 67 C45 66.34 45 65.68 45 65 C32.13 62.03 19.26 59.06 6 56 C1.625 36.5625 1.625 36.5625 0.25634766 30.42016602 C-0.1070807 28.82292758 -0.47113261 27.22583085 -0.8359375 25.62890625 C-1.11207886 24.37346008 -1.11207886 24.37346008 -1.39379883 23.09265137 C-1.86554016 21.04604377 -2.42406893 19.01976383 -3 17 C-3.66 16.67 -4.32 16.34 -5 16 Z " fill="#441479" transform="translate(566,549)"/>
<path d="M0 0 C2.50642854 3.37983119 3.40476307 6.00407841 3.65234375 10.171875 C3.71663574 11.22310547 3.78092773 12.27433594 3.84716797 13.35742188 C4.15329958 20.65372172 4.37987909 27.94963583 4.5625 35.25 C4.60581035 36.88151866 4.64942804 38.51302919 4.69335938 40.14453125 C4.79910976 44.09626957 4.90072352 48.04809396 5 52 C6.54155762 52.03758423 6.54155762 52.03758423 8.11425781 52.07592773 C11.98349229 52.17119882 15.85259623 52.27111031 19.72167969 52.37231445 C21.38571079 52.41521676 23.04977342 52.45691582 24.71386719 52.49731445 C51.32438664 53.14576574 51.32438664 53.14576574 56.1875 55.625 C58.63019245 58.82576942 59 60.99123025 59 65 C56.74954971 70.21615997 52.56914087 72.92925133 48.125 76.1875 C46.71058329 77.24301509 45.29653235 78.29902049 43.8828125 79.35546875 C43.13547852 79.91024902 42.38814453 80.4650293 41.61816406 81.03662109 C36.37155925 84.97108547 31.19068249 88.99221447 26 93 C26.18175781 94.04865234 26.36351562 95.09730469 26.55078125 96.17773438 C27.22840583 100.09782209 27.89721433 104.0193728 28.56347656 107.94140625 C28.85211795 109.63321929 29.14309478 111.3246357 29.43652344 113.015625 C29.85978667 115.45730679 30.27441126 117.90032883 30.6875 120.34375 C30.81874268 121.08991577 30.94998535 121.83608154 31.08520508 122.6048584 C32.29876992 129.88014298 33.01598935 136.52603172 29.33984375 143.171875 C26.22461787 147.42238727 22.14245367 149.98770597 17 151 C9.0919153 151.76039276 3.79005053 148.59560663 -2.21875 143.7578125 C-3.65247286 142.55474341 -5.07951329 141.34366893 -6.5 140.125 C-9.32137124 137.73531397 -12.15357796 135.35979487 -15 133 C-15.69931641 132.40968994 -16.39863281 131.81937988 -17.11914062 131.21118164 C-21.04560224 127.96927582 -21.04560224 127.96927582 -25.84375 126.66796875 C-26.7203125 126.83941406 -27.596875 127.01085937 -28.5 127.1875 C-33.42237161 127.90663741 -37.94000542 127.88721174 -42.875 127.4375 C-54.00290214 126.5582845 -64.05521946 128.25291384 -74.4765625 132.29296875 C-77.1906925 133.05342932 -78.42927717 133.10416509 -81 132 C-84.82480671 126.8091909 -84.84692995 121.17433269 -84 115 C-82.23816629 109.87052053 -79.93893075 105.05599839 -77.5625 100.1875 C-76.6387935 98.25765205 -75.72135998 96.32516687 -74.81150818 94.38874817 C-73.98858412 92.64304891 -73.14824682 90.90558914 -72.30688477 89.16870117 C-71.00693954 86.01682577 -70.23897029 83.39885395 -70 80 C-71.49698276 77.54154051 -72.88563262 75.64192166 -74.75 73.5 C-75.76452215 72.27099777 -76.77883892 71.04182597 -77.79296875 69.8125 C-78.32067871 69.18601562 -78.84838867 68.55953125 -79.39208984 67.9140625 C-81.99651611 64.81374335 -84.53463518 61.66280999 -87.0625 58.5 C-87.52688477 57.93732422 -87.99126953 57.37464844 -88.46972656 56.79492188 C-91.76412542 52.69098625 -93.85120775 48.97584494 -94.1171875 43.65625 C-93.39604376 37.23574441 -91.3697159 33.43742207 -86.8125 28.75 C-80.30041094 24.69803347 -73.69872296 24.69986969 -66.38671875 26.15234375 C-65.60988235 26.29072159 -64.83304596 26.42909943 -64.03266907 26.57167053 C-61.58095966 27.01059687 -59.13436409 27.47238562 -56.6875 27.9375 C-54.22237363 28.39575295 -51.75655199 28.84886839 -49.28877258 29.2926178 C-47.76119905 29.56830335 -46.23517895 29.85278165 -44.71110535 30.14720154 C-39.77149483 31.12455873 -39.77149483 31.12455873 -35 30 C-33.3319052 28.13565875 -31.89034727 26.33274697 -30.4375 24.3125 C-29.55944045 23.13218215 -28.68050151 21.9525181 -27.80078125 20.7734375 C-27.11749756 19.84869629 -27.11749756 19.84869629 -26.42041016 18.90527344 C-24.03851375 15.71030617 -21.58383593 12.57340066 -19.125 9.4375 C-18.67310303 8.85460205 -18.22120605 8.2717041 -17.75561523 7.67114258 C-8.9916467 -3.53243263 -8.9916467 -3.53243263 0 0 Z M-8 14 C-9.50695126 16.11840604 -9.50695126 16.11840604 -11.01171875 18.86328125 C-11.60533203 19.89646484 -12.19894531 20.92964844 -12.81054688 21.99414062 C-13.42994141 23.08919922 -14.04933594 24.18425781 -14.6875 25.3125 C-19.2659112 33.3431611 -23.96116606 41.24817058 -29 49 C-30.06436279 48.90912109 -31.12872559 48.81824219 -32.2253418 48.72460938 C-36.18545024 48.38704176 -40.14578858 48.05224048 -44.10620117 47.71826172 C-45.81817895 47.57350544 -47.53009401 47.42800544 -49.24194336 47.28173828 C-51.70670604 47.0712706 -54.17168406 46.86350456 -56.63671875 46.65625 C-57.39836838 46.59062866 -58.16001801 46.52500732 -58.94474792 46.45739746 C-62.64017909 46.14928342 -66.29119835 45.92306721 -70 46 C-63.40437114 53.72171184 -56.7363469 61.35163866 -49.81958008 68.7878418 C-48.53280272 70.17945576 -47.26569967 71.58918826 -46 73 C-45.33484375 73.59296875 -44.6696875 74.1859375 -43.984375 74.796875 C-42.78037468 77.49154238 -43.09831488 78.17920968 -43.95703125 80.9453125 C-46.73030014 88.18934607 -50.03309768 95.22822162 -53.23632812 102.2890625 C-53.71908203 103.36671875 -54.20183594 104.444375 -54.69921875 105.5546875 C-55.14096436 106.52905762 -55.58270996 107.50342773 -56.0378418 108.50732422 C-57.18004966 111.02113622 -57.18004966 111.02113622 -57 114 C-52.85506781 113.3482538 -49.38757725 111.98398046 -45.5625 110.27734375 C-44.32561916 109.73350028 -43.08863689 109.18988744 -41.8515625 108.64648438 C-39.92130553 107.79173355 -37.99242143 106.93410954 -36.06542969 106.07202148 C-34.19287771 105.23662291 -32.3156129 104.41264817 -30.4375 103.58984375 C-28.76494141 102.84528931 -28.76494141 102.84528931 -27.05859375 102.08569336 C-24.07752968 101.02752031 -22.12229119 100.62552857 -19 101 C-16.60546875 102.72265625 -16.60546875 102.72265625 -14.1875 105.0625 C-13.31480469 105.88878906 -12.44210938 106.71507812 -11.54296875 107.56640625 C-10.28419922 108.77103516 -10.28419922 108.77103516 -9 110 C-7.67458296 111.1756524 -6.34189639 112.34319277 -5 113.5 C-0.28171421 117.60916283 4.3580078 121.80508492 9 126 C9.66 125.67 10.32 125.34 11 125 C10.59410395 120.26747354 10.18506949 115.53523242 9.77319336 110.80322266 C9.6336696 109.19522343 9.49498615 107.58715105 9.35717773 105.97900391 C9.15832755 103.66028159 8.95640267 101.34184389 8.75390625 99.0234375 C8.6934462 98.31069672 8.63298615 97.59795593 8.57069397 96.86361694 C8.21849718 92.86968817 7.71509392 88.94515964 7 85 C7.70125 84.73952881 8.4025 84.47905762 9.125 84.21069336 C12.24595861 82.89642419 15.07161976 81.3294258 18 79.62890625 C19.134375 78.97212891 20.26875 78.31535156 21.4375 77.63867188 C22.62502495 76.9466574 23.81252474 76.25459973 25 75.5625 C26.18732732 74.87405107 27.37482583 74.18589727 28.5625 73.49804688 C31.71176955 71.67111266 34.85928295 69.84159742 38 68 C38.94875 67.47398193 39.8975 66.94796387 40.875 66.40600586 C41.57625 65.94202393 42.2775 65.47804199 43 65 C43 64.34 43 63.68 43 63 C41.83428467 62.77449463 40.66856934 62.54898926 39.4675293 62.31665039 C35.13695025 61.46787488 30.81870985 60.56658516 26.50219727 59.64916992 C24.6340433 59.25978889 22.76286347 58.88463875 20.88891602 58.52416992 C18.19141438 58.00269586 15.50902056 57.43058825 12.82421875 56.84765625 C11.98662521 56.6972438 11.14903168 56.54683136 10.28605652 56.39186096 C7.88869494 55.84055084 6.08027266 55.31725148 4 54 C2.28593512 51.13912212 1.64397776 48.24943425 1 45 C0.67555908 43.72374756 0.35111816 42.44749512 0.0168457 41.13256836 C-0.26070557 39.88096924 -0.53825684 38.62937012 -0.82421875 37.33984375 C-0.97534622 36.66450089 -1.12647369 35.98915802 -1.28218079 35.29335022 C-1.75502734 33.17568511 -2.22138722 31.05665623 -2.6875 28.9375 C-3.01063565 27.48492986 -3.33420004 26.03245503 -3.65820312 24.58007812 C-4.44374601 21.05447003 -5.22348626 17.52760918 -6 14 C-6.66 14 -7.32 14 -8 14 Z " fill="#EE79D0" transform="translate(226,123)"/>
<path d="M0 0 C3.4375 0.875 3.4375 0.875 5.4375 3.875 C5.75634766 6.78588867 5.75634766 6.78588867 5.8515625 10.29296875 C5.90957031 12.17338867 5.90957031 12.17338867 5.96875 14.09179688 C5.9996875 15.40212891 6.030625 16.71246094 6.0625 18.0625 C6.10069338 19.3978116 6.13974591 20.73309892 6.1796875 22.06835938 C6.27409153 25.33709888 6.35967017 28.60583064 6.4375 31.875 C7.67838379 31.88901855 7.67838379 31.88901855 8.94433594 31.90332031 C12.69266415 31.95700319 16.43974162 32.0406571 20.1875 32.125 C21.48945312 32.13917969 22.79140625 32.15335938 24.1328125 32.16796875 C25.38320313 32.20019531 26.63359375 32.23242188 27.921875 32.265625 C29.07397461 32.28657227 30.22607422 32.30751953 31.41308594 32.32910156 C35.03250631 32.98239701 36.25949765 33.95437597 38.4375 36.875 C38.546875 39.8046875 38.546875 39.8046875 37.4375 42.875 C35.53675668 44.83987883 33.83926985 46.37592609 31.6875 48 C31.1615625 48.41636719 30.635625 48.83273437 30.09375 49.26171875 C27.62183212 51.2135549 25.12633635 53.09210068 22.54296875 54.89453125 C20.2421124 56.65216605 20.2421124 56.65216605 20.09765625 59.06640625 C20.23042969 59.84886719 20.36320313 60.63132812 20.5 61.4375 C20.63277344 62.31277344 20.76554688 63.18804688 20.90234375 64.08984375 C21.26141911 65.95860824 21.62871702 67.82581014 22.00390625 69.69140625 C23.15571409 75.48266387 23.93155067 80.09800406 22.4375 85.875 C19.92234648 89.00194762 17.35243659 91.75644669 13.4375 92.875 C6.6239999 92.65101431 3.25941783 90.85298599 -1.8125 86.4375 C-3.00270973 85.43582565 -4.1953486 84.43702918 -5.390625 83.44140625 C-5.9052832 82.99740479 -6.41994141 82.55340332 -6.95019531 82.09594727 C-8.79877706 80.69607487 -10.37364971 79.66590943 -12.5625 78.875 C-14.61234309 79.32430268 -14.61234309 79.32430268 -16.609375 80.4296875 C-17.3725 80.79707031 -18.135625 81.16445313 -18.921875 81.54296875 C-20.50003082 82.33978272 -22.07815643 83.1366565 -23.65625 83.93359375 C-30.02639622 87.00109705 -34.8896747 88.1463626 -41.8125 85.75 C-45.73942696 83.0725498 -47.85238411 80.56178176 -49.0859375 75.89453125 C-50.00727477 66.66527339 -44.48592113 57.91451025 -40.5625 49.875 C-41.32175781 48.92238281 -42.08101562 47.96976563 -42.86328125 46.98828125 C-43.86734152 45.72147623 -44.8712392 44.45454232 -45.875 43.1875 C-46.37451172 42.56166016 -46.87402344 41.93582031 -47.38867188 41.29101562 C-54.35895231 32.47430329 -54.35895231 32.47430329 -55 27.4375 C-54.47129625 23.1323409 -53.38907232 21.14787321 -50.5625 17.875 C-45.90690255 14.35491412 -42.03293819 14.73977626 -36.51171875 15.41015625 C-32.67292251 16.01521155 -28.86730504 16.74290815 -25.0703125 17.5703125 C-22.06193299 17.93581655 -20.41157131 17.98297217 -17.5625 16.875 C-15.42336928 14.77535625 -13.69633967 12.42082054 -11.9375 10 C-10.98861534 8.73054619 -10.03814418 7.46227639 -9.0859375 6.1953125 C-8.67263184 5.63086426 -8.25932617 5.06641602 -7.83349609 4.48486328 C-4.17696139 -0.14656005 -4.17696139 -0.14656005 0 0 Z M-2.5625 11.875 C-6.1925 18.145 -9.8225 24.415 -13.5625 30.875 C-24.9475 30.38 -24.9475 30.38 -36.5625 29.875 C-33.96277705 34.24429392 -33.96277705 34.24429392 -30.86328125 37.98828125 C-30.37666016 38.51357422 -29.89003906 39.03886719 -29.38867188 39.58007812 C-28.88916016 40.11052734 -28.38964844 40.64097656 -27.875 41.1875 C-27.36388672 41.73728516 -26.85277344 42.28707031 -26.32617188 42.85351562 C-25.07552966 44.1976638 -23.81955376 45.536846 -22.5625 46.875 C-24.29281785 52.41988219 -26.28458567 57.68744871 -28.79296875 62.9296875 C-29.74642333 64.99127836 -29.74642333 64.99127836 -29.5625 67.875 C-23.81544056 66.04260424 -18.3100352 63.96686398 -12.82421875 61.44921875 C-10.5625 60.875 -10.5625 60.875 -8.61328125 61.45703125 C-4.80127971 64.09275803 -1.57936992 67.38652953 1.78125 70.5625 C4.47466075 73.10191207 4.47466075 73.10191207 8.4375 74.875 C8.1075 67.285 7.7775 59.695 7.4375 51.875 C13.7075 48.245 19.9775 44.615 26.4375 40.875 C25.63025142 38.67270665 25.63025142 38.67270665 23.39624023 38.18896484 C22.52169189 37.98996582 21.64714355 37.7909668 20.74609375 37.5859375 C19.80185547 37.36679687 18.85761719 37.14765625 17.88476562 36.921875 C16.89154297 36.70015625 15.89832031 36.4784375 14.875 36.25 C13.37936523 35.90582031 13.37936523 35.90582031 11.85351562 35.5546875 C9.38311454 34.98732266 6.91119412 34.42779846 4.4375 33.875 C4.29650879 33.27961426 4.15551758 32.68422852 4.01025391 32.07080078 C3.36837929 29.37871241 2.71558509 26.68938971 2.0625 24 C1.84078125 23.06285156 1.6190625 22.12570312 1.390625 21.16015625 C1.17148437 20.26425781 0.95234375 19.36835937 0.7265625 18.4453125 C0.52756348 17.61789551 0.32856445 16.79047852 0.12353516 15.93798828 C-0.45503735 13.68389683 -0.45503735 13.68389683 -2.5625 11.875 Z " fill="#46177A" transform="translate(699.5625,585.125)"/>
<path d="M0 0 C2.39112209 3.58668313 2.23381027 5.16396569 2.1953125 9.41796875 C2.18886719 10.67158203 2.18242187 11.92519531 2.17578125 13.21679688 C2.15902344 14.52712891 2.14226562 15.83746094 2.125 17.1875 C2.11496639 18.52277987 2.1058412 19.85806689 2.09765625 21.19335938 C2.07405292 24.46242015 2.04112594 27.73112028 2 31 C2.89307861 31.0093457 3.78615723 31.01869141 4.70629883 31.02832031 C8.02235162 31.07235304 11.33710939 31.13396861 14.65258789 31.20751953 C16.08703683 31.23573182 17.52164129 31.25694524 18.95629883 31.27099609 C21.01985302 31.29242449 23.08153706 31.33906467 25.14453125 31.390625 C26.38565674 31.41157227 27.62678223 31.43251953 28.90551758 31.45410156 C32 32 32 32 33.92993164 33.88378906 C35 36 35 36 34.9765625 38.46875 C33.71432042 41.74048147 32.02922815 43.22265621 29.375 45.5 C28.47910156 46.28632813 27.58320313 47.07265625 26.66015625 47.8828125 C24.42266983 49.66360199 22.29864828 50.99882903 19.8125 52.375 C16.80058672 54.62166354 16.80058672 54.62166354 16.7265625 57.25390625 C16.96036631 60.22841027 17.43419187 63.07005088 18 66 C20.73561056 81.20336293 20.73561056 81.20336293 17 87 C14.98060136 89.5242483 14.15499404 89.94833532 11 91 C5.2299152 91.55481585 1.58008658 90.38412587 -3 87 C-5.78025859 84.60532472 -8.54383368 82.20454081 -11.25390625 79.73046875 C-13.8733705 77.72959768 -13.8733705 77.72959768 -16.9375 78.05078125 C-21.43704872 79.44541178 -25.4806278 81.52098816 -29.68359375 83.625 C-33.88816703 85.36823886 -37.77958935 86.54848304 -42.29296875 85.43359375 C-46.88707266 83.01813705 -49.75011136 80.87475872 -52 76 C-52.75091425 68.24889621 -50.12864498 63.2286231 -46.66796875 56.44726562 C-44.44882538 52.07640696 -44.44882538 52.07640696 -44.4453125 47.32421875 C-46.42780776 44.36043815 -48.63622582 41.66093436 -51 39 C-55.08212267 34.4046962 -58.10276408 30.8773942 -57.875 24.5 C-56.90334639 20.61338554 -55.85866648 18.77925908 -53 16 C-49.38509453 14.20471866 -46.86608389 13.79728004 -42.875 14.25 C-41.44414062 14.40855469 -41.44414062 14.40855469 -39.984375 14.5703125 C-36.12497953 15.12598462 -32.3171387 15.86522052 -28.5078125 16.6953125 C-25.65117278 17.04238088 -23.76268344 16.80446969 -21 16 C-19.19671127 14.46046786 -19.19671127 14.46046786 -17.73828125 12.4375 C-17.17689453 11.72335938 -16.61550781 11.00921875 -16.03710938 10.2734375 C-15.46798828 9.52320313 -14.89886719 8.77296875 -14.3125 8 C-13.16574918 6.51851504 -12.01614556 5.03923255 -10.86328125 3.5625 C-10.36094971 2.90378906 -9.85861816 2.24507812 -9.34106445 1.56640625 C-6.47811668 -1.77760848 -4.00952883 -1.00238221 0 0 Z M-6 10 C-7.16379309 11.81693534 -7.16379309 11.81693534 -8.25 14.15625 C-8.69472656 15.01347656 -9.13945312 15.87070313 -9.59765625 16.75390625 C-10.52617456 18.57214684 -11.43033103 20.40305288 -12.30859375 22.24609375 C-13.69043145 24.84927241 -14.9070364 26.92013522 -17 29 C-20.46052868 29.90507247 -23.49393158 29.51281564 -27 29 C-28.34575204 28.91670634 -29.6921387 28.84275337 -31.0390625 28.78125 C-32.81410156 28.64203125 -32.81410156 28.64203125 -34.625 28.5 C-35.83414062 28.4071875 -37.04328125 28.314375 -38.2890625 28.21875 C-39.18367188 28.1465625 -40.07828125 28.074375 -41 28 C-37.17570864 33.31634442 -33.13794618 38.05345574 -28.44140625 42.62890625 C-27 45 -27 45 -27.0859375 48.28125 C-28.0879394 52.35777054 -29.43080012 56.07972234 -31.0625 59.9375 C-31.34416016 60.62134766 -31.62582031 61.30519531 -31.91601562 62.00976562 C-32.6035405 63.67613946 -33.30076175 65.33850727 -34 67 C-28.96275669 66.25444976 -24.63679145 64.15495907 -20.08398438 61.99609375 C-17.6349945 60.88941508 -15.58728718 59.98599131 -12.87109375 60.05078125 C-10.19760234 61.40706186 -8.29330811 63.24889212 -6.125 65.3125 C-2.49846481 68.75145578 0.74215062 71.16143375 5 74 C4.67 66.41 4.34 58.82 4 51 C10.6 47.04 17.2 43.08 24 39 C21.1879719 37.1253146 19.535532 36.48630711 16.33203125 35.7109375 C15.1251062 35.41388916 15.1251062 35.41388916 13.89379883 35.11083984 C12.87697021 34.8680127 11.8601416 34.62518555 10.8125 34.375 C7.574375 33.59125 4.33625 32.8075 1 32 C-0.65 24.74 -2.3 17.48 -4 10 C-4.66 10 -5.32 10 -6 10 Z " fill="#EF88D5" transform="translate(484,134)"/>
<path d="M0 0 C2.71320743 1.04455283 5.17838429 2.3997748 7.71459961 3.81884766 C8.69944336 4.36669922 9.68428711 4.91455078 10.69897461 5.47900391 C11.44663086 5.90052734 12.19428711 6.32205078 12.96459961 6.75634766 C12.96459961 9.75634766 12.96459961 9.75634766 11.46069336 11.51806641 C10.78135742 12.15357422 10.10202148 12.78908203 9.40209961 13.44384766 C6.61678331 16.12147159 3.97388463 18.81822408 1.46459961 21.75634766 C-0.93216627 24.54531159 -3.4149943 27.1762555 -6.03540039 29.75634766 C-8.51503368 32.20298202 -10.88980415 34.6774254 -13.16040039 37.31884766 C-18.31135378 43.29909287 -23.76597536 49.00346664 -29.16381836 54.75976562 C-32.16670073 57.96320575 -35.16369045 61.17213465 -38.16040039 64.38134766 C-38.7359668 64.99671387 -39.3115332 65.61208008 -39.90454102 66.24609375 C-42.75579065 69.29789738 -45.59359046 72.36054079 -48.40649414 75.44775391 C-48.9445166 76.03669434 -49.48253906 76.62563477 -50.03686523 77.23242188 C-51.04166731 78.3340269 -52.04353928 79.43831543 -53.04174805 80.54589844 C-60.17701602 88.36144098 -60.17701602 88.36144098 -64.53540039 89.28759766 C-68.73167581 89.23514421 -71.34588586 89.15856447 -75.03540039 87.00634766 C-78.01410098 83.65530949 -78.91002351 81.8847396 -79.41040039 77.38134766 C-78.62696869 69.80817451 -72.75656113 65.32140817 -67.41040039 60.44384766 C-66.34015625 59.45372681 -66.34015625 59.45372681 -65.24829102 58.44360352 C-60.60760173 54.1604153 -55.913761 49.93869081 -51.19946289 45.73681641 C-48.34852601 43.12774602 -45.65091605 40.38212789 -42.93774414 37.63134766 C-41.1685266 35.88756035 -39.35561612 34.25088807 -37.47290039 32.63134766 C-33.56909983 29.26783918 -29.79896493 25.77471466 -26.03540039 22.25634766 C-25.40069824 21.66571533 -24.76599609 21.07508301 -24.11206055 20.46655273 C-20.5850858 17.17590364 -17.097548 13.85151724 -13.64868164 10.47900391 C-12.9300293 9.78419922 -12.21137695 9.08939453 -11.47094727 8.37353516 C-10.07556368 7.02308112 -8.68977982 5.66262368 -7.31469727 4.29150391 C-6.68241211 3.68306641 -6.05012695 3.07462891 -5.39868164 2.44775391 C-4.8447876 1.90320557 -4.29089355 1.35865723 -3.72021484 0.79760742 C-2.03540039 -0.24365234 -2.03540039 -0.24365234 0 0 Z " fill="#7919BE" transform="translate(375.035400390625,469.24365234375)"/>
<path d="M0 0 C0.5625 2.51171875 0.5625 2.51171875 1 5.6875 C1.6452289 9.98390516 2.41764224 13.93108005 4 18 C-0.86640512 18.07977713 -5.59392449 17.9898773 -10.4375 17.5 C-15.64128232 16.97815177 -20.77428134 16.89797946 -26 17 C-25.5875 17.38929688 -25.175 17.77859375 -24.75 18.1796875 C-19.68140481 23.08988909 -15.31801018 28.42584141 -11 34 C-11.3403125 34.49886719 -11.680625 34.99773437 -12.03125 35.51171875 C-13.70755157 37.99496337 -15.35587371 40.49533101 -17 43 C-17.62648438 43.94359375 -18.25296875 44.8871875 -18.8984375 45.859375 C-26.73858871 58.06893855 -32.34289787 71.33703671 -37.01025391 85.05004883 C-38.26316446 88.60333257 -38.75854041 89.83902694 -42 92 C-42.55324817 84.90686297 -40.75181875 80.08650921 -37.8125 73.6875 C-37.40338379 72.76267822 -36.99426758 71.83785645 -36.57275391 70.88500977 C-34.85071252 67.00820016 -33.08646072 63.15392641 -31.25390625 59.328125 C-30.79886719 58.37421875 -30.34382812 57.4203125 -29.875 56.4375 C-29.48054687 55.65246094 -29.08609375 54.86742187 -28.6796875 54.05859375 C-27.84373879 51.52672611 -28.15109651 50.50372431 -29 48 C-30.16743756 46.20322937 -30.16743756 46.20322937 -31.66015625 44.49609375 C-32.20309326 43.84294189 -32.74603027 43.18979004 -33.30541992 42.5168457 C-33.88525635 41.83066162 -34.46509277 41.14447754 -35.0625 40.4375 C-36.24939886 39.00426056 -37.43429299 37.56935862 -38.6171875 36.1328125 C-39.1956543 35.4305957 -39.77412109 34.72837891 -40.37011719 34.00488281 C-52.56818002 19.00031541 -52.56818002 19.00031541 -52.31640625 10.12109375 C-51.56294726 5.07012792 -49.19158224 1.19158224 -45.625 -2.375 C-34.71936031 -9.12611029 -11.2144355 -5.60721775 0 0 Z " fill="#C837C1" transform="translate(600,329)"/>
<path d="M0 0 C4.50767196 4.21350773 5.59211576 7.17670898 5.87141418 13.28567505 C5.88935532 14.20460541 5.90729645 15.12353577 5.92578125 16.0703125 C5.98175728 17.5082869 5.98175728 17.5082869 6.03886414 18.97531128 C6.15233483 22.02490793 6.23280275 25.07435286 6.3125 28.125 C6.38390738 30.18366982 6.45745267 32.24226666 6.53320312 34.30078125 C7 47.43062222 7 47.43062222 7 54 C7.78947021 53.99476318 8.57894043 53.98952637 9.39233398 53.98413086 C35.91504009 53.83160165 35.91504009 53.83160165 46 54.3125 C47.258125 54.37050781 48.51625 54.42851562 49.8125 54.48828125 C54.32496367 55.21270863 56.97562215 56.81039991 59.9375 60.25 C61.0785008 63.20317853 61.24302002 65.06233609 60.203125 68.08203125 C57.54890896 72.31326526 53.27378219 75.50638316 49 78 C45.29655972 76.76551991 43.69749018 74.76665659 41 72 C40.34 71.67 39.68 71.34 39 71 C40 68 40 68 43 66 C38.45548163 64.41096432 33.87410534 63.16987448 29.1953125 62.0546875 C28.4713327 61.87994904 27.74735291 61.70521057 27.00143433 61.525177 C24.7098691 60.97267673 22.41745795 60.42378302 20.125 59.875 C18.56244251 59.49893672 16.9999419 59.12263701 15.4375 58.74609375 C11.62565237 57.82799363 7.81304234 56.91312497 4 56 C1.47503962 45.97123965 -0.9895136 35.93305091 -3.33007812 25.859375 C-3.53439453 24.99054688 -3.73871094 24.12171875 -3.94921875 23.2265625 C-4.12799561 22.45908691 -4.30677246 21.69161133 -4.4909668 20.90087891 C-4.94972684 18.93335681 -4.94972684 18.93335681 -6 17 C-8.20612752 20.71661198 -10.41150192 24.43366951 -12.61621094 28.15112305 C-13.36470722 29.41296142 -14.11340115 30.67468258 -14.86230469 31.9362793 C-15.94519522 33.76058888 -17.02734953 35.58533349 -18.109375 37.41015625 C-18.75874023 38.50465088 -19.40810547 39.59914551 -20.07714844 40.72680664 C-22.0798061 44.13585074 -24.04496725 47.56347842 -26 51 C-27.9999203 51.02743793 -29.99995477 51.04659055 -32 51.0625 C-33.11375 51.07410156 -34.2275 51.08570313 -35.375 51.09765625 C-39.32458564 50.99125577 -43.08889965 50.54463788 -47 50 C-46.01123158 47.19297962 -44.98716439 44.40918444 -43.9375 41.625 C-43.66228516 40.8309375 -43.38707031 40.036875 -43.10351562 39.21875 C-42.22913919 36.9511364 -41.39519766 34.99261542 -40 33 C-37.6728671 32.31200193 -35.33877512 31.6473174 -33 31 C-30.31172808 28.30300116 -28.25742427 25.2071965 -26.125 22.0625 C-24.90576651 20.33574026 -23.68441561 18.61047361 -22.4609375 16.88671875 C-21.87280273 16.04931152 -21.28466797 15.2119043 -20.67871094 14.34912109 C-8.65312535 -2.47900348 -8.65312535 -2.47900348 0 0 Z " fill="#D940C1" transform="translate(261,282)"/>
<path d="M0 0 C0.66 0 1.32 0 2 0 C0.29957397 4.14415205 -2.6415183 7.24379837 -5.5625 10.5625 C-6.65723639 11.82206003 -7.75097798 13.08248534 -8.84375 14.34375 C-9.38257813 14.96507812 -9.92140625 15.58640625 -10.4765625 16.2265625 C-12.5478397 18.63774159 -14.55921009 21.09467909 -16.5625 23.5625 C-19.84575772 27.60709285 -23.18654026 31.59550201 -26.5625 35.5625 C-29.76743856 39.3308475 -32.92687889 43.12246273 -36 47 C-39.52883403 51.45253701 -43.18229329 55.78685979 -46.86328125 60.11328125 C-49.78004513 63.54571609 -52.65693426 67.00592815 -55.5 70.5 C-60.58232651 76.73905674 -65.77754016 82.87820417 -71 89 C-71.70898438 89.8353125 -72.41796875 90.670625 -73.1484375 91.53125 C-74.06496094 92.59859375 -74.06496094 92.59859375 -75 93.6875 C-75.515625 94.28949219 -76.03125 94.89148438 -76.5625 95.51171875 C-79.31449777 98.36093383 -81.456643 99.32428831 -85.3125 99.4375 C-88.6431095 99.35070887 -90.75456479 98.9463973 -93.4375 96.9375 C-96.41162579 93.52813629 -97.45793384 91.49140529 -98 87 C-95.83304139 76.55919943 -83.71882589 69.67674398 -75.8828125 63.34765625 C-72.71983953 60.77184764 -69.60682328 58.14294778 -66.5 55.5 C-61.65065425 51.37869662 -56.7483847 47.33008057 -51.8125 43.3125 C-48.68200334 40.73853608 -45.58827539 38.12430914 -42.5 35.5 C-37.65040619 31.37898366 -32.74839194 27.33008646 -27.8125 23.3125 C-24.12869503 20.28359369 -20.49595753 17.19662341 -16.86230469 14.10791016 C-12.3038692 10.23993955 -7.6876628 6.448651 -3.046875 2.6796875 C-1.12984433 1.16253021 -1.12984433 1.16253021 0 0 Z " fill="#DF43C1" transform="translate(378,230)"/>
<path d="M0 0 C0 3.43027108 -0.34106335 3.75291829 -2.52734375 6.1875 C-3.33800293 7.10354004 -3.33800293 7.10354004 -4.16503906 8.03808594 C-5.04240723 9.0092334 -5.04240723 9.0092334 -5.9375 10 C-7.14049071 11.35834166 -8.34230847 12.717723 -9.54296875 14.078125 C-10.13513184 14.74650391 -10.72729492 15.41488281 -11.33740234 16.10351562 C-15.01562488 20.29917387 -18.49438387 24.66033394 -22 29 C-27.23703825 35.44703987 -32.53542909 41.83426836 -37.91357422 48.16357422 C-41.55836708 52.45972273 -45.12772864 56.8135055 -48.68359375 61.18359375 C-51.73643112 64.89539096 -54.84883336 68.55494295 -57.96899414 72.21020508 C-61.52954251 76.39697738 -64.92623318 80.69315005 -68.24609375 85.07421875 C-71.24175813 88.36344489 -73.46626896 88.93974004 -77.875 89.4375 C-81.31493794 89.33481529 -82.23826171 88.85439562 -85.375 86.9375 C-88.41765401 83.53262527 -89.45323859 81.53030882 -90 77 C-88.35012913 69.57558108 -82.66031419 65.67350907 -77 61 C-76.12730469 60.278125 -75.25460938 59.55625 -74.35546875 58.8125 C-72.54763151 57.33023228 -70.73496613 55.85383718 -68.91796875 54.3828125 C-65.74582593 51.79244152 -62.61956706 49.15317133 -59.5 46.5 C-54.64702904 42.37572261 -49.7418645 38.32333986 -44.80078125 34.3046875 C-41.73224297 31.77966995 -38.70957408 29.20518413 -35.6875 26.625 C-30.55737375 22.24934923 -25.30433652 18.05965313 -19.96972656 13.93652344 C-15.75443401 10.65796256 -11.80015928 7.18233276 -7.96484375 3.4609375 C-5.65255744 1.74166299 -3.81821114 1.42772176 -1 1 C-0.67 0.67 -0.34 0.34 0 0 Z " fill="#F3ACE1" transform="translate(329,80)"/>
<path d="M0 0 C0.99 0.495 0.99 0.495 2 1 C-4.90607345 9.857489 -11.91520176 18.62255704 -19.01171875 27.328125 C-21.35721533 30.20612454 -23.68601547 33.09655836 -26 36 C-30.03992386 41.06702315 -34.13271376 46.09054617 -38.22265625 51.1171875 C-41.16322262 54.73319719 -44.09444076 58.35573925 -47 62 C-50.58687732 66.4931975 -54.19528712 70.96871005 -57.8125 75.4375 C-58.37646484 76.13681641 -58.94042969 76.83613281 -59.52148438 77.55664062 C-60.05708984 78.21728516 -60.59269531 78.87792969 -61.14453125 79.55859375 C-61.86153198 80.44502563 -61.86153198 80.44502563 -62.59301758 81.34936523 C-66.13809681 85.50835894 -68.16469109 86.68584348 -73.64453125 87.1328125 C-77.68102272 86.90521597 -79.78490793 85.42772258 -83 83 C-85.48961019 79.13455259 -85.29872565 75.94892166 -84.703125 71.5078125 C-83.4357912 66.9876553 -80.59845043 64.84026801 -77 62 C-76.49710449 61.59668457 -75.99420898 61.19336914 -75.47607422 60.77783203 C-72.51833216 58.40730787 -69.53797509 56.0681851 -66.5390625 53.75 C-62.62100721 50.7177477 -58.79139429 47.58414949 -54.96484375 44.4375 C-46.39807673 37.39446625 -37.80851324 30.38221772 -29.0625 23.5625 C-22.17477384 18.19083312 -15.44185895 12.63725314 -8.71484375 7.06640625 C-5.83326227 4.68097184 -2.93065978 2.32510435 0 0 Z " fill="#D73EC1" transform="translate(744,258)"/>
<path d="M0 0 C0.83015625 0.26425781 1.6603125 0.52851563 2.515625 0.80078125 C3.62744141 1.13916016 3.62744141 1.13916016 4.76171875 1.484375 C5.48488281 1.73316406 6.20804687 1.98195313 6.953125 2.23828125 C8.10941406 2.63273437 8.10941406 2.63273437 9.2890625 3.03515625 C10.02382813 3.2878125 10.75859375 3.54046875 11.515625 3.80078125 C12.69125 4.19265625 13.866875 4.58453125 15.078125 4.98828125 C15.8825 5.25640625 16.686875 5.52453125 17.515625 5.80078125 C15.51958717 8.13760603 13.51970831 10.47086703 11.515625 12.80078125 C11.00902344 13.39117187 10.50242187 13.9815625 9.98046875 14.58984375 C5.77376881 19.44770363 1.42743538 24.16857438 -2.93994141 28.88134766 C-5.98105604 32.16491802 -8.99811574 35.46703001 -11.984375 38.80078125 C-15.61069093 42.8396322 -19.25588582 46.86044104 -22.921875 50.86328125 C-23.44265625 51.43626953 -23.9634375 52.00925781 -24.5 52.59960938 C-29.14601273 57.6562855 -29.14601273 57.6562855 -32.69140625 58.0390625 C-39.70555781 58.23886592 -39.70555781 58.23886592 -43.484375 56.11328125 C-46.09373868 53.0962045 -47.44954158 50.94303661 -47.515625 46.87890625 C-47.01510099 40.22193693 -43.93249533 37.02608306 -39.046875 32.73828125 C-38.35464844 32.14660156 -37.66242188 31.55492187 -36.94921875 30.9453125 C-33.94544319 28.33188495 -31.02740907 25.63414131 -28.109375 22.92578125 C-23.38607967 18.54923713 -18.64763142 14.19328207 -13.83203125 9.91796875 C-12.20796325 8.45333505 -10.61305685 6.95595117 -9.04296875 5.43359375 C-8.26050781 4.68851562 -7.47804688 3.9434375 -6.671875 3.17578125 C-5.98480469 2.50289063 -5.29773438 1.83 -4.58984375 1.13671875 C-2.484375 -0.19921875 -2.484375 -0.19921875 0 0 Z " fill="#7F18C3" transform="translate(295.484375,471.19921875)"/>
<path d="M0 0 C3.80787607 1.63194689 7.19333944 3.81735729 10.625 6.125 C10.03621629 9.27045714 9.12926529 11.03643821 7 13.41015625 C6.46294434 14.01746582 5.92588867 14.62477539 5.37255859 15.25048828 C4.79586426 15.88970215 4.21916992 16.52891602 3.625 17.1875 C2.42849945 18.53931396 1.23319161 19.89218451 0.0390625 21.24609375 C-0.54713867 21.90851074 -1.13333984 22.57092773 -1.73730469 23.25341797 C-3.88335304 25.70595325 -5.9488627 28.21777777 -8 30.75 C-11.338676 34.86482577 -14.71246323 38.94639628 -18.125 43 C-18.57311035 43.5357666 -19.0212207 44.0715332 -19.48291016 44.62353516 C-27.99258342 54.7016952 -27.99258342 54.7016952 -32.25 55.1875 C-36.06970303 55.42578015 -38.72042621 54.60753566 -41.890625 52.484375 C-44.62672369 49.97868463 -45.48587719 47.68149124 -46.375 44.125 C-46.29114291 39.0935745 -45.35872919 37.19255177 -41.9453125 33.48828125 C-38.8784351 30.55456682 -35.64672383 27.8259589 -32.375 25.125 C-31.4571875 24.36058594 -30.539375 23.59617187 -29.59375 22.80859375 C-27.81704149 21.34803484 -26.03309752 19.8962351 -24.2421875 18.453125 C-20.43614065 15.36265644 -16.7009635 12.19218739 -12.96508789 9.01757812 C-11.43624581 7.71865343 -9.90563312 6.42181368 -8.375 5.125 C-7.56482422 4.414646 -7.56482422 4.414646 -6.73828125 3.68994141 C-2.63232969 0.13854367 -2.63232969 0.13854367 0 0 Z " fill="#621AA4" transform="translate(630.375,540.875)"/>
<path d="M0 0 C0.99 0.495 0.99 0.495 2 1 C-8.95438713 15.69713607 -20.10221025 30.25049581 -31.2565918 44.79614258 C-34.0399336 48.42687181 -36.80714501 52.06864471 -39.5546875 55.7265625 C-40.14161377 56.50418945 -40.72854004 57.28181641 -41.33325195 58.08300781 C-42.45604355 59.5711862 -43.57462669 61.06255258 -44.68823242 62.55761719 C-50.76659998 70.59247441 -50.76659998 70.59247441 -55.18359375 71.3984375 C-59.8743591 71.34966004 -63.37554009 71.30465463 -67 68 C-68.99409753 64.47709436 -70 61.99740681 -70 57.9375 C-67.70164644 51.18608643 -62.07320108 47.2654616 -56.5 43.25 C-55.06068708 42.19210091 -53.62189134 41.13349784 -52.18359375 40.07421875 C-51.47315918 39.5539209 -50.76272461 39.03362305 -50.03076172 38.49755859 C-47.17602987 36.39237403 -44.36886026 34.23185541 -41.5625 32.0625 C-40.50664292 31.2472242 -39.45065027 30.43212395 -38.39453125 29.6171875 C-37.85135254 29.19791992 -37.30817383 28.77865234 -36.74853516 28.34667969 C-33.42234676 25.78492945 -30.08567149 23.23688172 -26.75 20.6875 C-26.04496338 20.14843018 -25.33992676 19.60936035 -24.61352539 19.05395508 C-20.80116867 16.13943443 -16.98721395 13.22702183 -13.171875 10.31640625 C-12.38973633 9.71932861 -11.60759766 9.12225098 -10.80175781 8.50708008 C-9.29116691 7.35394869 -7.78011427 6.20142187 -6.26855469 5.04956055 C-5.59211914 4.53304932 -4.91568359 4.01653809 -4.21875 3.484375 C-3.61998047 3.02772461 -3.02121094 2.57107422 -2.40429688 2.10058594 C-1.02475304 1.06487506 -1.02475304 1.06487506 0 0 Z " fill="#F4ADE2" transform="translate(564,89)"/>
<path d="M0 0 C0.66 0.66 1.32 1.32 2 2 C-0.84953719 7.47829133 -3.7256141 12.94190757 -6.62304688 18.39501953 C-7.90351609 20.81746749 -9.16343008 23.2496611 -10.421875 25.68359375 C-11.17584009 27.10222395 -11.93098708 28.52022684 -12.6875 29.9375 C-13.0187085 30.59234375 -13.34991699 31.2471875 -13.69116211 31.921875 C-16.37947056 36.8700814 -19.03675132 38.69401574 -24 41 C-28.02872971 41.65775179 -29.58858349 41.22587573 -33.1875 39.25 C-38.63569457 34.89144434 -38.63569457 34.89144434 -39.38671875 30.9921875 C-39.73168004 26.4693617 -39.36457634 24.16310769 -36.44458008 20.61816406 C-33.13864301 16.86516229 -29.65422645 14.76445535 -25.1953125 12.59765625 C-24.4713327 12.23022812 -23.74735291 11.86279999 -23.00143433 11.48423767 C-20.71642283 10.32876837 -18.42125746 9.19542652 -16.125 8.0625 C-14.56177284 7.27683577 -12.99926487 6.48973887 -11.4375 5.70117188 C-7.63310515 3.78413467 -3.81945337 1.88684429 0 0 Z " fill="#581995" transform="translate(752,572)"/>
<path d="M0 0 C2.44293804 3.82726959 2.67748199 6.51934074 1.875 10.9375 C-0.29584664 16.30076817 -5.14736363 20.0882311 -9.98046875 23.08984375 C-14.80382604 24.99634381 -21.33356063 25.0189164 -26.171875 23.14453125 C-28.8594473 21.40825311 -30.34744449 19.60383327 -32.125 16.9375 C-32.59861044 12.75394107 -32.42103995 10.49668658 -30.4375 6.75 C-23.15671289 -2.10501135 -10.29590703 -6.79529864 0 0 Z " fill="#141022" transform="translate(645.125,320.0625)"/>
<path d="M0 0 C3.19573722 2.21110467 5.72053707 4.90846934 8.35546875 7.75 C8.90138672 8.31074219 9.44730469 8.87148438 10.00976562 9.44921875 C13.28038902 12.95895835 15.19485356 15.48598277 15.16796875 20.5 C14.171875 23.2734375 14.171875 23.2734375 12.73046875 25.875 C12.25738281 26.74898438 11.78429687 27.62296875 11.296875 28.5234375 C10.92433594 29.17570312 10.55179688 29.82796875 10.16796875 30.5 C4.40632386 29.02894173 -1.3117924 27.4343813 -6.95703125 25.5625 C-7.86710938 25.26472656 -8.7771875 24.96695312 -9.71484375 24.66015625 C-11.83203125 23.5 -11.83203125 23.5 -12.38671875 21.68359375 C-12.53367188 20.96300781 -12.680625 20.24242187 -12.83203125 19.5 C-14.10561857 17.78724465 -15.44626202 16.12332967 -16.83203125 14.5 C-21.26865097 9.3028169 -21.26865097 9.3028169 -21.83203125 5.5 C-21.05859375 5.40203125 -20.28515625 5.3040625 -19.48828125 5.203125 C-14.36594084 4.46773949 -9.88400503 3.80186409 -5.33203125 1.25 C-1.83203125 -0.5 -1.83203125 -0.5 0 0 Z " fill="#C23AC3" transform="translate(204.83203125,343.5)"/>
<path d="M0 0 C2.88311197 -0.20822796 5.53608069 -0.23012388 8.41015625 -0.109375 C9.67236244 -0.07327118 9.67236244 -0.07327118 10.96006775 -0.03643799 C13.66154148 0.04483189 16.36175295 0.1476134 19.0625 0.25 C20.85608021 0.3046991 22.64970052 0.35809971 24.44335938 0.41015625 C26.18232887 0.4649781 27.92126309 0.52093306 29.66015625 0.578125 C30.46050797 0.60424866 31.26085968 0.63037231 32.08546448 0.6572876 C48.42599525 1.2830576 48.42599525 1.2830576 53 6 C54.42662219 8.85324437 54.31033868 10.83454549 54 14 C51.22973624 18.54323257 47.33863013 21.07976818 43 24 C38.70281759 22.09014115 35.3108493 19.3108493 32 16 C33.65 14.68 35.3 13.36 37 12 C24.13 9.03 11.26 6.06 -2 3 C-1.34 2.01 -0.68 1.02 0 0 Z " fill="#C341C5" transform="translate(647,350)"/>
<path d="M0 0 C5.74744858 -0.07426628 11.4946166 -0.12865726 17.24243164 -0.16479492 C19.19690823 -0.17986301 21.15135112 -0.20032124 23.10571289 -0.22631836 C25.91821623 -0.26278865 28.73027174 -0.27974622 31.54296875 -0.29296875 C32.41398727 -0.30845261 33.2850058 -0.32393646 34.18241882 -0.33988953 C38.96559614 -0.34121051 42.1135736 -0.10586933 46 3 C48.57285964 5.98783701 49.03655204 7.35424728 48.8125 11.3125 C46.98162919 16.62906717 41.68842362 20.264453 37 23 C33.29655972 21.76551991 31.69749018 19.76665659 29 17 C28.34 16.67 27.68 16.34 27 16 C28 13 28 13 31 11 C27.36261882 9.67399816 23.73618826 8.67979916 19.9609375 7.8515625 C19.05085938 7.65046875 18.14078125 7.449375 17.203125 7.2421875 C15.3118566 6.82945213 13.41857202 6.42585335 11.5234375 6.03125 C10.6159375 5.82757813 9.7084375 5.62390625 8.7734375 5.4140625 C7.54246338 5.15036865 7.54246338 5.15036865 6.28662109 4.88134766 C3.4738663 3.79720877 1.98597239 2.23101346 0 0 Z " fill="#C83DC3" transform="translate(273,337)"/>
<path d="M0 0 C3.89835017 1.29945006 6.60392154 2.59019603 9 6 C8.86249688 13.01265914 6.24108451 21.34522065 2 27 C1.01 27.33 0.02 27.66 -1 28 C-1.66 27.34 -2.32 26.68 -3 26 C-7.1012478 26.46871403 -11.04772249 27.83756544 -15 29 C-13.06047154 22.36164456 -10.36566154 16.55554513 -6.9375 10.5625 C-6.49083984 9.76134766 -6.04417969 8.96019531 -5.58398438 8.13476562 C-2.28963562 2.28963562 -2.28963562 2.28963562 0 0 Z " fill="#A838C6" transform="translate(622,399)"/>
<path d="M0 0 C1.65 0 3.3 0 5 0 C3.4706835 3.98368298 1.67250957 7.78580405 -0.1875 11.625 C-3.46439573 18.46566067 -6.10299225 25.46344944 -8.5144043 32.65283203 C-10.02766171 37.00236358 -11.30460582 40.01309098 -15 43 C-15.53885831 35.96218391 -13.80178129 31.22014084 -10.875 24.875 C-10.05073299 23.02476108 -9.22651442 21.17450058 -8.40234375 19.32421875 C-7.99483887 18.42364746 -7.58733398 17.52307617 -7.16748047 16.59521484 C-5.54120217 12.98012946 -3.98635914 9.33624544 -2.4375 5.6875 C-1.625 3.79166667 -0.8125 1.89583333 0 0 Z " fill="#B25FD0" transform="translate(573,378)"/>
<path d="M0 0 C0.99 0 1.98 0 3 0 C4.70389112 7.43935173 6.39957312 14.88053456 8.08496857 22.32409763 C8.86792954 25.78087197 9.65364056 29.23697154 10.44580078 32.69165039 C11.35764905 36.66886623 12.25723375 40.64877005 13.15625 44.62890625 C13.44060913 45.86145645 13.72496826 47.09400665 14.01794434 48.36390686 C15.28489199 54.01386887 16.38672146 59.20289664 16 65 C14.22684609 61.81094774 13.36801905 58.77734079 12.57958984 55.22167969 C12.31947113 54.0607782 12.05935242 52.89987671 11.79135132 51.70379639 C11.38029648 49.8317453 11.38029648 49.8317453 10.9609375 47.921875 C10.67521881 46.64016418 10.38950012 45.35845337 10.09512329 44.03790283 C9.33754826 40.63920386 8.58629576 37.23913774 7.83636475 33.83874512 C7.06921299 30.36560485 6.29607146 26.89379901 5.5234375 23.421875 C4.00977012 16.61587518 2.50277994 9.80841183 1 3 C-5.09663892 12.84805716 -5.09663892 12.84805716 -11 22.8125 C-11.5775 23.80894531 -12.155 24.80539062 -12.75 25.83203125 C-13.1625 26.54746094 -13.575 27.26289062 -14 28 C-15 25 -15 25 -13.78417969 22.36450195 C-9.94158342 15.91399786 -9.94158342 15.91399786 -8.83154297 14.0925293 C-7.75307504 12.31756097 -6.69803385 10.53010626 -5.64453125 8.74023438 C-4.97292969 7.62583984 -4.30132812 6.51144531 -3.609375 5.36328125 C-2.6807666 3.82087769 -2.6807666 3.82087769 -1.73339844 2.24731445 C-1.16137695 1.50570068 -0.58935547 0.76408691 0 0 Z " fill="#9661D2" transform="translate(209,495)"/>
<path d="M0 0 C3.92032589 2.61355059 3.81486524 4.2252439 4.82421875 8.7578125 C4.97534622 9.42086395 5.12647369 10.08391541 5.28218079 10.76705933 C5.7619622 12.88400698 6.22488933 15.00424095 6.6875 17.125 C7.00996419 18.56144609 7.33351889 19.99764784 7.65820312 21.43359375 C8.45356916 24.95273245 9.226037 28.47581779 10 32 C10.33 23.42 10.66 14.84 11 6 C11.33 6 11.66 6 12 6 C12.33 17.55 12.66 29.1 13 41 C15.31 41 17.62 41 20 41 C19.01 41.495 19.01 41.495 18 42 C18 42.66 18 43.32 18 44 C18.66 44.33 19.32 44.66 20 45 C12.25 44.25 12.25 44.25 10 42 C9.2676808 39.42814257 8.63265335 36.89590022 8.0546875 34.2890625 C7.87994904 33.52451752 7.70521057 32.75997253 7.525177 31.97225952 C7.15700393 30.35404306 6.7924218 28.73500605 6.43115234 27.11523438 C5.87831259 24.63983249 5.31314815 22.16749232 4.74609375 19.6953125 C4.38988794 18.12256259 4.0343956 16.54965087 3.6796875 14.9765625 C3.42661331 13.86856796 3.42661331 13.86856796 3.16842651 12.7381897 C2.42349334 9.37498457 2 6.46641744 2 3 C1.01 3.33 0.02 3.66 -1 4 C-0.67 2.68 -0.34 1.36 0 0 Z " fill="#E2A6E1" transform="translate(218,134)"/>
<path d="M0 0 C0.66 0.33 1.32 0.66 2 1 C1.23816406 1.82242187 0.47632813 2.64484375 -0.30859375 3.4921875 C-12.43164751 16.50188635 -12.43164751 16.50188635 -24 30 C-25.65 29.67 -27.3 29.34 -29 29 C-25.98572992 22.28373803 -19.80738165 17.76235361 -14.33203125 13.04296875 C-9.47324981 8.78644832 -4.74959354 4.37754205 0 0 Z " fill="#C568D0" transform="translate(434,342)"/>
<path d="M0 0 C2.4375 2.3125 2.4375 2.3125 4 5 C4 6.32 4 7.64 4 9 C3.31035156 8.9278125 2.62070312 8.855625 1.91015625 8.78125 C-4.09588659 8.18806058 -9.9657 7.90107705 -16 8 C-11.47380746 1.06231143 -8.85077848 -2.37074424 0 0 Z " fill="#DE43C1" transform="translate(641,297)"/>
<path d="M0 0 C0.66 0.33 1.32 0.66 2 1 C3.19271989 6.84511733 3.32015998 12.80197077 3.5625 18.75 C3.6049585 19.74974854 3.64741699 20.74949707 3.69116211 21.77954102 C4.061585 31.19364864 4.07302831 40.57934843 4 50 C10.6 50 17.2 50 24 50 C24 50.33 24 50.66 24 51 C19.05 51 14.1 51 9 51 C9 51.66 9 52.32 9 53 C9.66 53.33 10.32 53.66 11 54 C8.03 53.67 5.06 53.34 2 53 C-1.42857143 43.42857143 -1.42857143 43.42857143 -1 39 C0.41898766 41.64877696 1.31911019 44.08014819 2 47 C1.87953929 42.71725367 1.75521829 38.43463981 1.62768555 34.15209961 C1.58501985 32.7025844 1.5433154 31.2530405 1.50268555 29.8034668 C1.22278108 19.8478523 0.73588569 9.93310248 0 0 Z " fill="#9B7CCA" transform="translate(570,553)"/>
<path d="M0 0 C0.33 0 0.66 0 1 0 C1.33 4.29 1.66 8.58 2 13 C12.395 13.99 12.395 13.99 23 15 C23 15.33 23 15.66 23 16 C20.36 16 17.72 16 15 16 C15.33 16.99 15.66 17.98 16 19 C9.90673051 18.44606641 4.76123315 17.07044316 -1 15 C-1.66 11.37 -2.32 7.74 -3 4 C-2.34 4.66 -1.68 5.32 -1 6 C-0.67 4.02 -0.34 2.04 0 0 Z " fill="#916AC6" transform="translate(228,557)"/>
<path d="M0 0 C0.66 0 1.32 0 2 0 C0.5897565 3.10531451 -1.11174913 5.46589672 -3.3125 8.0625 C-10.42878688 16.82298313 -16.51829481 26.3554162 -22.82421875 35.70458984 C-24.60843199 38.3471466 -26.3978485 40.98612457 -28.1875 43.625 C-29.01640747 44.86044556 -29.01640747 44.86044556 -29.86206055 46.12084961 C-30.37551025 46.87760986 -30.88895996 47.63437012 -31.41796875 48.4140625 C-31.86938232 49.0838916 -32.3207959 49.7537207 -32.78588867 50.44384766 C-34 52 -34 52 -36 53 C-34.41982603 48.33089838 -31.87691933 44.67508165 -29.0625 40.6875 C-28.06885781 39.2618251 -27.07537279 37.83604064 -26.08203125 36.41015625 C-25.57236816 35.68199707 -25.06270508 34.95383789 -24.53759766 34.20361328 C-22.55982375 31.36915991 -20.60438283 28.51974598 -18.65063477 25.66870117 C-16.84189029 23.02951693 -15.02719634 20.39445565 -13.21191406 17.75976562 C-12.11637163 16.16897798 -11.02290572 14.57676078 -9.9296875 12.984375 C-6.81163029 8.47601522 -3.7180073 4.03669364 0 0 Z " fill="#975DD3" transform="translate(206,482)"/>
<path d="M0 0 C0.33 0 0.66 0 1 0 C1.33 9.24 1.66 18.48 2 28 C15.86 28.495 15.86 28.495 30 29 C30 29.33 30 29.66 30 30 C23.73 30 17.46 30 11 30 C11.33 30.99 11.66 31.98 12 33 C6.98916329 32.49042339 3.78769313 31.91507725 -1 30 C-0.67 20.1 -0.34 10.2 0 0 Z " fill="#856BB7" transform="translate(704,589)"/>
<path d="M0 0 C0.33 0 0.66 0 1 0 C1.33 10.56 1.66 21.12 2 32 C11.57 32 21.14 32 31 32 C31 32.33 31 32.66 31 33 C23.41 33.33 15.82 33.66 8 34 C8.66 34.66 9.32 35.32 10 36 C2.375 35.125 2.375 35.125 -1 34 C-1.33 31.69 -1.66 29.38 -2 27 C-1.67 27 -1.34 27 -1 27 C-0.67 18.09 -0.34 9.18 0 0 Z " fill="#D383D8" transform="translate(266,304)"/>
<path d="M0 0 C0.33 0 0.66 0 1 0 C1 9.24 1 18.48 1 28 C3.64 28 6.28 28 9 28 C9 28.33 9 28.66 9 29 C6.03 29.33 3.06 29.66 0 30 C-1.62024624 26.2241218 -2.69946995 22.50128145 -3.625 18.5 C-3.88539063 17.3965625 -4.14578125 16.293125 -4.4140625 15.15625 C-4.93712797 12.33867066 -5.11711891 9.85344248 -5 7 C-5.99 7.33 -6.98 7.66 -8 8 C-7.67 7.01 -7.34 6.02 -7 5 C-6.01 5.33 -5.02 5.66 -4 6 C-2.62410242 10.26358386 -1.89644425 14.60315439 -1 19 C-0.67 12.73 -0.34 6.46 0 0 Z " fill="#E0AAE3" transform="translate(485,137)"/>
<path d="M0 0 C0.66 0.33 1.32 0.66 2 1 C0.73347137 2.46207343 -0.53838918 3.91952926 -1.8125 5.375 C-2.52019531 6.18710937 -3.22789062 6.99921875 -3.95703125 7.8359375 C-6.13143042 10.13922075 -7.78899833 11.88422546 -11.04296875 12.1953125 C-11.75066406 12.17210937 -12.45835937 12.14890625 -13.1875 12.125 C-15.0746875 12.063125 -15.0746875 12.063125 -17 12 C-14.49120644 9.22846117 -11.66439214 7.40673866 -8.5 5.4375 C-5.64387954 3.65242471 -2.80261279 1.86840852 0 0 Z " fill="#A356CF" transform="translate(290,422)"/>
<path d="M0 0 C0.66 0.33 1.32 0.66 2 1 C1.3503125 1.556875 0.700625 2.11375 0.03125 2.6875 C-4.74213638 6.83404035 -4.74213638 6.83404035 -7.73828125 12.23828125 C-7.86197631 15.69523258 -7.2219243 17.71149842 -5.125 20.4375 C-1.51588337 23.09126222 0.20364528 23.02519991 4.625 22.5625 C5.62789063 22.46066406 6.63078125 22.35882813 7.6640625 22.25390625 C8.82035156 22.12822266 8.82035156 22.12822266 10 22 C8.36425762 23.9691421 7.46896036 24.9104233 4.9140625 25.3984375 C-3.36566084 25.31366218 -3.36566084 25.31366218 -7 22 C-8.99409753 18.47709436 -10 15.99740681 -10 11.9375 C-8.20997422 6.67929928 -4.56553384 3.04368923 0 0 Z " fill="#E3A7E1" transform="translate(504,135)"/>
<path d="M0 0 C0.66 0 1.32 0 2 0 C2.54555287 6.54663442 1.8277608 11.52378747 -2 17 C-2.66 17.33 -3.32 17.66 -4 18 C-4.51137226 11.09647445 -2.86964374 6.25172386 0 0 Z " fill="#AB5BD0" transform="translate(562,403)"/>
<path d="M0 0 C2.06351784 3.68485329 2.76673875 6.68358564 4 11 C10.93 11 17.86 11 25 11 C25 11.33 25 11.66 25 12 C20.05 12 15.1 12 10 12 C10 12.66 10 13.32 10 14 C10.66 14.33 11.32 14.66 12 15 C9.03 14.67 6.06 14.34 3 14 C-0.42857143 4.42857143 -0.42857143 4.42857143 0 0 Z " fill="#9073BE" transform="translate(569,592)"/>
<path d="M0 0 C0.66 0.33 1.32 0.66 2 1 C0.68 2.32 -0.64 3.64 -2 5 C2.62 5.66 7.24 6.32 12 7 C12.33 6.34 12.66 5.68 13 5 C13 6.32 13 7.64 13 9 C12.31035156 8.9278125 11.62070312 8.855625 10.91015625 8.78125 C4.90411341 8.18806058 -0.9657 7.90107705 -7 8 C-6.21366078 6.85050412 -5.42073742 5.70551011 -4.625 4.5625 C-4.18414063 3.92441406 -3.74328125 3.28632813 -3.2890625 2.62890625 C-2 1 -2 1 0 0 Z " fill="#CD73CF" transform="translate(632,297)"/>
<path d="M0 0 C-1.37263363 3.05160609 -2.95956573 5.24826932 -5.2578125 7.671875 C-5.88300781 8.33574219 -6.50820313 8.99960937 -7.15234375 9.68359375 C-7.80332031 10.36550781 -8.45429688 11.04742187 -9.125 11.75 C-9.78371094 12.44738281 -10.44242187 13.14476562 -11.12109375 13.86328125 C-12.74327774 15.57950489 -14.36965379 17.29153435 -16 19 C-16 12.64617534 -8.89039792 6.79876665 -4.625 2.375 C-2 0 -2 0 0 0 Z " fill="#B27DDA" transform="translate(368,416)"/>
<path d="M0 0 C-1.28519565 2.86697492 -2.57129254 4.97607712 -5 7 C-5.66 7 -6.32 7 -7 7 C-7.73030908 13.21324498 -8.23180249 18.84098757 -7 25 C-10.37315029 21.12712374 -10.45340241 18.44639312 -10.28515625 13.46484375 C-9.70015704 8.40820675 -5.89225017 0 0 0 Z " fill="#8C60C8" transform="translate(79,538)"/>
<path d="M0 0 C0.66 0 1.32 0 2 0 C1.40716379 3.39192363 0.23256811 5.2107757 -2.0625 7.75 C-2.61035156 8.36359375 -3.15820312 8.9771875 -3.72265625 9.609375 C-4.14417969 10.06828125 -4.56570313 10.5271875 -5 11 C-6.65 10.67 -8.3 10.34 -10 10 C-10 9.34 -10 8.68 -10 8 C-8.33333333 7 -6.66666667 6 -5 5 C-4.113125 4.113125 -3.22625 3.22625 -2.3125 2.3125 C-1.549375 1.549375 -0.78625 0.78625 0 0 Z " fill="#BD48C7" transform="translate(415,361)"/>
<path d="M0 0 C0.66 0.33 1.32 0.66 2 1 C-2.95 7.435 -2.95 7.435 -8 14 C-9 10 -9 10 -7.9375 7.5625 C-5.58718602 4.45402022 -3.07291983 2.39004875 0 0 Z " fill="#E168CC" transform="translate(744,258)"/>
<path d="M0 0 C-1.44424635 3.23861303 -3.25772247 5.61969163 -5.625 8.25 C-6.25664062 8.95640625 -6.88828125 9.6628125 -7.5390625 10.390625 C-8.02117187 10.92171875 -8.50328125 11.4528125 -9 12 C-9.33 11.34 -9.66 10.68 -10 10 C-10.66 9.67 -11.32 9.34 -12 9 C-10.38050958 7.49405319 -8.75424026 5.99539332 -7.125 4.5 C-6.22007812 3.6646875 -5.31515625 2.829375 -4.3828125 1.96875 C-2 0 -2 0 0 0 Z " fill="#E085D6" transform="translate(380,230)"/>
<path d="M0 0 C0.99 0.33 1.98 0.66 3 1 C2.50628906 1.42410156 2.01257813 1.84820312 1.50390625 2.28515625 C-2.83399832 6.25326172 -2.83399832 6.25326172 -4.875 11.6875 C-4.91625 12.780625 -4.9575 13.87375 -5 15 C-5.30903983 16.33917261 -5.62942911 17.67653254 -6 19 C-7.67617373 14.67723617 -8.26879943 12.91708041 -6.9375 8.375 C-4.97878972 4.96305306 -2.92527057 2.6090251 0 0 Z " fill="#D25FCB" transform="translate(288,305)"/>
<path d="M0 0 C0.66 0 1.32 0 2 0 C0.84826645 2.46800047 -0.04783565 4.04783565 -2 6 C-2.28103071 8.07354839 -2.28103071 8.07354839 -2.1875 10.375 C-2.18105469 11.14585937 -2.17460938 11.91671875 -2.16796875 12.7109375 C-2.00595151 14.91889344 -1.60634894 16.87535332 -1 19 C-3.89741846 16.22855626 -4.91688506 14.8643954 -5.3125 10.75 C-4.92818998 6.13827971 -3.27407436 3.27407436 0 0 Z " fill="#866BB5" transform="translate(650,602)"/>
<path d="M0 0 C0.66 0.33 1.32 0.66 2 1 C1.01 1.825 0.02 2.65 -1 3.5 C-2.86569068 5.35252109 -3.88279291 6.4488099 -4.43359375 9.0390625 C-4.43995882 12.43800842 -4.07680649 15.76958054 -3 19 C-5.58355457 17.09041619 -6.03701613 15.8598675 -6.875 12.6875 C-7.01924006 8.43241811 -6.32570766 6.5286599 -4 3 C-1.8125 1.125 -1.8125 1.125 0 0 Z " fill="#E4A7E2" transform="translate(433,149)"/>
<path d="M0 0 C5.61 0 11.22 0 17 0 C17 0.33 17 0.66 17 1 C14.36 1 11.72 1 9 1 C9.33 1.99 9.66 2.98 10 4 C7.36 3.67 4.72 3.34 2 3 C2 2.34 2 1.68 2 1 C1.34 0.67 0.68 0.34 0 0 Z " fill="#7945B5" transform="translate(234,572)"/>
<path d="M0 0 C0.93779297 0.00322266 1.87558594 0.00644531 2.84179688 0.00976562 C4.30649414 0.02233398 4.30649414 0.02233398 5.80078125 0.03515625 C7.28288086 0.04192383 7.28288086 0.04192383 8.79492188 0.04882812 C11.23443599 0.06061322 13.67382814 0.07706614 16.11328125 0.09765625 C16.11328125 0.42765625 16.11328125 0.75765625 16.11328125 1.09765625 C9.84328125 1.09765625 3.57328125 1.09765625 -2.88671875 1.09765625 C-2.55671875 2.08765625 -2.22671875 3.07765625 -1.88671875 4.09765625 C-3.20671875 4.09765625 -4.52671875 4.09765625 -5.88671875 4.09765625 C-5.88671875 3.43765625 -5.88671875 2.77765625 -5.88671875 2.09765625 C-6.54671875 1.76765625 -7.20671875 1.43765625 -7.88671875 1.09765625 C-4.94539984 0.11721661 -3.0617021 -0.01855577 0 0 Z " fill="#64419F" transform="translate(717.88671875,617.90234375)"/>
<path d="M0 0 C0.33 0.66 0.66 1.32 1 2 C1.66 2.33 2.32 2.66 3 3 C1.68 3.99 0.36 4.98 -1 6 C-1 5.34 -1 4.68 -1 4 C-1.54269531 4.5053125 -2.08539063 5.010625 -2.64453125 5.53125 C-3.35996094 6.1809375 -4.07539063 6.830625 -4.8125 7.5 C-5.52019531 8.1496875 -6.22789062 8.799375 -6.95703125 9.46875 C-9 11 -9 11 -12 11 C-10.75323147 9.72599623 -9.5024352 8.45593346 -8.25 7.1875 C-7.55390625 6.47980469 -6.8578125 5.77210938 -6.140625 5.04296875 C-4.18571355 3.17724121 -2.19661447 1.56830358 0 0 Z " fill="#C56DD2" transform="translate(418,357)"/>
<path d="M0 0 C-1.11462882 2.50791484 -2.21757549 4.24394828 -4.0625 6.3125 C-6.40639436 9.5637083 -6.69033018 12.05170974 -7 16 C-7.33 16 -7.66 16 -8 16 C-8.49537762 11.9544161 -8.85201741 8.45158521 -6.734375 4.84375 C-2.64497951 0 -2.64497951 0 0 0 Z " fill="#784FB0" transform="translate(721,589)"/>
<path d="M0 0 C5.28 0.66 10.56 1.32 16 2 C16 2.33 16 2.66 16 3 C11.71 3 7.42 3 3 3 C2.67 3.66 2.34 4.32 2 5 C1.34 4.34 0.68 3.68 0 3 C0 2.01 0 1.02 0 0 Z " fill="#7555AB" transform="translate(661,613)"/>
<path d="M0 0 C0.66 0 1.32 0 2 0 C2 2.97 2 5.94 2 9 C0.68 9.33 -0.64 9.66 -2 10 C-1.34 6.7 -0.68 3.4 0 0 Z " fill="#AB48CA" transform="translate(562,403)"/>
<path d="M0 0 C1.23556641 0.01740234 1.23556641 0.01740234 2.49609375 0.03515625 C3.32238281 0.04417969 4.14867187 0.05320312 5 0.0625 C5.63808594 0.07410156 6.27617188 0.08570313 6.93359375 0.09765625 C7.26359375 1.08765625 7.59359375 2.07765625 7.93359375 3.09765625 C0.50502232 3.38337054 0.50502232 3.38337054 -3.06640625 1.09765625 C-2.06640625 0.09765625 -2.06640625 0.09765625 0 0 Z " fill="#C349C7" transform="translate(648.06640625,350.90234375)"/>
<path d="M0 0 C-0.680625 0.350625 -1.36125 0.70125 -2.0625 1.0625 C-5.883658 3.58283826 -8.85719915 6.69417202 -12 10 C-12 6.45459812 -11.40614728 5.93992636 -9.125 3.375 C-8.59132813 2.76398438 -8.05765625 2.15296875 -7.5078125 1.5234375 C-4.82472742 -1.18745157 -3.50434383 -1.05130315 0 0 Z " fill="#E5ABE3" transform="translate(482,134)"/>
<path d="M0 0 C0.74636719 0.0825 1.49273438 0.165 2.26171875 0.25 C1.53984375 0.806875 0.81796875 1.36375 0.07421875 1.9375 C-2.71285424 4.22909334 -5.22469653 6.66459857 -7.73828125 9.25 C-8.39828125 8.92 -9.05828125 8.59 -9.73828125 8.25 C-8.69428379 6.90213008 -7.62726059 5.57207271 -6.55078125 4.25 C-5.95910156 3.5075 -5.36742187 2.765 -4.7578125 2 C-2.73828125 0.25 -2.73828125 0.25 0 0 Z " fill="#7F55B5" transform="translate(698.73828125,584.75)"/>
<path d="M0 0 C0.66 0.33 1.32 0.66 2 1 C-1.3 4.3 -4.6 7.6 -8 11 C-8.66 10.67 -9.32 10.34 -10 10 C-3.84965831 2.51708428 -3.84965831 2.51708428 0 0 Z " fill="#3B3848" transform="translate(603,368)"/>
<path d="M0 0 C0.66 0.33 1.32 0.66 2 1 C0.02 3.31 -1.96 5.62 -4 8 C-4.33 7.34 -4.66 6.68 -5 6 C-5.66 5.67 -6.32 5.34 -7 5 C-4.69 3.35 -2.38 1.7 0 0 Z " fill="#B085DD" transform="translate(290,422)"/>
<path d="M0 0 C0.66 0.66 1.32 1.32 2 2 C1.54545455 7.45454545 1.54545455 7.45454545 -1 10 C-1 9.34 -1 8.68 -1 8 C-1.66 8 -2.32 8 -3 8 C-1.125 2.25 -1.125 2.25 0 0 Z " fill="#B56CD4" transform="translate(569,388)"/>
<path d="M0 0 C0.66 0.33 1.32 0.66 2 1 C-0.97 4.96 -0.97 4.96 -4 9 C-4.66 7.68 -5.32 6.36 -6 5 C-4.02 3.35 -2.04 1.7 0 0 Z " fill="#E5C3EB" transform="translate(564,89)"/>
<path d="M0 0 C0.66 0 1.32 0 2 0 C0.61811547 3.21043882 -0.92421903 5.04936365 -3.625 7.25 C-4.57246094 8.03117188 -4.57246094 8.03117188 -5.5390625 8.828125 C-6.02117188 9.21484375 -6.50328125 9.6015625 -7 10 C-5.15014033 6.06048404 -2.92434659 3.21678125 0 0 Z " fill="#8755C3" transform="translate(558,550)"/>
<path d="M0 0 C0.66 0.33 1.32 0.66 2 1 C-1.33562767 5.51290803 -3.33289301 7.68206814 -9 9 C-6 6 -3 3 0 0 Z " fill="#E4CAEE" transform="translate(335,72)"/>
<path d="M0 0 C0.33 0 0.66 0 1 0 C1 4.62 1 9.24 1 14 C-0.64350079 10.71299843 -1.41321669 8.52069985 -2 5 C-1.67 5 -1.34 5 -1 5 C-0.67 3.35 -0.34 1.7 0 0 Z " fill="#6826AF" transform="translate(227,553)"/>
<path d="M0 0 C0.66 0.99 1.32 1.98 2 3 C-0.31 5.31 -2.62 7.62 -5 10 C-5 6.60406522 -4.47834052 5.93380119 -2.5 3.3125 C-2.0359375 2.68988281 -1.571875 2.06726563 -1.09375 1.42578125 C-0.7328125 0.95527344 -0.371875 0.48476563 0 0 Z " fill="#C29EE3" transform="translate(357,425)"/>
<path d="M0 0 C0.99 0.33 1.98 0.66 3 1 C4.47666292 4.49029418 4.07164685 8.27436386 4 12 C1.78600697 8.20458337 0.99019802 4.24370579 0 0 Z " fill="#8768BA" transform="translate(697,595)"/>
<path d="M0 0 C-1.49097658 3.7952131 -3.75700849 5.61042731 -7 8 C-6.44414399 4.1090079 -4.34122117 0 0 0 Z " fill="#7845B4" transform="translate(594,571)"/>
<path d="M0 0 C0.0825 0.598125 0.165 1.19625 0.25 1.8125 C1.20455872 4.5966296 2.57132271 5.43311142 5 7 C2.36 7 -0.28 7 -3 7 C-2.01 4.69 -1.02 2.38 0 0 Z " fill="#C363CE" transform="translate(217,325)"/>
<path d="M0 0 C-1.52708963 3.43595166 -3.59927045 6.11912454 -6 9 C-5.38983051 3.50847458 -5.38983051 3.50847458 -3.5625 1.125 C-2 0 -2 0 0 0 Z " fill="#6E46A7" transform="translate(652,602)"/>
<path d="M0 0 C2.64 0 5.28 0 8 0 C8 0.66 8 1.32 8 2 C8.66 2.33 9.32 2.66 10 3 C2.25 2.25 2.25 2.25 0 0 Z " fill="#E498DB" transform="translate(486,166)"/>
<path d="M0 0 C0.66 0.33 1.32 0.66 2 1 C-1.465 3.97 -1.465 3.97 -5 7 C-5 6.01 -5 5.02 -5 4 C-2.5 1.8125 -2.5 1.8125 0 0 Z " fill="#8359B9" transform="translate(484,578)"/>
<path d="M0 0 C-1.39332574 3.36720387 -2.9789286 4.9859524 -6 7 C-5.37162381 3.35541809 -4.14650034 0 0 0 Z " fill="#7D3AC0" transform="translate(79,538)"/>
<path d="M0 0 C0.66 0.33 1.32 0.66 2 1 C0.02 3.31 -1.96 5.62 -4 8 C-4.66 7.34 -5.32 6.68 -6 6 C-4.02 4.02 -2.04 2.04 0 0 Z " fill="#D69BE0" transform="translate(434,342)"/>
<path d="M0 0 C0.66 0.33 1.32 0.66 2 1 C0.35 2.65 -1.3 4.3 -3 6 C-3.99 5.67 -4.98 5.34 -6 5 C-4.02 3.35 -2.04 1.7 0 0 Z " fill="#E08ED9" transform="translate(744,258)"/>
<path d="" fill="#DBC9F0" transform="translate(0,0)"/>
<path d="" fill="#DCCAF0" transform="translate(0,0)"/>
<path d="" fill="#EEC4EB" transform="translate(0,0)"/>
<path d="" fill="#E2D1F0" transform="translate(0,0)"/>
<path d="" fill="#E5C5EC" transform="translate(0,0)"/>
<path d="" fill="#E2C5EC" transform="translate(0,0)"/>
<path d="" fill="#DFD0F0" transform="translate(0,0)"/>
</svg>
