<?xml version="1.0" encoding="UTF-8"?>
<svg version="1.1" xmlns="http://www.w3.org/2000/svg" width="800" height="800">
<path d="M0 0 C264 0 528 0 800 0 C800 264 800 528 800 800 C536 800 272 800 0 800 C0 536 0 272 0 0 Z " fill="#FEFEFE" transform="translate(0,0)"/>
<path d="M0 0 C4.01913278 3.22423763 6.42858352 7.11995891 8 12 C10.84911408 43.59164734 -10.11830031 76.04651386 -29.3984375 99.44458008 C-31.55369606 102.00581016 -33.76474106 104.50806061 -36 107 C-36.91845703 108.02673828 -36.91845703 108.02673828 -37.85546875 109.07421875 C-42.6094386 114.09919876 -48.17790374 118.28274119 -54 122 C-54.66 122 -55.32 122 -56 122 C-61.25987027 138.57656084 -64.0693697 153.58627717 -64 171 C-63.764021 170.43192627 -63.52804199 169.86385254 -63.28491211 169.27856445 C-44.50786165 124.26733107 -44.50786165 124.26733107 -24.8125 113.8125 C-17.083706 110.7543441 -6.9020232 110.21811428 0.8203125 113.40234375 C6.79333538 116.40353092 10.27172375 120.9124719 13.03515625 126.8984375 C17.63222465 141.67605819 11.73050165 155.5579689 6.11328125 169.14477539 C4.44815728 173.30708975 3.58958409 176.7615556 3.625 181.3125 C3.61726563 182.31925781 3.60953125 183.32601562 3.6015625 184.36328125 C3.80457625 187.00341075 3.80457625 187.00341075 5.26953125 188.8515625 C8.09352508 190.72572544 10.23296948 190.19001683 13.4765625 189.69140625 C27.83067293 185.75846887 38.62359843 172.24394759 46 160 C47.65907361 156.74642751 48.85378194 153.46335715 50 150 C55.99427556 132.94921007 63.33964572 112.23583609 80.0234375 102.86328125 C82.88018664 101.61557066 84.9138455 101.62210353 88 102 C90.875 103.5 90.875 103.5 93 106 C94.04279063 111.40355147 93.04223637 114.33052107 90.36328125 119.0703125 C89.82034424 120.03751221 89.27740723 121.00471191 88.71801758 122.0012207 C88.15107178 122.99081787 87.58412598 123.98041504 87 125 C86.20082153 126.39641724 86.20082153 126.39641724 85.38549805 127.82104492 C84.30973637 129.69343669 83.23240651 131.56492828 82.15356445 133.43554688 C69.01762787 155.7744399 69.01762787 155.7744399 66 181 C67.20467642 184.67743329 67.89931872 186.28779446 71.125 188.375 C79.19995302 190.13042457 84.7031978 188.92777172 92.01171875 184.953125 C102.19493993 178.29742488 111.78155161 167.32730215 114.625 155.3125 C114.93244141 153.83136719 114.93244141 153.83136719 115.24609375 152.3203125 C118.43399634 138.28032698 124.40813755 122.905271 134 112 C137.00950175 110.49524912 138.60858868 110.57607359 142 111 C145.54495732 112.69471485 148.89017438 114.59295983 152 117 C153 120 153 120 151.55859375 123.23046875 C150.858249 124.55304158 150.15071931 125.87182531 149.4375 127.1875 C140.69934379 143.98336646 136.57759161 159.08549095 137 178 C141.83523461 179.61174487 145.77359081 179.95619159 150.46484375 177.94140625 C161.91461626 171.43144314 174.15604707 158.51975526 179 146 C179.47763004 143.75817579 179.91092759 141.50668913 180.3125 139.25 C181.85851157 131.77631593 184.18253956 127.04590318 189.3125 121.5 C194.63193225 118.53101456 200.26650689 119.9968426 206 121 C203.69896914 146.40525909 194.27803572 171.04294634 186 195 C188.04885799 193.93075046 190.09363073 192.85367126 192.13671875 191.7734375 C193.27584717 191.17450684 194.41497559 190.57557617 195.58862305 189.95849609 C211.96730549 180.55537646 220.88241161 166.45997154 229 150 C230.32 150.66 231.64 151.32 233 152 C232.74918662 164.79148232 223.74462087 176.29946966 215 185 C207.2982192 192.21164509 191.88993696 206 181 206 C180.67 207.155 180.34 208.31 180 209.5 C177.48044553 217.02334256 173.6916347 224.00017289 170 231 C169.63567871 231.6914209 169.27135742 232.3828418 168.89599609 233.09521484 C160.23012673 249.37968383 150.42326195 265.85891268 132 272 C125.1720157 272.73979936 119.63149571 272.10473465 114 268 C109.70270454 263.80960244 107.82536284 260.48006011 107.625 254.5 C107.73954414 244.91265581 112.14054121 238.0297844 118.62109375 231.203125 C129.81395063 220.83732651 146.04381175 211.38839012 160.625 206.87890625 C161.40875 206.58886719 162.1925 206.29882812 163 206 C164.07920794 202.6026742 164.07920794 202.6026742 164.44921875 199.94140625 C165.13141391 196.29819381 166.23626983 192.83213498 167.375 189.3125 C169.73618034 181.91495356 171.90843595 174.47821784 174 167 C172.9171875 168.3303125 172.9171875 168.3303125 171.8125 169.6875 C152.62579458 191.86787577 152.62579458 191.86787577 139.43359375 193.2734375 C131.15075738 193.55421161 124.63934302 192.16995067 118.33984375 186.5078125 C115.79159972 183.64010931 114.17548402 180.63331423 113 177 C110.41598451 179.48065487 108.06468942 182.08466235 105.75 184.8125 C97.13757605 194.60595255 86.61090934 202.31350648 73.171875 203.2734375 C58.70411025 203.74377459 58.70411025 203.74377459 53.57421875 199.59375 C53.05472656 199.0678125 52.53523438 198.541875 52 198 C51.42894531 197.4534375 50.85789062 196.906875 50.26953125 196.34375 C45.2353154 190.69968853 44.64787211 184.32765699 44 177 C43.45472656 177.6290625 42.90945313 178.258125 42.34765625 178.90625 C32.37024232 190.2310412 22.00747601 200.71213109 6.23828125 202.2734375 C-1.24822065 202.53331607 -6.85889352 201.45781642 -13 197 C-17.64875014 192.06763911 -18.44558447 186.56867293 -18.4296875 180.04296875 C-18.05213113 174.73375459 -16.4758534 169.6716511 -15.0625 164.5625 C-10.43072763 149.73831044 -10.43072763 149.73831044 -13 135 C-15.56400777 132.43599223 -16.68782015 132.67366366 -20.25 132.625 C-25.36558892 132.74505293 -28.15109047 133.41961904 -32 137 C-36.6180705 142.49499141 -40.09865932 148.45040745 -43.375 154.8125 C-43.84977783 155.72467285 -44.32455566 156.6368457 -44.8137207 157.57666016 C-47.88591555 163.57186891 -50.64066111 169.64036399 -53.1875 175.875 C-55.6201818 181.82863605 -58.16378817 187.66272228 -61.125 193.375 C-61.72570312 194.53773438 -62.32640625 195.70046875 -62.9453125 196.8984375 C-65.66735407 201.00737477 -68.50931398 204.27858771 -73.4140625 205.69921875 C-77.52900966 205.67740808 -79.33378299 205.64868498 -82.375 202.6875 C-86.94943572 193.72661907 -87.58179107 183.87838332 -88 174 C-88.4125 174.61746094 -88.825 175.23492187 -89.25 175.87109375 C-97.35469046 187.75676704 -104.77323508 197.04407885 -119.20703125 200.48828125 C-126.89459561 201.89677206 -132.7972354 201.55576725 -139.7265625 197.67578125 C-144.17186094 194.39909219 -147.18361652 190.35482587 -148.5 184.9453125 C-148.99373182 176.76787926 -145.69647645 167.6239701 -142.91796875 160.05078125 C-141.801771 156.3412049 -141.43353238 152.71881029 -141.1875 148.875 C-141.12369141 148.17246094 -141.05988281 147.46992188 -140.99414062 146.74609375 C-140.78421426 143.61789523 -140.79906253 141.4057893 -142.203125 138.5703125 C-145.64034799 135.56647849 -149.60382951 135.76203066 -154 136 C-177.1152118 140.85491909 -191.62935434 170.54455603 -203.32788086 188.3828125 C-205.25015897 191.39154682 -207.0537213 194.46007942 -208.79541016 197.57666016 C-210 199 -210 199 -213.8125 199.75 C-219.20793386 199.19714719 -224.17952744 196.82047256 -228 193 C-227.74889902 190.65639085 -227.41434251 188.32031805 -227 186 C-227 185.34 -227 184.68 -227 184 C-227.52207031 184.49628906 -228.04414063 184.99257813 -228.58203125 185.50390625 C-244.92792005 200.59021693 -263.145402 207.9658474 -285.328125 207.35546875 C-290.80892814 207.05352315 -295.26580872 205.80146989 -300 203 C-301.051875 202.443125 -302.10375 201.88625 -303.1875 201.3125 C-310.82305501 195.03437699 -315.33742118 187.68376385 -316.3125 177.84765625 C-317.12965096 155.14618117 -305.36760495 135.87322642 -290.75390625 119.48046875 C-279.89880029 108.1222741 -264.84697025 97.1453094 -248.65258789 96.65722656 C-235.50436167 96.48086584 -235.50436167 96.48086584 -230.34375 100.6328125 C-226.21977271 104.82871963 -224.85178888 108.16722737 -224.75 114.0625 C-224.92626581 125.24069012 -228.95652668 132.46605386 -236 141 C-236.78503906 141.95712891 -236.78503906 141.95712891 -237.5859375 142.93359375 C-250.58822962 157.22291478 -273.37837646 166.60039517 -292.26953125 167.921875 C-293.12611328 167.96054687 -293.12611328 167.96054687 -294 168 C-293.75788298 179.63806943 -293.75788298 179.63806943 -289 190 C-284.16337244 194.11149599 -280.45660628 194.64866149 -274.375 194.5 C-273.18076416 194.48078491 -273.18076416 194.48078491 -271.96240234 194.46118164 C-254.02573798 193.85024007 -240.00348976 183.51837422 -228 171 C-219.0675538 161.2753121 -212.48411153 151.47457184 -211.72265625 137.9453125 C-211.0589858 127.18693018 -211.0589858 127.18693018 -207.8984375 123.64453125 C-203.09446796 120.58943884 -198.73247423 119.10078836 -193 120 C-189.13834634 121.11558883 -188.28502851 121.57245724 -186 125 C-184.71778627 133.32606319 -187.18920999 141.91611605 -189 150 C-188.443125 149.29875 -187.88625 148.5975 -187.3125 147.875 C-176.62353775 134.58601991 -162.07883636 117.54117439 -144.0390625 115.56640625 C-136.56967523 115.21006055 -130.25246512 115.55113059 -124 120 C-121.75 122.25 -121.75 122.25 -120 125 C-119.62875 125.51820313 -119.2575 126.03640625 -118.875 126.5703125 C-114.51180183 133.56960956 -114.76521345 142.27436556 -116.45996094 150.1328125 C-118.03968686 156.15603091 -120.10138405 161.95351697 -122.60546875 167.65625 C-124.61653084 172.47829244 -125.1390514 176.55098175 -125.125 181.75 C-125.12757813 182.71421875 -125.13015625 183.6784375 -125.1328125 184.671875 C-125.26139398 186.96050141 -125.26139398 186.96050141 -124 188 C-118.68936823 188.83242046 -114.14234159 188.57685443 -109.5 185.75 C-103.70174889 181.39364202 -99.34841583 175.73288903 -95 170 C-94.25105469 169.04867187 -93.50210938 168.09734375 -92.73046875 167.1171875 C-87.98043394 160.64867999 -85.79131236 154.60023646 -84.1015625 146.83203125 C-74.32424611 102.30252526 -54.01978094 53.27764321 -26 17 C-25.04867187 15.69095703 -25.04867187 15.69095703 -24.078125 14.35546875 C-18.25278439 6.58446438 -10.56974208 -2.46627315 0 0 Z " fill="#0E0A1C" transform="translate(526,264)"/>
<path d="M0 0 C0.66 0 1.32 0 2 0 C2.34611328 1.54264526 2.34611328 1.54264526 2.69921875 3.11645508 C8.07939858 27.08997299 13.50522402 51.05248273 19 75 C19.61513458 75.13923386 20.23026917 75.27846771 20.86404419 75.42192078 C27.38790449 76.898597 33.91173384 78.37540989 40.43554688 79.85229492 C42.85578667 80.40018007 45.27603381 80.94803274 47.69628906 81.49584961 C63.13254797 84.9898244 78.56751332 88.48939929 94 92 C92.74070334 95.77788997 91.64799092 96.06183096 88.234375 97.9765625 C87.21263184 98.55680176 86.19088867 99.13704102 85.13818359 99.73486328 C83.46103271 100.67048096 83.46103271 100.67048096 81.75 101.625 C79.99256318 102.62153058 78.23514711 103.61809914 76.47872925 104.61642456 C75.24537567 105.31711746 74.01141451 106.01674184 72.77688599 106.71536255 C66.23754772 110.41864184 59.74987331 114.20865003 53.26916504 118.0133667 C51.41319027 119.10258718 49.55582749 120.18940794 47.69824219 121.27587891 C42.85147338 124.11572505 38.0201991 126.96213372 33.2890625 129.9921875 C30 132 30 132 28 132 C29.14474682 151.01861886 30.78251429 169.96015119 32.67871094 188.91748047 C32.76569244 189.7987561 32.85267395 190.68003174 32.94229126 191.5880127 C33.10558165 193.24041458 33.27169618 194.89254096 33.44125366 196.54431152 C33.88588452 201.05588365 34.07737558 205.46639192 34 210 C28.46971604 206.02397291 23.42025384 201.76690252 18.5 197.0625 C17.18443594 195.81942059 15.86803918 194.57722182 14.55078125 193.3359375 C13.62386475 192.46146973 13.62386475 192.46146973 12.67822266 191.56933594 C10.13665641 189.19267201 7.5230083 186.90701583 4.88671875 184.63671875 C2.56341213 182.62126228 0.28251535 180.56151538 -2 178.5 C-5.65696928 175.20089927 -9.32610627 171.9200176 -13.0625 168.7109375 C-14.42978478 167.50353682 -15.76040602 166.25399561 -17.0625 164.9765625 C-17.743125 164.32429687 -18.42375 163.67203125 -19.125 163 C-19.72570312 162.401875 -20.32640625 161.80375 -20.9453125 161.1875 C-23.91242105 159.4726692 -25.70394113 160.27208995 -29 161 C-30.81366243 161.65450385 -32.60513248 162.37314773 -34.37182617 163.14550781 C-35.39696823 163.58977112 -36.42211029 164.03403442 -37.47831726 164.49176025 C-38.57215225 164.97401062 -39.66598724 165.45626099 -40.79296875 165.953125 C-41.93478104 166.45036072 -43.07659332 166.94759644 -44.25300598 167.4598999 C-47.28403222 168.78145098 -50.31238708 170.1088909 -53.33959961 171.43914795 C-56.38618085 172.77597685 -59.43648542 174.10422246 -62.48632812 175.43359375 C-76.71728735 181.64188128 -76.71728735 181.64188128 -90.83638 188.09906006 C-93 189 -93 189 -95 189 C-90.85671063 175.91592831 -85.05643858 163.43952249 -79.5793457 150.87158203 C-78.43409779 148.24218882 -77.29220237 145.61135561 -76.15039062 142.98046875 C-75.41166272 141.28376516 -74.6727373 139.58714756 -73.93359375 137.890625 C-73.59806992 137.11648254 -73.26254608 136.34234009 -72.91685486 135.54473877 C-71.00739704 131.17376727 -68.97845428 126.90984208 -66.74357605 122.69493103 C-65.83161209 120.9057948 -65.83161209 120.9057948 -65.9296875 118.36328125 C-67.41501083 115.08364398 -69.63801232 112.72693158 -72.125 110.1875 C-73.13609338 109.12173534 -74.14651085 108.05532904 -75.15625 106.98828125 C-75.64738281 106.47475098 -76.13851562 105.9612207 -76.64453125 105.43212891 C-78.35655706 103.62327743 -79.99732766 101.75987528 -81.625 99.875 C-86.4184553 94.35111342 -91.32630135 88.92811634 -96.2578125 83.52734375 C-103.16065437 75.93902804 -109.59490948 68.00865992 -116 60 C-102.76876404 60.61772184 -89.61885147 61.71129115 -76.4375 63 C-63.63178651 64.24955795 -50.85180747 65.35661598 -38 66 C-37.53811279 64.58050049 -37.53811279 64.58050049 -37.06689453 63.13232422 C-35.78691277 59.37439149 -34.03709621 56.39516035 -32 53 C-31.34 53 -30.68 53 -30 53 C-29.67 51.35 -29.34 49.7 -29 48 C-28.34 48 -27.68 48 -27 48 C-26.7215625 46.6078125 -26.7215625 46.6078125 -26.4375 45.1875 C-25.45174914 41.74251058 -23.89872978 39.09868595 -21.9296875 36.11328125 C-19.15799524 31.83480859 -16.47892654 27.51410978 -13.88671875 23.125 C-13.54227219 22.54208694 -13.19782562 21.95917389 -12.84294128 21.3585968 C-11.78972424 19.5732204 -10.73843927 17.78671798 -9.6875 16 C-8.61452003 14.17846865 -7.5409884 12.35726718 -6.46650696 10.53662109 C-5.50474693 8.90661031 -4.54467979 7.27560101 -3.5847168 5.64453125 C-2.4390348 3.73264904 -1.23635704 1.85453555 0 0 Z " fill="#FEFDFE" transform="translate(209,497)"/>
<path d="M0 0 C3.69659637 0.88299265 4.86294184 2.30003238 6.9296875 5.4609375 C8.00874944 9.41541883 8.4589598 13.39514239 8.9296875 17.4609375 C9.10242188 18.66878906 9.27515625 19.87664062 9.453125 21.12109375 C10.48088707 28.32287579 11.23606455 35.49297329 11.68359375 42.75390625 C11.84842728 45.34107678 11.84842728 45.34107678 12.3984375 47.328125 C13.22284629 50.6378838 13.50639844 54.01319269 13.8671875 57.3984375 C13.95145996 58.17171387 14.03573242 58.94499023 14.12255859 59.74169922 C15.15058879 69.30561043 16.04180887 78.88318292 16.9296875 88.4609375 C28.70746265 90.01864325 40.49685881 91.43036549 52.30859375 92.703125 C53.31440491 92.81153214 54.32021606 92.91993927 55.35650635 93.03163147 C60.45148394 93.57929686 65.54697812 94.12170829 70.64306641 94.65893555 C86.68161935 96.35927326 86.68161935 96.35927326 94.57421875 97.42578125 C95.53303955 97.55460693 96.49186035 97.68343262 97.47973633 97.81616211 C100.24762551 98.54461207 101.82404161 99.54060764 103.9296875 101.4609375 C104.71484375 103.51171875 104.71484375 103.51171875 104.9921875 105.7734375 C105.10691406 106.51207031 105.22164062 107.25070312 105.33984375 108.01171875 C104.36333647 113.84286225 99.34376157 117.02273032 94.83203125 120.265625 C92.84994932 121.63143635 90.86136534 122.98784843 88.8671875 124.3359375 C87.8244165 125.05064209 86.78164551 125.76534668 85.70727539 126.50170898 C79.91752063 130.46192841 74.1080662 134.39344121 68.24609375 138.24609375 C65.27707829 140.22893446 62.33372368 142.24288902 59.39453125 144.26953125 C58.39494385 144.95716553 57.39535645 145.6447998 56.36547852 146.35327148 C54.34645793 147.74357257 52.32995638 149.13753993 50.31616211 150.53540039 C49.39198486 151.17082764 48.46780762 151.80625488 47.515625 152.4609375 C46.6807959 153.0384375 45.8459668 153.6159375 44.98583984 154.2109375 C42.9296875 155.4609375 42.9296875 155.4609375 40.9296875 155.4609375 C42.02937178 163.23521169 43.13244186 171.00900022 44.23779297 178.7824707 C44.61314886 181.423281 44.98726984 184.06425778 45.36083984 186.70532227 C45.89999599 190.5160779 46.44193051 194.32642998 46.984375 198.13671875 C47.14904266 199.30487625 47.31371033 200.47303375 47.48336792 201.67658997 C48.36682583 207.86204637 49.35014823 214.00932429 50.52433777 220.14660645 C51.74022547 227.08867759 52.44372858 234.80244857 48.8046875 241.0859375 C45.65069838 245.2703492 41.89362953 247.80629016 36.9296875 249.4609375 C29.28053104 250.1091711 24.49316343 248.43545831 18.58984375 243.5078125 C16.89830181 241.97927855 15.22045697 240.43548656 13.5546875 238.87890625 C10.11027504 235.70615132 6.48612543 232.78942181 2.84765625 229.84375 C-0.32448577 227.25337968 -3.45076914 224.61413604 -6.5703125 221.9609375 C-11.54016547 217.73667277 -16.55580174 213.57602249 -21.6328125 209.48046875 C-23.81875532 207.66935907 -25.87550842 205.77637883 -27.9453125 203.8359375 C-30.71388571 201.19157311 -30.71388571 201.19157311 -33.29785156 201.61181641 C-36.84484649 202.69815388 -40.18350395 204.14065411 -43.5546875 205.671875 C-44.27981033 205.9962001 -45.00493317 206.32052521 -45.75202942 206.65467834 C-48.11020798 207.71051806 -50.4651997 208.77327956 -52.8203125 209.8359375 C-54.44236242 210.56317168 -56.06467863 211.28981223 -57.68725586 212.01586914 C-60.94123221 213.47217677 -64.19431697 214.93044676 -67.44677734 216.39013672 C-73.83060371 219.25246677 -80.22949031 222.08001283 -86.6328125 224.8984375 C-88.17243652 225.5788208 -88.17243652 225.5788208 -89.74316406 226.27294922 C-91.14453613 226.89000732 -91.14453613 226.89000732 -92.57421875 227.51953125 C-93.37674072 227.87329834 -94.1792627 228.22706543 -95.00610352 228.59155273 C-101.21344019 231.20590234 -106.55482926 231.33162858 -112.7578125 228.8359375 C-118.39005569 226.07313318 -120.90980666 222.62187941 -123.8828125 217.0859375 C-125.88852907 210.96322376 -125.7450565 206.69230344 -123.32983398 200.85131836 C-122.96671112 199.9718454 -122.60358826 199.09237244 -122.22946167 198.18624878 C-120.35560492 193.78056652 -118.43279421 189.39877359 -116.48046875 185.02734375 C-115.84086464 183.58946754 -115.84086464 183.58946754 -115.18833923 182.12254333 C-113.83824282 179.0887272 -112.48552179 176.05608935 -111.1328125 173.0234375 C-110.22965586 170.99421265 -109.32665978 168.96491634 -108.42382812 166.93554688 C-107.54701813 164.9660821 -106.67006956 162.99667902 -105.79296875 161.02734375 C-105.19428734 159.68308067 -105.19428734 159.68308067 -104.58351135 158.31166077 C-104.00282143 157.00992165 -104.00282143 157.00992165 -103.41040039 155.68188477 C-103.03408478 154.83208038 -102.65776917 153.982276 -102.27005005 153.10671997 C-101.41658928 151.22458205 -100.5329505 149.35600289 -99.62911987 147.49752808 C-99.16168365 146.52502106 -98.69424744 145.55251404 -98.21264648 144.55053711 C-97.77959702 143.67135117 -97.34654755 142.79216522 -96.90037537 141.88633728 C-95.97281276 139.17604842 -96.01220859 138.08356854 -97.0703125 135.4609375 C-98.73612242 133.06076246 -98.73612242 133.06076246 -100.8828125 130.5859375 C-101.69363281 129.61914062 -102.50445312 128.65234375 -103.33984375 127.65625 C-104.2487305 126.59006232 -105.15894059 125.52500166 -106.0703125 124.4609375 C-106.55032715 123.89987305 -107.0303418 123.33880859 -107.52490234 122.76074219 C-109.55573829 120.3895538 -111.58858974 118.02013803 -113.6262207 115.65478516 C-117.39675682 111.27188859 -121.06688252 106.81617559 -124.70703125 102.32421875 C-128.0366534 98.29014762 -131.46203516 94.33940091 -134.91015625 90.40625 C-140.45445591 84.01696349 -144.52755717 78.58571566 -144.4140625 69.875 C-143.60621506 64.20170778 -140.34160618 60.45254657 -135.9453125 57.0234375 C-126.16926522 51.71036833 -114.27373543 55.09615215 -103.78125 56.6484375 C-102.2262139 56.8732552 -100.67108723 57.09744719 -99.11587524 57.32104492 C-95.05443644 57.90666334 -90.99427144 58.50068504 -86.93432617 59.09655762 C-82.778578 59.70493958 -78.62166307 60.30523853 -74.46484375 60.90625 C-66.3321801 62.08330682 -58.20084623 63.26925751 -50.0703125 64.4609375 C-49.63089577 63.31266228 -49.63089577 63.31266228 -49.18260193 62.14118958 C-47.84473751 58.91737589 -46.07756677 56.29047191 -44.10546875 53.41015625 C-43.71610641 52.83867355 -43.32674408 52.26719086 -42.92558289 51.6783905 C-41.6658901 49.83190539 -40.39948632 47.99013893 -39.1328125 46.1484375 C-38.26359671 44.8773898 -37.39478302 43.60606704 -36.52636719 42.33447266 C-34.41823958 39.24997253 -32.30476559 36.16918713 -30.18902588 33.08990479 C-28.66113421 30.86512979 -27.13720791 28.63764844 -25.61328125 26.41015625 C-23.84686558 23.83063801 -22.0753446 21.25481537 -20.296875 18.68359375 C-18.8667841 16.61372534 -17.44423586 14.53861387 -16.03125 12.45703125 C-7.12281348 -0.56444937 -7.12281348 -0.56444937 0 0 Z M-4.0703125 15.4609375 C-5.52010912 17.62183944 -6.83869939 19.7709573 -8.1328125 22.0234375 C-8.94514253 23.40765184 -9.75764738 24.79176361 -10.5703125 26.17578125 C-10.98539062 26.88847168 -11.40046875 27.60116211 -11.828125 28.33544922 C-13.73682113 31.60139036 -15.68461028 34.84346616 -17.6328125 38.0859375 C-18.00027588 38.70138428 -18.36773926 39.31683105 -18.74633789 39.95092773 C-20.58849802 43.02984516 -22.45622589 46.08780548 -24.37890625 49.1171875 C-24.74749756 49.70161621 -25.11608887 50.28604492 -25.49584961 50.88818359 C-26.50416084 52.48141156 -27.52130807 54.06903773 -28.5390625 55.65625 C-30.00741194 58.34572677 -30.6724424 60.44375588 -31.0703125 63.4609375 C-31.7303125 63.4609375 -32.3903125 63.4609375 -33.0703125 63.4609375 C-33.4003125 65.1109375 -33.7303125 66.7609375 -34.0703125 68.4609375 C-34.7303125 68.4609375 -35.3903125 68.4609375 -36.0703125 68.4609375 C-37.07540051 70.24975486 -38.07423986 72.04208446 -39.0703125 73.8359375 C-39.6271875 74.83367187 -40.1840625 75.83140625 -40.7578125 76.859375 C-42.22045518 79.27289259 -42.22045518 79.27289259 -42.0703125 81.4609375 C-60.70553246 80.28518369 -79.27143678 78.64459087 -97.84912109 76.78222656 C-98.73101105 76.69524506 -99.612901 76.60826355 -100.52151489 76.51864624 C-102.17327689 76.35567354 -103.82473688 76.18959501 -105.47579956 76.01968384 C-110.36626934 75.53970896 -115.15598442 75.38905795 -120.0703125 75.4609375 C-116.09428777 80.99121819 -111.8372275 86.04070008 -107.1328125 90.9609375 C-105.88842655 92.27779938 -104.64492542 93.59549798 -103.40234375 94.9140625 C-102.8192041 95.53216797 -102.23606445 96.15027344 -101.63525391 96.78710938 C-99.28151411 99.30461952 -97.02157429 101.89634047 -94.7734375 104.5078125 C-92.57665345 107.02706026 -90.32341631 109.49196746 -88.0703125 111.9609375 C-84.56169615 115.80978332 -81.07317491 119.67010484 -77.6796875 123.62109375 C-76.57419971 124.88489168 -75.43645997 126.12097089 -74.2734375 127.33203125 C-70.10634652 131.77629113 -70.10634652 131.77629113 -69.9453125 134.8359375 C-70.9002108 137.06403354 -71.8773933 139.27909325 -72.86523438 141.49267578 C-76.38963238 149.41540951 -79.82532441 157.37684868 -83.27001953 165.33447266 C-84.13557558 167.33243475 -85.00243399 169.32983315 -85.87060547 171.32666016 C-87.1382053 174.24247576 -88.40154951 177.16010385 -89.6640625 180.078125 C-90.04647095 180.95556366 -90.42887939 181.83300232 -90.82287598 182.73703003 C-93.89786401 189.86406962 -96.61572871 197.09718614 -99.0703125 204.4609375 C-93.52552472 202.75339879 -88.29026084 200.46086346 -82.984375 198.13671875 C-81.52250259 197.49998482 -81.52250259 197.49998482 -80.03109741 196.85038757 C-76.91811372 195.49380955 -73.80669917 194.13367378 -70.6953125 192.7734375 C-68.64202886 191.87802179 -66.58864436 190.98283731 -64.53515625 190.08789062 C-63.53135925 189.65000214 -62.52756226 189.21211365 -61.49334717 188.76095581 C-59.49688492 187.89061425 -57.49985987 187.0215625 -55.5022583 186.15383911 C-51.04927039 184.21616242 -46.60906095 182.26076478 -42.20214844 180.22021484 C-41.46878265 179.8850737 -40.73541687 179.54993256 -39.97982788 179.20463562 C-38.64665111 178.59337798 -37.31820153 177.97164392 -35.9960022 177.33699036 C-32.29406201 175.65139442 -29.93945097 175.04324109 -26.0703125 176.4609375 C-23.82907821 178.28032615 -21.80807356 180.07433212 -19.7578125 182.0859375 C-18.59965816 183.18953697 -17.44080694 184.29240558 -16.28125 185.39453125 C-15.72663086 185.92675293 -15.17201172 186.45897461 -14.60058594 187.00732422 C-12.73967185 188.77501447 -10.8255504 190.47133927 -8.8828125 192.1484375 C-5.91304461 194.71806824 -2.98520179 197.32913305 -0.0703125 199.9609375 C3.54447791 203.22306543 7.18750655 206.44752779 10.86328125 209.640625 C13.26783194 211.75881143 15.62691454 213.9240138 17.9921875 216.0859375 C21.80417503 219.53263411 25.67031827 222.59049302 29.9296875 225.4609375 C29.23993318 211.68286812 28.00132485 197.98450795 26.65917969 184.2565918 C25.46577563 171.99816231 24.50410808 159.7646862 23.9296875 147.4609375 C24.65373779 147.18797852 25.37778809 146.91501953 26.1237793 146.63378906 C28.8479452 145.49510526 31.28222438 144.19290622 33.82421875 142.6953125 C34.7680542 142.14182129 35.71188965 141.58833008 36.68432617 141.01806641 C37.69342041 140.42171387 38.70251465 139.82536133 39.7421875 139.2109375 C41.90095119 137.94255433 44.05980809 136.67432979 46.21875 135.40625 C47.32637695 134.75430664 48.43400391 134.10236328 49.57519531 133.43066406 C53.88727132 130.8986532 58.21144799 128.38776709 62.53588867 125.87695312 C67.34106163 123.08392969 72.13771885 120.27654727 76.9296875 117.4609375 C77.69104004 117.01395508 78.45239258 116.56697266 79.23681641 116.10644531 C81.14005064 114.98364842 83.03649994 113.85056798 84.9296875 112.7109375 C85.9196875 112.11796875 86.9096875 111.525 87.9296875 110.9140625 C88.5896875 110.43453125 89.2496875 109.955 89.9296875 109.4609375 C89.9296875 108.8009375 89.9296875 108.1409375 89.9296875 107.4609375 C89.18181473 107.29220627 88.43394196 107.12347504 87.66340637 106.94963074 C80.55948535 105.34682095 73.45563387 103.74370341 66.35185719 102.14025402 C62.70116147 101.31623775 59.05044049 100.4923338 55.3996582 99.66870117 C51.8658349 98.8714504 48.33208261 98.07388552 44.79837608 97.27611732 C43.46105071 96.97425836 42.12370126 96.67250602 40.78632545 96.37087059 C32.16167436 94.42554916 23.54266559 92.4573239 14.9296875 90.4609375 C10.95064611 73.09062168 6.97788702 55.71896355 3.0546875 38.3359375 C2.76907959 37.07064209 2.48347168 35.80534668 2.18920898 34.50170898 C0.75866507 28.15712876 -0.6637658 21.81088133 -2.0703125 15.4609375 C-2.7303125 15.4609375 -3.3903125 15.4609375 -4.0703125 15.4609375 Z " fill="#440F7C" transform="translate(213.0703125,481.5390625)"/>
<path d="M0 0 C0.66 0.00128906 1.32 0.00257813 2 0.00390625 C4.69701742 0.5886112 5.99576348 1.53623389 8 3.4375 C8.62182617 5.99926758 8.62182617 5.99926758 8.79296875 9.08203125 C8.86531738 10.22446289 8.93766602 11.36689453 9.01220703 12.54394531 C9.07005371 13.76694336 9.12790039 14.98994141 9.1875 16.25 C9.29747314 18.11736816 9.29747314 18.11736816 9.40966797 20.02246094 C9.62770475 23.82669295 9.81771655 27.63140176 10 31.4375 C10.05784668 32.58331543 10.11569336 33.72913086 10.17529297 34.90966797 C10.48564281 41.08443252 10.76044859 47.2595951 11 53.4375 C12.59485229 53.47508423 12.59485229 53.47508423 14.22192383 53.51342773 C18.21599716 53.60853083 22.20993753 53.70848799 26.20385742 53.80981445 C27.92322653 53.85277857 29.64262785 53.89447537 31.36206055 53.93481445 C57.09473646 54.5409054 57.09473646 54.5409054 62.1875 56.9375 C64.47260453 60.08936832 65.03602893 62.14946926 64.77734375 66.0234375 C63.07912187 71.2973125 58.26640642 74.22674944 54 77.4375 C52.66138256 78.46865165 51.32284533 79.49990742 49.984375 80.53125 C44.10720721 85.01706338 38.18965451 89.39115753 32 93.4375 C32.922456 102.10858637 33.98665324 110.68258812 35.625 119.25 C37.09305333 127.16283459 38.43074355 135.06578361 35.875 142.875 C33.19062533 146.54364538 30.11167834 149.38166083 26 151.4375 C18.91713781 152.44933746 13.35084135 152.34665547 7.4375 148.0625 C5.60055794 146.55003968 3.78901066 145.00636367 2 143.4375 C0.96811343 142.58457045 -0.06713698 141.73569651 -1.10546875 140.890625 C-9.22255501 134.24537337 -9.22255501 134.24537337 -11.99609375 131.36328125 C-13.81157025 129.37358296 -13.81157025 129.37358296 -17 127.4375 C-24.33437799 128.40455418 -31.75801511 132.96003089 -38.375 136.0625 C-40.50720186 137.05599908 -42.63998741 138.04824673 -44.7734375 139.0390625 C-45.70591309 139.47557129 -46.63838867 139.91208008 -47.59912109 140.36181641 C-53.04796999 142.80310461 -58.31688832 143.50241443 -64.12109375 141.82421875 C-69.67599496 139.36620203 -73.51629056 135.35508404 -77 130.4375 C-80.25326873 120.67769381 -76.92542602 112.54813222 -72.6875 103.6875 C-72.18798828 102.60339844 -71.68847656 101.51929688 -71.17382812 100.40234375 C-67.6250965 92.70324124 -67.6250965 92.70324124 -65.93994141 89.29101562 C-64.13930898 85.49913174 -63.82228809 83.44731952 -65 79.4375 C-66.2587178 77.40181129 -66.2587178 77.40181129 -67.9140625 75.546875 C-68.80411987 74.48847412 -68.80411987 74.48847412 -69.7121582 73.40869141 C-70.343396 72.67569824 -70.97463379 71.94270508 -71.625 71.1875 C-72.90307041 69.6698825 -74.18042162 68.15165901 -75.45703125 66.6328125 C-76.0701416 65.90868164 -76.68325195 65.18455078 -77.31494141 64.43847656 C-79.35744573 62.01303967 -81.35129705 59.55409116 -83.3125 57.0625 C-83.82425781 56.41539062 -84.33601563 55.76828125 -84.86328125 55.1015625 C-88.32998734 50.0265907 -87.31622214 43.51051178 -86.4375 37.75 C-84.33634253 32.90820234 -80.70753236 29.79126618 -76 27.4375 C-63.56910675 26.46252798 -50.75883987 28.34775482 -38.7421875 31.5390625 C-35.50112105 32.3171891 -33.26998813 32.80847998 -30 32.4375 C-28.17234138 30.9663608 -28.17234138 30.9663608 -26.73046875 28.8515625 C-26.15538574 28.0898877 -25.58030273 27.32821289 -24.98779297 26.54345703 C-24.39369629 25.72474121 -23.79959961 24.90602539 -23.1875 24.0625 C-21.94437638 22.40597531 -20.70088906 20.74972347 -19.45703125 19.09375 C-18.86229004 18.29066406 -18.26754883 17.48757813 -17.65478516 16.66015625 C-15.61241568 13.91690872 -13.51096046 11.23345621 -11.375 8.5625 C-10.52035156 7.48355469 -10.52035156 7.48355469 -9.6484375 6.3828125 C-4.13700413 -0.12120129 -4.13700413 -0.12120129 0 0 Z " fill="#3F0E75" transform="translate(563,549.5625)"/>
<path d="M0 0 C2.36497439 1.86708505 3.66030715 3.32061431 5 6 C6.62019982 21.21187604 6.53582139 36.71643412 7 52 C10.22455687 53.07485229 12.71669892 53.18813714 16.109375 53.28125 C17.33269531 53.31782715 18.55601562 53.3544043 19.81640625 53.39208984 C21.76353516 53.44550537 21.76353516 53.44550537 23.75 53.5 C26.39066993 53.58454549 29.03129612 53.67046927 31.671875 53.7578125 C33.57356445 53.8201709 33.57356445 53.8201709 35.51367188 53.88378906 C39.67800894 54.0226003 43.83843182 54.16775059 48 54.375 C49.0725 54.42398438 50.145 54.47296875 51.25 54.5234375 C54.42549196 55.07373582 56.40158883 56.1161519 59 58 C60.71479668 61.42959335 61.00442363 64.36133326 60 68 C57.23101357 71.62588504 53.60392241 74.25227328 50 77 C49.21189941 77.60956543 48.42379883 78.21913086 47.61181641 78.84716797 C43.20648707 82.24565859 38.77855556 85.61392397 34.31640625 88.9375 C33.55787354 89.50339844 32.79934082 90.06929688 32.01782227 90.65234375 C30 92 30 92 27 93 C27.176521 93.91177002 27.35304199 94.82354004 27.53491211 95.76293945 C28.1970827 99.19703758 28.85437262 102.63199981 29.50854492 106.06762695 C29.79082153 107.54487989 30.07495125 109.02178014 30.36108398 110.49829102 C35.49497619 137.01291117 35.49497619 137.01291117 31 144 C27.71222819 147.63598409 23.8644811 150.95761119 19 152 C8.6555794 152.13714194 2.10624931 146.52123029 -5.4375 140.125 C-7.577052 138.32429108 -9.72013189 136.52920265 -11.87841797 134.75097656 C-13.31339844 133.56666356 -14.7340863 132.36485213 -16.14111328 131.14746094 C-18.04652404 129.57503892 -19.8185799 128.16040588 -22 127 C-24.66647532 127.5374008 -24.66647532 127.5374008 -27 129 C-29.98046875 128.9765625 -29.98046875 128.9765625 -33.1875 128.625 C-47.24322389 127.31712435 -60.25784316 128.19346362 -73.57421875 133.29296875 C-76 134 -76 134 -79 133 C-81.97383903 127.71317506 -82.97309757 123.01984867 -82 117 C-80.91439369 113.58417812 -79.4655997 110.37341367 -77.96435547 107.12207031 C-76.28218968 103.42045385 -74.68544557 99.68156649 -73.07177734 95.94970703 C-71.0581611 91.29530588 -69.02907621 86.64767732 -67 82 C-68.11767322 80.57750681 -69.23542674 79.15507666 -70.35351562 77.73291016 C-71.33660635 76.48101584 -72.31835052 75.22806305 -73.29882812 73.97412109 C-75.86052523 70.70183858 -78.44025865 67.44887107 -81.07421875 64.234375 C-81.81031372 63.32582764 -81.81031372 63.32582764 -82.5612793 62.39892578 C-83.49321213 61.24986351 -84.43303251 60.10713564 -85.38208008 58.97216797 C-89.40613796 53.97652626 -92.45943827 48.45251116 -91.9375 41.875 C-90.3976878 35.5104429 -87.3424754 31.69863682 -82 28 C-72.3564509 24.78548363 -61.17317658 27.58400678 -51.5 29.5 C-49.0528192 29.97257667 -46.60492539 30.44147973 -44.15625 30.90625 C-43.09212891 31.11572266 -42.02800781 31.32519531 -40.93164062 31.54101562 C-38.18216388 31.97148001 -35.77014035 32.27605385 -33 32 C-31.23687177 30.01337664 -29.90937917 28.21883389 -28.5 26 C-27.63895135 24.72068959 -26.77282358 23.44478692 -25.90234375 22.171875 C-25.44069824 21.49576172 -24.97905273 20.81964844 -24.50341797 20.12304688 C-21.8477091 16.37279609 -18.96224021 12.8129095 -16.0625 9.25 C-15.50691406 8.5590625 -14.95132813 7.868125 -14.37890625 7.15625 C-13.85296875 6.51171875 -13.32703125 5.8671875 -12.78515625 5.203125 C-12.31988525 4.63239258 -11.85461426 4.06166016 -11.37524414 3.47363281 C-7.82987286 -0.32538388 -4.98147686 -0.52436598 0 0 Z " fill="#EE77D0" transform="translate(224,122)"/>
<path d="M0 0 C0.90298828 -0.01482422 1.80597656 -0.02964844 2.73632812 -0.04492188 C10.45426805 0.07398989 17.40444126 1.91448504 23.4375 6.875 C32.33577811 17.80717025 33.68292669 26.91623242 32.90625 40.88427734 C31.77204022 51.68486875 26.57133545 62.16986401 18.625 69.5625 C14.88855115 72.29160795 11.60265502 73.39098158 7.0625 74.1875 C2.42407631 73.34415024 -0.32443439 71.10425837 -3.375 67.5625 C-3.705 66.5725 -4.035 65.5825 -4.375 64.5625 C-3.8903125 64.13582031 -3.405625 63.70914063 -2.90625 63.26953125 C7.27751863 53.77120859 16.61645844 39.36523143 17.125 25.0625 C16.8993972 21.20218541 16.23519236 18.54557698 13.625 15.5625 C7.97829456 11.94707548 0.32618096 12.96289778 -6.02734375 13.9921875 C-29.54455088 20.1668837 -46.65936794 42.91421461 -58.48828125 62.79077148 C-59.7981852 65.04012818 -61.08949219 67.29912728 -62.375 69.5625 C-62.77170898 70.24892578 -63.16841797 70.93535156 -63.57714844 71.64257812 C-73.02463337 88.09846554 -80.26911082 106.02378824 -84.375 124.5625 C-84.67148438 125.73554688 -84.96796875 126.90859375 -85.2734375 128.1171875 C-89.84583585 148.29446829 -89.95858505 171.96706865 -79.70703125 190.45703125 C-75.03879972 197.83584882 -68.83774032 203.52292796 -60.3203125 206.2109375 C-50.59065141 207.96930999 -40.34216352 205.8777419 -32.125 200.4375 C-18.49444512 190.01285162 -10.15881944 174.70254411 -4.8125 158.6875 C-4.50948975 157.78362549 -4.20647949 156.87975098 -3.89428711 155.94848633 C-1.09761885 147.27995003 0.46889185 138.58014359 1.625 129.5625 C-13.64290221 127.28667666 -28.96153234 126.94944898 -44.375 126.5625 C-43.31280596 120.85570668 -41.34301089 115.84057853 -36.59375 112.1953125 C-28.05278744 107.23721135 -19.42066409 107.44179583 -10.09375 109.796875 C-2.28565161 111.94018096 5.18620755 114.35326715 12.625 117.5625 C15.09204462 118.33168284 17.57158588 119.06203324 20.0625 119.75 C21.91681641 120.26626953 21.91681641 120.26626953 23.80859375 120.79296875 C24.73800781 121.04691406 25.66742188 121.30085938 26.625 121.5625 C25.4255094 129.48944151 23.39323045 136.81698433 20.75 144.375 C20.02799612 146.49543017 19.30793017 148.61652123 18.58984375 150.73828125 C18.24808105 151.74584473 17.90631836 152.7534082 17.55419922 153.79150391 C11.73965151 171.13126125 9.14471118 187.3690813 9.4375 205.5625 C9.4526011 207.22394596 9.46627974 208.88540547 9.47851562 210.546875 C9.51102989 214.55242862 9.56249898 218.55730673 9.625 222.5625 C8.19357589 222.28350641 6.76427482 221.99360779 5.3359375 221.69921875 C4.53978027 221.53897217 3.74362305 221.37872559 2.92333984 221.21362305 C-1.96650175 219.82832376 -4.57094013 216.89335771 -7.1875 212.5625 C-9.21856186 207.19810721 -9.12782351 201.23051271 -9.375 195.5625 C-10.09042969 196.3359375 -10.80585938 197.109375 -11.54296875 197.90625 C-22.7697007 209.75435964 -36.69092853 220.06546575 -53.59765625 220.80078125 C-70.94305373 221.1985375 -84.37268986 216.8308267 -97.28125 204.80859375 C-111.91188891 189.11341208 -116.19299135 167.69425702 -115.65625 146.95703125 C-114.20915624 113.36636726 -100.85204672 80.71906799 -81.375 53.5625 C-80.70855469 52.59828125 -80.04210937 51.6340625 -79.35546875 50.640625 C-73.97543179 43.21598555 -67.82314205 36.69981449 -61.375 30.1875 C-60.54452148 29.34316406 -59.71404297 28.49882812 -58.85839844 27.62890625 C-53.42599399 22.23708996 -47.79850368 17.7181584 -41.375 13.5625 C-40.46379395 12.96381104 -40.46379395 12.96381104 -39.53417969 12.35302734 C-27.00408386 4.32254503 -14.93856924 0.17101392 0 0 Z " fill="#0D091C" transform="translate(178.375,262.4375)"/>
<path d="M0 0 C3.5 0.4375 3.5 0.4375 5.20043945 1.55004883 C7.14482794 4.37403293 6.83746382 6.67776206 6.79296875 10.07421875 C6.7784668 12.02231445 6.7784668 12.02231445 6.76367188 14.00976562 C6.73860585 15.38151639 6.71321101 16.75326118 6.6875 18.125 C6.6724502 19.50844924 6.6587623 20.89191401 6.64648438 22.27539062 C6.61107223 25.66315207 6.56168054 29.05013139 6.5 32.4375 C7.36278564 32.42178955 8.22557129 32.4060791 9.11450195 32.38989258 C12.31809267 32.33874045 15.52147515 32.3011384 18.7253418 32.27270508 C20.11147919 32.25762603 21.49756894 32.2371595 22.88354492 32.21118164 C24.87658146 32.17476284 26.86996723 32.15936982 28.86328125 32.14453125 C30.06251221 32.1288208 31.26174316 32.11311035 32.49731445 32.09692383 C35.5 32.4375 35.5 32.4375 37.38549805 33.77416992 C39.17473584 36.44450444 38.97360047 38.31173693 38.5 41.4375 C36.59375 43.78125 36.59375 43.78125 34 45.9375 C33.09636719 46.7109375 32.19273437 47.484375 31.26171875 48.28125 C28.84576352 50.16754037 26.39321418 51.79315114 23.8125 53.4375 C21.06732497 55.41805251 21.06732497 55.41805251 20.16015625 58.55859375 C20.49421649 62.16037048 21.47796652 65.36751131 22.5625 68.8125 C24.07989004 74.67974149 24.61442366 80.76288322 22.25 86.4375 C18.09314538 91.18819099 18.09314538 91.18819099 14.453125 91.7578125 C7.39149735 92.11326356 3.9983101 89.62120809 -1.13671875 85.1328125 C-2.58498047 83.89144531 -2.58498047 83.89144531 -4.0625 82.625 C-4.97128906 81.81417969 -5.88007812 81.00335937 -6.81640625 80.16796875 C-9.29666482 78.22190841 -9.29666482 78.22190841 -11.84765625 78.453125 C-16.16179487 80.05424861 -20.29961733 81.99761763 -24.44140625 83.99804688 C-28.96282592 86.07789992 -32.42082733 86.94106547 -37.5 86.4375 C-42.27585774 84.002749 -45.10117067 81.23515866 -47.5 76.4375 C-48.17842719 69.59423441 -46.43030484 65.2376086 -43.375 59.1875 C-42.58710447 57.62700789 -41.8129682 56.05947035 -41.0546875 54.484375 C-40.70905762 53.80213867 -40.36342773 53.11990234 -40.00732422 52.41699219 C-39.29151405 50.40276726 -39.29151405 50.40276726 -40.25830078 48.37792969 C-42.15126685 45.41975149 -44.31921754 42.6852859 -46.5 39.9375 C-53.5 31.1175 -53.5 31.1175 -53.5 25.5625 C-52.83501924 21.66030523 -51.53738719 19.1345084 -48.56640625 16.5 C-43.09083579 13.68458381 -36.05714166 14.87182612 -30.3125 16.4375 C-29.054375 16.7675 -27.79625 17.0975 -26.5 17.4375 C-25.80648437 17.63214844 -25.11296875 17.82679688 -24.3984375 18.02734375 C-21.60894882 18.4659736 -20.17041091 18.4415745 -17.5 17.4375 C-12.49999509 13.1481034 -8.54283648 7.49178967 -4.8984375 2.04296875 C-3.5 0.4375 -3.5 0.4375 0 0 Z " fill="#401076" transform="translate(698.5,585.5625)"/>
<path d="M0 0 C2.29070725 3.26803716 2.30347525 6.38945874 2.4140625 10.296875 C2.47207031 12.10478516 2.47207031 12.10478516 2.53125 13.94921875 C2.5621875 15.20347656 2.593125 16.45773438 2.625 17.75 C2.68300781 19.65458984 2.68300781 19.65458984 2.7421875 21.59765625 C2.83644222 24.7316257 2.92205166 27.86558949 3 31 C3.83249268 31.01981934 4.66498535 31.03963867 5.52270508 31.06005859 C8.614765 31.13820742 11.70643383 31.22490206 14.7980957 31.31738281 C16.7929536 31.37444092 18.7880854 31.42164442 20.78320312 31.46875 C22.03681641 31.50742188 23.29042969 31.54609375 24.58203125 31.5859375 C25.73936768 31.6173584 26.8967041 31.6487793 28.08911133 31.68115234 C31 32 31 32 34 34 C34.57421875 37.2734375 34.57421875 37.2734375 34 41 C31.94313942 43.24658564 30.21254799 44.84373461 27.8125 46.625 C25.53198182 48.40466859 23.26407432 50.19948484 21 52 C20.01 52.77730469 19.02 53.55460937 18 54.35546875 C15.60850288 56.93193045 15.60850288 56.93193045 16.16796875 60.63671875 C16.48277431 61.99303524 16.82392581 63.34343498 17.1875 64.6875 C17.51134689 66.11450619 17.82908131 67.54291361 18.140625 68.97265625 C18.29466797 69.66246582 18.44871094 70.35227539 18.60742188 71.06298828 C19.76256479 76.76255538 19.8592268 81.28154641 17.25 86.5 C14.0849997 90.016667 12.45633439 90.77155539 7.8125 91.5 C1.57805769 90.68236822 -2.64076208 86.98877907 -7.36328125 83.0078125 C-8.13027344 82.36585938 -8.89726562 81.72390625 -9.6875 81.0625 C-10.71423828 80.15177734 -10.71423828 80.15177734 -11.76171875 79.22265625 C-14.92788833 77.49314303 -16.56957985 78.02969342 -20 79 C-22.10919511 79.96626832 -24.19244996 80.99064819 -26.25 82.0625 C-31.99623201 84.78164058 -36.67701236 86.32874378 -43 85 C-46.83378636 83.18766463 -48.53351018 81.69973473 -50.875 78.1875 C-52.76410348 72.83504013 -52.50942619 68.67802168 -50.1796875 63.5546875 C-49.03744634 61.18662655 -47.85758393 58.84067512 -46.66796875 56.49609375 C-44.45175892 52.10787147 -44.45175892 52.10787147 -44.4453125 47.34375 C-46.86175633 43.70086985 -49.56502269 40.3387729 -52.3671875 36.9921875 C-55.42554479 33.19186187 -57.14702527 29.91748518 -58 25 C-57.42578125 22.63671875 -57.42578125 22.63671875 -56.3125 20.6875 C-55.95800781 20.03136719 -55.60351562 19.37523437 -55.23828125 18.69921875 C-54 17 -54 17 -51 15 C-40.88820914 13.8021417 -30.86683118 16.0148172 -21 18 C-20.72220703 17.41049561 -20.44441406 16.82099121 -20.15820312 16.21362305 C-18.35192041 12.76135378 -15.91285665 9.85818598 -13.5 6.8125 C-13.00113281 6.17119141 -12.50226563 5.52988281 -11.98828125 4.86914062 C-7.94793096 -0.25982952 -6.50351128 -1.76136764 0 0 Z " fill="#EF87D4" transform="translate(484,134)"/>
<path d="M0 0 C0.99 0.33 1.98 0.66 3 1 C3.75195312 2.74316406 3.75195312 2.74316406 4.28125 5.015625 C4.48210205 5.84884277 4.6829541 6.68206055 4.88989258 7.54052734 C5.09122803 8.43465332 5.29256348 9.3287793 5.5 10.25 C5.71358154 11.15572754 5.92716309 12.06145508 6.1472168 12.99462891 C6.575394 14.816446 6.99822693 16.63952797 7.41552734 18.46386719 C7.9195587 20.65095062 8.44527823 22.83016174 8.98828125 25.0078125 C10.24941984 30.15995216 11.14936561 34.67000623 11 40 C11.78117188 40.14695312 12.56234375 40.29390625 13.3671875 40.4453125 C26.32150088 42.95539104 39.15383822 45.99171237 52 49 C50.86002828 52.41991515 50.51004405 52.56619862 47.4921875 54.1640625 C46.75919434 54.55843506 46.02620117 54.95280762 45.27099609 55.35913086 C44.48031738 55.77686768 43.68963867 56.19460449 42.875 56.625 C41.67157959 57.29511108 41.67157959 57.29511108 40.44384766 57.97875977 C36.51349464 60.16491686 32.6013814 62.21128626 28.46875 63.98828125 C24.2801586 65.90373329 21.20719132 67.62668079 18 71 C15.9707384 77.13258088 17.12081146 83.74104527 18 90 C18.16993531 91.42815279 18.33802043 92.85652743 18.50390625 94.28515625 C18.82275379 96.79325615 19.17064995 99.29792642 19.5546875 101.796875 C20.08312076 105.59788617 20.15621436 109.17274827 20 113 C14.44446215 109.00812809 9.37680717 104.72769631 4.4375 100 C2.57569769 98.22906447 0.71095714 96.46289807 -1.17236328 94.71484375 C-2.39763556 93.56518939 -3.59935323 92.3899411 -4.77685547 91.19140625 C-5.3545166 90.63324219 -5.93217773 90.07507813 -6.52734375 89.5 C-7.27939087 88.74203125 -7.27939087 88.74203125 -8.04663086 87.96875 C-11.21031285 86.39975986 -13.62587868 87.24831506 -17 88 C-19.2524097 88.81814956 -21.47620385 89.71853932 -23.66796875 90.6875 C-24.27006668 90.95006592 -24.87216461 91.21263184 -25.49250793 91.4831543 C-27.39449399 92.3140569 -29.29115191 93.15631959 -31.1875 94 C-33.09534508 94.84171763 -35.00423388 95.68092738 -36.91462708 96.5168457 C-38.64081502 97.27321608 -40.36383528 98.03680366 -42.08666992 98.80078125 C-44.41242815 99.75813686 -46.54658377 100.49344982 -49 101 C-48.50212536 97.01700286 -47.01722174 93.96772855 -45.171875 90.4375 C-43.25117635 86.4424468 -41.78949124 82.27436666 -40.23828125 78.125 C-39.18655185 75.47079331 -38.03385701 73.0119311 -36.6875 70.5 C-34.67433256 66.3689287 -34.67433256 66.3689287 -35 62 C-36.79137433 59.70268743 -38.52168932 57.73555295 -40.5625 55.6875 C-41.67258902 54.5319355 -42.78196751 53.375688 -43.890625 52.21875 C-44.69790039 51.38730469 -44.69790039 51.38730469 -45.52148438 50.5390625 C-47.34623695 48.63958426 -49.0893902 46.6793517 -50.8125 44.6875 C-51.59753906 43.78064453 -51.59753906 43.78064453 -52.3984375 42.85546875 C-52.92695313 42.24316406 -53.45546875 41.63085938 -54 41 C-55.31158221 39.49919743 -56.6240741 37.99918933 -57.9375 36.5 C-58.95833333 35.33333333 -59.97916667 34.16666667 -61 33 C-56.6984143 31.74868338 -52.70566822 32.17359259 -48.296875 32.55859375 C-47.04019012 32.66059837 -47.04019012 32.66059837 -45.75811768 32.7646637 C-43.08819705 32.98279904 -40.41913971 33.21002742 -37.75 33.4375 C-35.93754949 33.58718899 -34.12504986 33.73628453 -32.3125 33.88476562 C-27.87440113 34.2496321 -23.43705454 34.62265426 -19 35 C-18.60252563 33.94135742 -18.60252563 33.94135742 -18.19702148 32.86132812 C-16.93364035 29.84137566 -15.45337031 27.07108164 -13.84765625 24.21875 C-13.23599609 23.12949219 -12.62433594 22.04023437 -11.99414062 20.91796875 C-11.35669922 19.79003906 -10.71925781 18.66210938 -10.0625 17.5 C-9.42892578 16.37207031 -8.79535156 15.24414062 -8.14257812 14.08203125 C-5.4818295 9.3536767 -2.8099166 4.64168761 0 0 Z " fill="#FCFCFD" transform="translate(560,565)"/>
<path d="M0 0 C0.66 0 1.32 0 2 0 C3.28452627 5.51693407 4.56620317 11.03451922 5.84521484 16.55273438 C6.28095 18.43084712 6.71747066 20.30877781 7.15478516 22.18652344 C7.78232901 24.88168909 8.4070681 27.57749154 9.03125 30.2734375 C9.22811401 31.11619232 9.42497803 31.95894714 9.62780762 32.82723999 C11 38.77225659 11 38.77225659 11 41 C12.12792969 41.23074219 13.25585938 41.46148437 14.41796875 41.69921875 C26.6711208 44.23008988 38.84298506 47.0433322 51 50 C49.63227648 54.10317057 47.73272588 54.56687423 43.98828125 56.65234375 C43.38243698 56.99374893 42.77659271 57.33515411 42.15238953 57.68690491 C40.2105061 58.77917243 38.26192604 59.85876147 36.3125 60.9375 C34.38231585 62.01497491 32.45364241 63.09506742 30.52616882 64.17738342 C28.76532582 65.16463862 27.00056027 66.14488801 25.2355957 67.12475586 C22.07879458 68.95433327 19.03587171 70.97608553 16 73 C16.99 86.53 17.98 100.06 19 114 C13.98208444 110.23656333 10.01716895 107.15976069 5.78125 102.7890625 C3.294425 100.29133038 0.65765824 97.99631943 -2.02734375 95.71484375 C-3.32898554 94.58331752 -4.59422694 93.40832887 -5.81640625 92.19140625 C-6.39261719 91.63324219 -6.96882813 91.07507813 -7.5625 90.5 C-8.05878906 89.9946875 -8.55507812 89.489375 -9.06640625 88.96875 C-12.16787107 87.4148848 -14.65415395 88.34931212 -18 89 C-20.46037112 89.91429133 -22.79543402 90.8586811 -25.17578125 91.94140625 C-26.1526313 92.3721067 -26.1526313 92.3721067 -27.1492157 92.81150818 C-29.20737904 93.72034992 -31.26013041 94.64065867 -33.3125 95.5625 C-35.38345603 96.48610265 -37.45546546 97.4071785 -39.52934265 98.32420349 C-41.39860943 99.15170942 -43.26446051 99.98691833 -45.13012695 100.82250977 C-48 102 -48 102 -50 102 C-47.23929169 93.11278833 -43.4825852 84.72484245 -39.67578125 76.2421875 C-39.18980469 75.12585938 -38.70382813 74.00953125 -38.203125 72.859375 C-37.75614258 71.85358398 -37.30916016 70.84779297 -36.84863281 69.81152344 C-35.89683708 66.65822088 -35.94471808 65.09529857 -37 62 C-38.81934779 59.75881605 -40.6135964 57.73787492 -42.625 55.6875 C-43.72460202 54.53186213 -44.82356338 53.37561432 -45.921875 52.21875 C-46.45361328 51.66445312 -46.98535156 51.11015625 -47.53320312 50.5390625 C-52.79536885 45.01764228 -57.52135635 39.16838832 -62 33 C-48.30771721 33.70693851 -34.65849728 34.81507922 -21 36 C-20.00019067 34.30617986 -19.00061031 32.61222429 -18.00195312 30.91772461 C-17.11732056 29.41677392 -16.23188902 27.91629387 -15.34570312 26.41625977 C-12.84725648 22.1771995 -10.38047837 17.92305899 -7.95703125 13.640625 C-7.46307861 12.77219971 -6.96912598 11.90377441 -6.46020508 11.0090332 C-5.49425541 9.30792171 -4.53434796 7.60336363 -3.58081055 5.89526367 C-3.14164307 5.1241626 -2.70247559 4.35306152 -2.25 3.55859375 C-1.86328125 2.87079834 -1.4765625 2.18300293 -1.078125 1.47436523 C-0.72234375 0.98782471 -0.3665625 0.50128418 0 0 Z " fill="#FEFEFE" transform="translate(218,136)"/>
<path d="M0 0 C3.25195605 1.02935932 5.67151653 2.87267814 8.48046875 4.78515625 C10.7064949 5.55455306 10.7064949 5.55455306 12.48046875 5.78515625 C12.48046875 6.77515625 12.48046875 7.76515625 12.48046875 8.78515625 C10.82855384 10.136723 9.15752783 11.46491825 7.48046875 12.78515625 C5.70254092 14.71933902 4.00681027 16.7131849 2.30078125 18.7109375 C0.5945205 20.65519599 -1.1724961 22.47539311 -3.01953125 24.28515625 C-5.38158389 26.6023003 -7.60143036 28.98300721 -9.7578125 31.4921875 C-13.46669219 35.75764412 -17.31687395 39.87283835 -21.20703125 43.97265625 C-26.08703894 49.13667363 -30.9558273 54.30921789 -35.76953125 59.53515625 C-36.48387329 60.31028564 -36.48387329 60.31028564 -37.21264648 61.10107422 C-39.69368075 63.79573547 -42.16988085 66.49478899 -44.64453125 69.1953125 C-61.51934514 87.58513764 -61.51934514 87.58513764 -67.26953125 88.16015625 C-70.54599966 88.12441296 -72.33450576 87.59074322 -74.89453125 85.53515625 C-78.59206082 81.66155384 -79.55866837 80.48228399 -79.43359375 75.05859375 C-78.73888449 69.99517697 -76.131573 67.55155242 -72.45703125 64.22265625 C-71.90853516 63.69736328 -71.36003906 63.17207031 -70.79492188 62.63085938 C-67.7995244 59.78818205 -64.70531294 57.06525207 -61.58984375 54.35546875 C-57.44481553 50.74817392 -53.44375708 47.0032529 -49.45703125 43.22265625 C-47.95857911 41.80703147 -46.45987647 40.3916718 -44.9609375 38.9765625 C-44.21602051 38.27289551 -43.47110352 37.56922852 -42.70361328 36.84423828 C-37.62060575 32.05214287 -32.50388463 27.29607569 -27.39306641 22.53369141 C-24.77153074 20.08706143 -22.15663806 17.63336809 -19.54101562 15.18041992 C-17.07029043 12.86888776 -14.58870074 10.56919515 -12.10693359 8.26953125 C-10.71494556 6.96788757 -9.34394202 5.64387761 -7.9765625 4.31640625 C-7.28949219 3.66671875 -6.60242188 3.01703125 -5.89453125 2.34765625 C-5.34539062 1.81269531 -4.79625 1.27773438 -4.23046875 0.7265625 C-2.51953125 -0.21484375 -2.51953125 -0.21484375 0 0 Z " fill="#7510BC" transform="translate(375.51953125,470.21484375)"/>
<path d="M0 0 C0.99 0.33 1.98 0.66 3 1 C3.12117187 1.88042969 3.24234375 2.76085937 3.3671875 3.66796875 C3.61855469 5.41013672 3.61855469 5.41013672 3.875 7.1875 C4.03742187 8.33605469 4.19984375 9.48460937 4.3671875 10.66796875 C4.94060245 13.68724625 5.74759043 16.20575848 7 19 C5.75605469 18.9278125 4.51210938 18.855625 3.23046875 18.78125 C-5.51875277 18.28819995 -14.23268508 17.82268352 -23 18 C-21.86111328 19.22976563 -21.86111328 19.22976563 -20.69921875 20.484375 C-19.69521546 21.57282716 -18.6913146 22.66137382 -17.6875 23.75 C-17.18798828 24.28882813 -16.68847656 24.82765625 -16.17382812 25.3828125 C-14.76811872 26.90954325 -13.38066671 28.45062602 -12 30 C-11.36707031 30.70640625 -10.73414063 31.4128125 -10.08203125 32.140625 C-9 34 -9 34 -9.08984375 35.953125 C-10.24743388 38.55646075 -11.79049302 40.51678572 -13.5625 42.75 C-22.48375435 54.74093327 -28.07956979 68.85089161 -32.625 83 C-33.70119029 86.30153292 -34.91027705 89.1834169 -37 92 C-37.66 92 -38.32 92 -39 92 C-39.3095362 86.57945724 -38.50140009 83.07638267 -36.19140625 78.18359375 C-35.90522934 77.56404312 -35.61905243 76.94449249 -35.32420349 76.3061676 C-34.41603843 74.34386886 -33.49074692 72.3903692 -32.5625 70.4375 C-31.63998195 68.48019724 -30.72155383 66.52125522 -29.81150818 64.55812073 C-28.98552885 62.77865044 -28.14656419 61.0052245 -27.30688477 59.23217773 C-26.02398835 56.05932781 -25.24061814 53.41150376 -25 50 C-26.49697934 47.54154612 -27.88547694 45.64179381 -29.75 43.5 C-30.76461351 42.27237553 -31.77892742 41.04450339 -32.79296875 39.81640625 C-33.32067871 39.19008301 -33.84838867 38.56375977 -34.39208984 37.91845703 C-37.00420602 34.80184469 -39.53543007 31.62313967 -42.0625 28.4375 C-42.52688477 27.86644531 -42.99126953 27.29539062 -43.46972656 26.70703125 C-47.83068611 21.2420723 -49.7164174 17.04477106 -49 10 C-41.78984999 -11.50754973 -16.94514524 -3.65323453 0 0 Z " fill="#C732C0" transform="translate(597,328)"/>
<path d="M0 0 C3.98734945 1.15019696 5.66011484 2.7382301 8.25 5.9375 C14.37313609 18.18377218 10.33318518 41.35144121 10.25 54.9375 C11.5596875 54.92589844 12.869375 54.91429687 14.21875 54.90234375 C24.56638693 54.83815008 34.90707832 54.91859848 45.25 55.25 C46.25740234 55.27247803 47.26480469 55.29495605 48.30273438 55.31811523 C53.62799307 55.516866 57.69896359 55.86700909 62.25 58.9375 C64.75925872 62.70138808 64.81275112 64.47841274 64.25 68.9375 C61.9140625 71.80859375 61.9140625 71.80859375 58.875 74.375 C58.11316406 75.04305664 58.11316406 75.04305664 57.3359375 75.72460938 C53.58509745 78.9375 53.58509745 78.9375 51.25 78.9375 C48.23863141 76.15777515 45.60802849 73.28838259 43.25 69.9375 C44.9 68.9475 46.55 67.9575 48.25 66.9375 C34.99681916 63.27401912 21.62837164 60.10702283 8.25 56.9375 C7.9826001 55.79684082 7.7152002 54.65618164 7.43969727 53.48095703 C6.44888827 49.25738102 5.45480365 45.03458172 4.4597168 40.81201172 C4.0291315 38.98279574 3.59944017 37.15336909 3.1706543 35.32373047 C2.55491118 32.69703438 1.93597888 30.07110757 1.31640625 27.4453125 C1.12470352 26.62443146 0.93300079 25.80355042 0.73548889 24.95779419 C-0.19412369 20.84077668 -0.19412369 20.84077668 -1.75 16.9375 C-2.17297363 17.67798584 -2.59594727 18.41847168 -3.03173828 19.18139648 C-4.62831606 21.97290136 -6.22777762 24.76272908 -7.82910156 27.55151367 C-8.51675405 28.75041106 -9.20331013 29.9499381 -9.88867188 31.15014648 C-12.14392955 35.098496 -14.43440535 39.02425928 -16.75 42.9375 C-17.29188965 43.87271484 -17.8337793 44.80792969 -18.39208984 45.77148438 C-22.01286271 51.68895515 -22.01286271 51.68895515 -25.4609375 52.8515625 C-26.34007812 52.75617188 -27.21921875 52.66078125 -28.125 52.5625 C-29.06730469 52.48257813 -30.00960937 52.40265625 -30.98046875 52.3203125 C-32.35138672 52.13082031 -32.35138672 52.13082031 -33.75 51.9375 C-34.57113281 51.85242188 -35.39226562 51.76734375 -36.23828125 51.6796875 C-38.08096294 51.47676341 -39.91694304 51.21418784 -41.75 50.9375 C-41.07284811 47.04027476 -40.01445824 43.45368836 -38.625 39.75 C-38.25117188 38.70457031 -37.87734375 37.65914063 -37.4921875 36.58203125 C-35.38291003 33.38028047 -34.26463603 33.564217 -30.69873047 32.79956055 C-26.21746612 30.81718214 -23.6223762 25.81651857 -20.875 21.9375 C-19.46480155 20.02545156 -18.05206634 18.1152713 -16.63671875 16.20703125 C-15.96560059 15.2938916 -15.29448242 14.38075195 -14.60302734 13.43994141 C-5.70749776 1.42687444 -5.70749776 1.42687444 0 0 Z " fill="#D83BC0" transform="translate(256.75,281.0625)"/>
<path d="M0 0 C0 4.12744343 -1.61750496 5.04694583 -4.4375 8 C-5.36681121 8.99010111 -6.29384609 9.98234306 -7.21875 10.9765625 C-7.68796875 11.4809082 -8.1571875 11.98525391 -8.640625 12.50488281 C-11.44915505 15.59386234 -14.03014957 18.87066137 -16.65234375 22.1171875 C-19.22815236 25.28016047 -21.85705222 28.39317672 -24.5 31.5 C-27.8730195 35.46887496 -31.21177108 39.4601759 -34.5 43.5 C-38.24787798 48.1045358 -42.06983444 52.64019191 -45.9140625 57.1640625 C-48.81244823 60.5805954 -51.671551 64.02504838 -54.5 67.5 C-58.24183886 72.09711631 -62.05235831 76.63024799 -65.89868164 81.13989258 C-68.15870641 83.79628725 -70.38949861 86.46785913 -72.55859375 89.19921875 C-73.73615234 90.67841797 -73.73615234 90.67841797 -74.9375 92.1875 C-75.97197266 93.50814453 -75.97197266 93.50814453 -77.02734375 94.85546875 C-80.17523197 98.27762842 -82.26065445 98.9165255 -86.875 99.4375 C-91.66712268 99.33897037 -93.72173592 97.35822174 -97 94 C-98.75199131 90.49601738 -98.53980383 86.82415241 -98 83 C-94.82054742 77.7374578 -89.85804809 74.298439 -85.09375 70.48828125 C-81.84831798 67.87800323 -78.66967118 65.20108248 -75.5 62.5 C-70.6510444 58.37824529 -65.74837325 54.33007125 -60.8125 50.3125 C-57.68200334 47.73853608 -54.58827539 45.12430914 -51.5 42.5 C-47.53092065 39.12721426 -43.53983137 35.78823483 -39.5 32.5 C-35.58706821 29.31439991 -31.7185567 26.08120354 -27.875 22.8125 C-22.59962649 18.32968223 -17.27958704 13.90308839 -11.9375 9.5 C-11.21095215 8.90034424 -10.4844043 8.30068848 -9.73583984 7.68286133 C-9.04828613 7.11720459 -8.36073242 6.55154785 -7.65234375 5.96875 C-6.73956665 5.21754883 -6.73956665 5.21754883 -5.80834961 4.45117188 C-3.90373864 2.92275179 -1.96112002 1.45496351 0 0 Z " fill="#DF3EC0" transform="translate(379,230)"/>
<path d="M0 0 C2 1 2 1 2.68603516 3.00952148 C2.88503418 3.87134033 3.0840332 4.73315918 3.2890625 5.62109375 C3.50820313 6.55630859 3.72734375 7.49152344 3.953125 8.45507812 C4.17484375 9.43927734 4.3965625 10.42347656 4.625 11.4375 C4.85445313 12.41783203 5.08390625 13.39816406 5.3203125 14.40820312 C7 21.67185175 7 21.67185175 7 24 C8.10794922 24.16435547 8.10794922 24.16435547 9.23828125 24.33203125 C16.3182183 25.43855254 23.12855962 26.97103138 30 29 C26.49606403 33.02030548 22.36742436 35.24478186 17.75 37.75 C15.1925 39.1525 12.635 40.555 10 42 C10.495 53.385 10.495 53.385 11 65 C5.375 61.625 5.375 61.625 2.88671875 59.30078125 C2.36142578 58.81416016 1.83613281 58.32753906 1.29492188 57.82617188 C0.76447266 57.32666016 0.23402344 56.82714844 -0.3125 56.3125 C-0.86228516 55.80138672 -1.41207031 55.29027344 -1.97851562 54.76367188 C-3.3226638 53.51302966 -4.661846 52.25705376 -6 51 C-13.44302097 53.39690506 -20.71837152 56.15262441 -28 59 C-27.25709406 53.97109823 -25.18505469 49.72491376 -22.99609375 45.171875 C-21.81999646 42.58333551 -21.01319478 40.36543791 -20.91015625 37.51171875 C-22.62719303 33.55453362 -25.55231968 30.84805592 -28.5625 27.8125 C-29.77640242 26.57317554 -30.98626636 25.3298782 -32.19140625 24.08203125 C-32.72967041 23.53780518 -33.26793457 22.9935791 -33.82250977 22.43286133 C-35 21 -35 21 -35 19 C-27.08 19.66 -19.16 20.32 -11 21 C-10.34 19.35 -9.68 17.7 -9 16 C-8.30515134 14.65652929 -7.58405639 13.32627051 -6.8359375 12.01171875 C-6.43632812 11.30595703 -6.03671875 10.60019531 -5.625 9.87304688 C-5.2125 9.15181641 -4.8 8.43058594 -4.375 7.6875 C-3.95476562 6.94693359 -3.53453125 6.20636719 -3.1015625 5.44335938 C-2.07051505 3.62730989 -1.03563954 1.81343467 0 0 Z " fill="#FEFEFE" transform="translate(478,143)"/>
<path d="M0 0 C0.66 0.33 1.32 0.66 2 1 C2.68603516 3.13305664 2.68603516 3.13305664 3.2890625 5.91015625 C3.48709473 6.800979 3.68512695 7.69180176 3.88916016 8.60961914 C4.25340088 10.31879517 4.25340088 10.31879517 4.625 12.0625 C5.40875 15.671875 6.1925 19.28125 7 23 C14.26 24.65 21.52 26.3 29 28 C28 31 28 31 26.32592773 31.87768555 C25.61895752 32.1281665 24.9119873 32.37864746 24.18359375 32.63671875 C16.81704262 35.69864629 16.81704262 35.69864629 11 41 C8.80385656 48.72265805 9.96340691 57.14440679 11 65 C6.12088991 61.45629486 1.80195445 57.97788164 -2.1640625 53.41796875 C-4.8471674 51.34569837 -6.60531658 51.08827782 -10 51 C-12.88894479 51.86856454 -15.541034 53.12022807 -18.25 54.4375 C-25.82285714 58 -25.82285714 58 -28 58 C-27.37601443 55.31068912 -26.58990063 52.80797398 -25.5546875 50.25 C-25.28269531 49.5590625 -25.01070312 48.868125 -24.73046875 48.15625 C-24.15908751 46.71605618 -23.58092455 45.2785349 -22.99609375 43.84375 C-21.5437674 40.11912358 -20.65196788 37.8021164 -22 34 C-23.41127951 32.30093179 -23.41127951 32.30093179 -25.1875 30.75 C-29.18531552 27.10413663 -31.55131674 23.59824434 -35 19 C-27.08 19 -19.16 19 -11 19 C-9.39125 15.968125 -9.39125 15.968125 -7.75 12.875 C-5.37364462 8.39648409 -2.86595264 4.1721169 0 0 Z " fill="#FBFBFC" transform="translate(697,596)"/>
<path d="M0 0 C0.99 0.495 0.99 0.495 2 1 C1.38511719 1.72445312 0.77023437 2.44890625 0.13671875 3.1953125 C-0.67152344 4.16210938 -1.47976563 5.12890625 -2.3125 6.125 C-3.51326172 7.55199219 -3.51326172 7.55199219 -4.73828125 9.0078125 C-7.05369394 11.86804065 -7.05369394 11.86804065 -8.41015625 14.91796875 C-10.45695081 18.88583339 -13.15319 21.88358927 -16.125 25.1875 C-17.30712638 26.52634088 -18.48811243 27.86618945 -19.66796875 29.20703125 C-20.24208496 29.85752441 -20.81620117 30.50801758 -21.40771484 31.17822266 C-24.21041256 34.38486637 -26.88417833 37.69273915 -29.56640625 41 C-32.65306766 44.80506575 -35.76200009 48.59146926 -38.875 52.375 C-39.47441406 53.10380371 -40.07382812 53.83260742 -40.69140625 54.58349609 C-44.84533419 59.62417975 -49.04757368 64.62069686 -53.29272461 69.5847168 C-56.51549228 73.37112107 -59.5456394 77.26879702 -62.46484375 81.29296875 C-65.17535982 84.30695227 -67.43829097 84.94893554 -71.4375 85.3125 C-76.10887978 84.90272984 -78.38772536 83.44548761 -81.8125 80.375 C-83.6972329 76.6055342 -83.7299219 73.11936123 -83 69 C-79.82054742 63.7374578 -74.85804809 60.298439 -70.09375 56.48828125 C-66.84831798 53.87800323 -63.66967118 51.20108248 -60.5 48.5 C-55.65522233 44.38179665 -50.75782587 40.33592556 -45.82421875 36.32421875 C-43.19621712 34.16147882 -40.59915613 31.96776884 -38.00952148 29.75952148 C-24.21633783 17.99830734 -24.21633783 17.99830734 -20.1875 16.18359375 C-16.95924823 14.43687895 -14.31971817 12.01984092 -11.5625 9.625 C-10.43933976 8.65822916 -9.31564954 7.69207366 -8.19140625 6.7265625 C-7.65531738 6.26540039 -7.11922852 5.80423828 -6.56689453 5.32910156 C-4.41589835 3.50454201 -2.21442183 1.74670283 0 0 Z " fill="#F4ABE1" transform="translate(323,84)"/>
<path d="M0 0 C0.99 0.495 0.99 0.495 2 1 C-2.69611895 6.90207094 -7.42979729 12.77253548 -12.1875 18.625 C-12.74058838 19.30546387 -13.29367676 19.98592773 -13.86352539 20.68701172 C-16.68609786 24.15827002 -19.51132355 27.62733653 -22.33984375 31.09375 C-27.42703028 37.33362003 -32.48631165 43.58898234 -37.4375 49.9375 C-42.1850355 56.02381421 -47.06910117 61.99092649 -51.99731445 67.93164062 C-55.88345869 72.6198591 -59.67223126 77.3617892 -63.3515625 82.21484375 C-65.93062915 85.00781404 -68.13886282 85.88767776 -71.875 86.375 C-76.80637554 85.78323494 -79.65926543 83.42453048 -83 79.875 C-84.61768555 75.22415406 -83.9319265 71.48482938 -82 67 C-79.40148452 63.80088424 -76.28180687 61.47052221 -73 59 C-71.40841725 57.74632866 -69.81693428 56.4925275 -68.22753906 55.23608398 C-67.06047901 54.31658712 -65.89047178 53.40082044 -64.71777344 52.48852539 C-59.9060498 48.74458621 -55.19364515 44.89056204 -50.5 41 C-45.38539145 36.76339162 -40.24109488 32.5791826 -35 28.5 C-28.93314243 23.77732286 -22.99370513 18.91003022 -17.0703125 14.0090332 C-12.31395083 10.07483322 -7.52588572 6.18858176 -2.6875 2.35546875 C-1.07132413 1.10748095 -1.07132413 1.10748095 0 0 Z " fill="#D739BF" transform="translate(743,259)"/>
<path d="M0 0 C1.94921875 0.21875 1.94921875 0.21875 4 1 C4.62519531 1.2371875 5.25039063 1.474375 5.89453125 1.71875 C6.52746094 1.9765625 7.16039062 2.234375 7.8125 2.5 C11.56034797 3.94147999 15.01333671 4.58472257 19 5 C17.64827153 9.08379341 15.93063758 11.37683519 12.8125 14.3125 C10.02809481 17.0043854 7.32773437 19.67986588 4.8125 22.625 C1.32389273 26.69368014 -2.33288123 30.59305663 -6 34.5 C-9.70688029 38.4498116 -13.40167045 42.39490991 -16.9375 46.5 C-26.64951509 57.76495151 -26.64951509 57.76495151 -32.75 58.375 C-36.10058068 58.35058775 -37.84894532 57.75601354 -40.4375 55.625 C-43.42112451 52.56860416 -44.2110391 51.02158887 -44.5 46.875 C-44.40482838 41.89435175 -42.73282966 39.63169814 -39.30859375 36.15234375 C-38.54675781 35.44207031 -37.78492188 34.73179687 -37 34 C-35.65615234 32.73349609 -35.65615234 32.73349609 -34.28515625 31.44140625 C-31.74561763 29.07592494 -29.1718922 26.75047965 -26.58935547 24.43212891 C-24.0001616 22.09907035 -21.43950097 19.73512028 -18.875 17.375 C-14.29986739 13.17427795 -9.69075066 9.01275593 -5.05859375 4.875 C-3.0069979 3.08887724 -3.0069979 3.08887724 -1.47265625 1.1875 C-0.98667969 0.795625 -0.50070312 0.40375 0 0 Z " fill="#7C11C1" transform="translate(293,471)"/>
<path d="M0 0 C4 2 8 4 12 6 C10.47260916 9.42673696 8.45668829 12.05841282 6.0625 14.9375 C4.85787109 16.38962891 4.85787109 16.38962891 3.62890625 17.87109375 C0.46636821 21.6435073 -2.71514353 25.39991309 -5.90307617 29.15087891 C-8.89244552 32.67277386 -11.83512409 36.22839237 -14.75 39.8125 C-26.10367839 53.73451497 -26.10367839 53.73451497 -29.953125 54.2734375 C-34.24672199 54.46329043 -37.09582964 54.4342668 -40.5 51.625 C-43.5199479 48.4540547 -44.18907662 46.9422851 -44.375 42.6875 C-44.44847656 41.54861328 -44.44847656 41.54861328 -44.5234375 40.38671875 C-43.74434142 36.83427321 -41.67324559 35.39322685 -39 33 C-38.17242188 32.22140625 -37.34484375 31.4428125 -36.4921875 30.640625 C-31.09397172 25.70971745 -25.59897289 20.9630738 -19.91015625 16.37109375 C-16.02985714 13.20956145 -12.21986483 9.96818859 -8.41455078 6.71704102 C-5.67328456 4.38282165 -2.91165531 2.11884314 0 0 Z " fill="#5C11A1" transform="translate(629,541)"/>
<path d="M0 0 C0.66 0 1.32 0 2 0 C1.52438088 4.70430543 -0.6291566 7.48362537 -3.5625 11 C-4.5720811 12.24726842 -5.57977753 13.49606389 -6.5859375 14.74609375 C-7.13475586 15.42526855 -7.68357422 16.10444336 -8.24902344 16.80419922 C-11.46475634 20.83686818 -14.56983668 24.95387191 -17.6875 29.0625 C-18.35692627 29.94075439 -19.02635254 30.81900879 -19.71606445 31.72387695 C-23.31438152 36.44733403 -26.89037248 41.18619508 -30.44140625 45.9453125 C-31.16303955 46.90687256 -31.88467285 47.86843262 -32.62817383 48.85913086 C-34.01608768 50.70920357 -35.3977106 52.56401673 -36.7722168 54.42407227 C-37.399104 55.25737061 -38.02599121 56.09066895 -38.671875 56.94921875 C-39.2194043 57.68487061 -39.76693359 58.42052246 -40.33105469 59.1784668 C-43.27512635 62.39170827 -45.55940355 62.95025524 -49.875 63.4375 C-53.31493794 63.33481529 -54.23826171 62.85439562 -57.375 60.9375 C-60.41765401 57.53262527 -61.45323859 55.53030882 -62 51 C-60.08490778 44.80834845 -57.18151825 41.93192563 -52.0625 38.125 C-51.39009277 37.60671631 -50.71768555 37.08843262 -50.02490234 36.55444336 C-48.02771614 35.02093194 -46.01642575 33.50808313 -44 32 C-42.99066406 31.23558594 -41.98132813 30.47117187 -40.94140625 29.68359375 C-39.04508226 28.25543296 -37.14392808 26.83366579 -35.23828125 25.41796875 C-31.23522081 22.44015989 -27.27501699 19.40642436 -23.3125 16.375 C-22.58015137 15.81586914 -21.84780273 15.25673828 -21.09326172 14.68066406 C-16.63304836 11.26997221 -12.20978651 7.8199704 -7.859375 4.26953125 C-5.6833171 2.78377743 -3.45550025 1.93523248 -1 1 C-0.67 0.67 -0.34 0.34 0 0 Z " fill="#F4ACE2" transform="translate(556,97)"/>
<path d="M0 0 C2 2 2 2 2.375 5.5 C2.01986377 15.8737162 -3.98494339 23.81666617 -11 31 C-21.98529821 40.74226588 -34.58085485 47.22708747 -49 50 C-43.31537131 30.73542501 -29.76009158 11.94641508 -12.09375 2.0234375 C-7.93732322 -0.00824872 -4.59357527 -0.25055865 0 0 Z " fill="#FBFBFB" transform="translate(284,372)"/>
<path d="M0 0 C-2.17651426 5.66504838 -5.00286557 10.94123999 -7.8125 16.3125 C-8.33392578 17.31990234 -8.85535156 18.32730469 -9.39257812 19.36523438 C-18.67083942 37.14567268 -18.67083942 37.14567268 -25 40 C-29.29833884 40.32999058 -32.23868644 39.47995855 -35.875 37.1875 C-39.03918513 33.9302506 -39.87014401 32.16870392 -40.375 27.625 C-39.94169711 23.43640536 -38.88205199 20.98324118 -36 18 C-32.65240656 15.70108613 -29.10767809 13.85609812 -25.5 12 C-24.51418945 11.47889648 -23.52837891 10.95779297 -22.51269531 10.42089844 C-19.68317238 8.93113644 -16.84362733 7.46261626 -14 6 C-12.65099555 5.29696348 -11.30203002 4.59385228 -9.953125 3.890625 C-2.35714286 0 -2.35714286 0 0 0 Z " fill="#521191" transform="translate(753,573)"/>
<path d="M0 0 C1.79442825 4.16909078 0.03669232 7.75183905 -1.4375 11.75 C-1.84258789 12.87075928 -1.84258789 12.87075928 -2.25585938 14.01416016 C-5.22875867 21.99166362 -9.01123752 29.49198563 -13 37 C-13.515625 37.99773437 -14.03125 38.99546875 -14.5625 40.0234375 C-21.770537 53.69520332 -30.74078519 66.37411602 -42 77 C-43.17136477 73.4859057 -42.83274953 72.94812625 -41.41015625 69.67578125 C-40.85811523 68.39223755 -40.85811523 68.39223755 -40.29492188 67.08276367 C-39.88822266 66.16857666 -39.48152344 65.25438965 -39.0625 64.3125 C-38.64935547 63.36930908 -38.23621094 62.42611816 -37.81054688 61.4543457 C-34.14273975 53.16035536 -30.24827912 45.01167825 -26 37 C-25.64969727 36.33661621 -25.29939453 35.67323242 -24.93847656 34.98974609 C-8.58797089 4.29398545 -8.58797089 4.29398545 0 0 Z " fill="#F9F9F9" transform="translate(520,290)"/>
<path d="M0 0 C2.33544249 2.73810499 2.77513742 3.73642916 3.125 7.375 C2.68756037 12.62427561 0.84752326 15.37250512 -3.12890625 18.796875 C-9.66541739 23.85273997 -14.92543091 24.99841873 -23.1875 24.125 C-27.09825925 22.13531547 -28.76439098 20.75966354 -31.1875 17.125 C-31.83116711 13.47755306 -31.85737364 11.1505088 -29.796875 7.99609375 C-22.57419974 -0.52980336 -10.73008969 -6.31181746 0 0 Z " fill="#0F0B1D" transform="translate(644.1875,319.875)"/>
<path d="M0 0 C0.495 0.99 0.495 0.99 1 2 C0.24658203 3.96435547 0.24658203 3.96435547 -0.9921875 6.3671875 C-1.44561523 7.24745605 -1.89904297 8.12772461 -2.36621094 9.03466797 C-2.86411133 9.97197754 -3.36201172 10.90928711 -3.875 11.875 C-4.37805664 12.82648926 -4.88111328 13.77797852 -5.39941406 14.75830078 C-18.64935208 39.32885861 -18.64935208 39.32885861 -30 44 C-32.625 43.8125 -32.625 43.8125 -35 43 C-37.72409836 38.91385246 -37.85789195 35.79812132 -37 31 C-35.42175945 27.63009134 -33.36094021 24.86383106 -31 22 C-30.52820313 21.41605469 -30.05640625 20.83210938 -29.5703125 20.23046875 C-21.77687218 11.60922777 -10.23245666 5.26874462 0 0 Z " fill="#FBFBFB" transform="translate(682,482)"/>
<path d="M0 0 C3.32770833 1.12021865 5.15616113 3.03635214 7.375 5.6875 C9.15126107 7.80978595 10.90866014 9.90434796 12.8203125 11.90625 C16.96313521 16.29956897 16.96313521 16.29956897 17.125 19.375 C16.75375 20.24125 16.3825 21.1075 16 22 C15.51466797 23.14275391 15.51466797 23.14275391 15.01953125 24.30859375 C14.04789229 26.55704348 13.03892798 28.78200958 12 31 C9.6243261 30.28729783 7.24981382 29.57222231 4.87890625 28.84375 C3.00463824 28.29443943 1.1158906 27.7916825 -0.78515625 27.34375 C-1.66042969 27.1271875 -2.53570312 26.910625 -3.4375 26.6875 C-4.24058594 26.50574219 -5.04367188 26.32398438 -5.87109375 26.13671875 C-8.97423851 24.47981026 -9.54180349 22.15061112 -11 19 C-12.51216056 17.02296107 -14.07600552 15.08444439 -15.6875 13.1875 C-20 8.09090909 -20 8.09090909 -20 7 C-19.14277344 6.82984375 -18.28554687 6.6596875 -17.40234375 6.484375 C-9.8294111 4.98611921 -9.8294111 4.98611921 -2.9375 1.6875 C-1.968125 1.130625 -0.99875 0.57375 0 0 Z " fill="#C133C1" transform="translate(203,343)"/>
<path d="M0 0 C4.58577088 -0.02510318 9.17149999 -0.04304634 13.75732422 -0.05493164 C15.31071674 -0.05989711 16.86410475 -0.06667173 18.41748047 -0.07543945 C46.57569342 -0.23015491 46.57569342 -0.23015491 51.875 2.5 C54.51396766 5.60466783 55.08973595 7.49934253 54.875 11.5390625 C53.04593666 16.68330313 48.23151207 19.80369713 44 23 C40.06048404 21.15014033 37.21678125 18.92434659 34 16 C34 15.34 34 14.68 34 14 C35.32 13.01 36.64 12.02 38 11 C25.46 8.03 12.92 5.06 0 2 C0 1.34 0 0.68 0 0 Z " fill="#C038C2" transform="translate(646,351)"/>
<path d="M0 0 C5.58672194 -0.07436251 11.17315339 -0.12870254 16.76025391 -0.16479492 C18.65939353 -0.17984691 20.55849859 -0.20029316 22.45751953 -0.22631836 C25.19312081 -0.26285992 27.928261 -0.27976238 30.6640625 -0.29296875 C31.50804596 -0.30845261 32.35202942 -0.32393646 33.22158813 -0.33988953 C38.22330209 -0.34130555 41.69156931 0.17034192 46 3 C48.50925872 6.76388808 48.56275112 8.54091274 48 13 C45.6640625 15.87109375 45.6640625 15.87109375 42.625 18.4375 C41.86316406 19.10555664 41.86316406 19.10555664 41.0859375 19.78710938 C37.33509745 23 37.33509745 23 35 23 C31.98863141 20.22027515 29.35802849 17.35088259 27 14 C28.65 13.01 30.3 12.02 32 11 C22.70552038 8.46747927 13.40491131 6.09350471 4 4 C4 3.34 4 2.68 4 2 C2.68 1.67 1.36 1.34 0 1 C0 0.67 0 0.34 0 0 Z " fill="#C738C1" transform="translate(273,337)"/>
<path d="M0 0 C3.43595166 1.52708963 6.11912454 3.59927045 9 6 C7.66755822 13.79086549 6.21684711 20.78946773 1 27 C-0.794375 26.6596875 -0.794375 26.6596875 -2.625 26.3125 C-6.89807594 25.75184819 -9.27685947 26.78384492 -13 29 C-13.66 29 -14.32 29 -15 29 C-13.38583787 23.40059013 -10.78970307 18.49096536 -8.0625 13.375 C-7.61970703 12.529375 -7.17691406 11.68375 -6.72070312 10.8125 C-4.69164399 6.97815278 -2.67545766 3.42818729 0 0 Z " fill="#A530C4" transform="translate(622,399)"/>
<path d="M0 0 C0.33 0.66 0.66 1.32 1 2 C1.99 2.33 2.98 2.66 4 3 C3.32904297 4.30710937 3.32904297 4.30710937 2.64453125 5.640625 C-2.52102393 15.78254189 -7.36987475 25.90339707 -10.32421875 36.94140625 C-11 39 -11 39 -13 42 C-13.66 42 -14.32 42 -15 42 C-15.30478027 36.5950868 -14.50774889 33.07318306 -12.2265625 28.18359375 C-11.94275726 27.56404312 -11.65895203 26.94449249 -11.36654663 26.3061676 C-10.4649988 24.34397253 -9.54590328 22.39067498 -8.625 20.4375 C-7.71484933 18.47927508 -6.80849771 16.5193669 -5.90487671 14.55812073 C-5.08344555 12.77968507 -4.25220294 11.0057908 -3.42041016 9.23217773 C-2.08492831 6.19325644 -0.99295188 3.16529597 0 0 Z " fill="#AF59CE" transform="translate(573,378)"/>
<path d="M0 0 C3.38071613 0.78994951 4.96221595 2.75940834 6.97265625 5.4609375 C6.97265625 6.4509375 6.97265625 7.4409375 6.97265625 8.4609375 C0.70265625 8.4609375 -5.56734375 8.4609375 -12.02734375 8.4609375 C-9.05932339 2.52489679 -7.1100175 -0.34553356 0 0 Z " fill="#DB3BBF" transform="translate(638.02734375,296.5390625)"/>
<path d="M0 0 C0.33 0 0.66 0 1 0 C2.31941233 8.65944404 3.36072624 17.26325857 4 26 C10.27 26.66 16.54 27.32 23 28 C23 28.33 23 28.66 23 29 C21.02 29 19.04 29 17 29 C17 29.66 17 30.32 17 31 C17.66 31.33 18.32 31.66 19 32 C13.27601207 31.25339288 7.65146223 30.17122859 2 29 C0.094753 23.89665983 -1.42589023 19.53657294 -1 14 C-0.67 14 -0.34 14 0 14 C0 9.38 0 4.76 0 0 Z " fill="#6B32AD" transform="translate(226,544)"/>
<path d="M0 0 C0.66 0.33 1.32 0.66 2 1 C1.56768066 1.45737549 1.13536133 1.91475098 0.68994141 2.38598633 C-7.62185914 11.1845736 -15.91022088 19.99623141 -24 29 C-25.32 28.67 -26.64 28.34 -28 28 C-26.43665407 24.0078845 -23.63947721 21.5840391 -20.5 18.8125 C-19.96826172 18.33417725 -19.43652344 17.85585449 -18.88867188 17.36303711 C-17.2639607 15.90316924 -15.632408 14.45125053 -14 13 C-12.16576595 11.35517055 -10.33234722 9.70943113 -8.5 8.0625 C-7.7265625 7.37285156 -6.953125 6.68320312 -6.15625 5.97265625 C-4.04160187 4.03805968 -2.0103235 2.04230592 0 0 Z " fill="#BA44C6" transform="translate(433,343)"/>
<path d="M0 0 C0.33 0 0.66 0 1 0 C2.41885951 15.63279141 2.08863964 31.32063331 2 47 C9.26 47 16.52 47 24 47 C24 47.33 24 47.66 24 48 C19.05 48.33 14.1 48.66 9 49 C9.99 49.66 10.98 50.32 12 51 C10.56208484 50.85831863 9.1246763 50.71148957 7.6875 50.5625 C6.88699219 50.48128906 6.08648437 50.40007812 5.26171875 50.31640625 C3 50 3 50 0 49 C-0.33 46.69 -0.66 44.38 -1 42 C-0.67 42 -0.34 42 0 42 C0 28.14 0 14.28 0 0 Z " fill="#CF76D3" transform="translate(265,289)"/>
<path d="M0 0 C0.33 0 0.66 0 1 0 C1 9.57 1 19.14 1 29 C10.57 29 20.14 29 30 29 C30 29.33 30 29.66 30 30 C23.73 30 17.46 30 11 30 C11 30.66 11 31.32 11 32 C11.66 32.33 12.32 32.66 13 33 C8.03083364 32.48594831 3.70973649 31.76615118 -1 30 C-1.33 26.7 -1.66 23.4 -2 20 C-1.67 20 -1.34 20 -1 20 C-0.67 13.4 -0.34 6.8 0 0 Z " fill="#6F4EA9" transform="translate(704,589)"/>
<path d="M0 0 C0.33 0 0.66 0 1 0 C1.33 8.91 1.66 17.82 2 27 C4.31 27.33 6.62 27.66 9 28 C9 28.66 9 29.32 9 30 C11.31 30.33 13.62 30.66 16 31 C12.23331402 32.3805087 9.55210827 31.59568159 5.75 30.5625 C4.13351562 30.13130859 4.13351562 30.13130859 2.484375 29.69140625 C1.66453125 29.46324219 0.8446875 29.23507813 0 29 C-0.25394531 28.03320312 -0.50789063 27.06640625 -0.76953125 26.0703125 C-2.72180054 18.67319079 -4.73032639 11.30766124 -7 4 C-6.01 4.33 -5.02 4.66 -4 5 C-2.62410242 9.26358386 -1.89644425 13.60315439 -1 18 C-0.505 9.09 -0.505 9.09 0 0 Z " fill="#E0A2E0" transform="translate(485,138)"/>
<path d="M0 0 C0.66 0 1.32 0 2 0 C1.69343615 6.62177926 0.25711277 11.22125154 -3 17 C-3.66 17 -4.32 17 -5 17 C-5.7342166 10.24520726 -3.27591952 5.81475715 0 0 Z " fill="#A954CE" transform="translate(563,403)"/>
<path d="M0 0 C0.33 0 0.66 0 1 0 C1.01458252 0.89831543 1.02916504 1.79663086 1.04418945 2.72216797 C1.10519697 6.0510659 1.17933628 9.37912883 1.26245117 12.70751953 C1.29573178 14.14881342 1.32375404 15.59023863 1.34643555 17.03173828 C1.3799262 19.10245797 1.432233 21.17197093 1.48828125 23.2421875 C1.51446533 24.4885498 1.54064941 25.73491211 1.56762695 27.01904297 C1.71031006 28.00275879 1.85299316 28.98647461 2 30 C2.99 30.66 3.98 31.32 5 32 C2.525 32.495 2.525 32.495 0 33 C-0.508783 31.44033782 -1.00663469 29.87710759 -1.5 28.3125 C-1.7784375 27.44238281 -2.056875 26.57226562 -2.34375 25.67578125 C-2.99850805 23.00608323 -3.11831495 20.73603316 -3 18 C-2.34 19.32 -1.68 20.64 -1 22 C-0.67 14.74 -0.34 7.48 0 0 Z " fill="#E29EDE" transform="translate(229,144)"/>
<path d="M0 0 C0.33 0 0.66 0 1 0 C4.52183679 21.82281008 4.52183679 21.82281008 1 28 C-0.33583899 23.15758367 -1.25328119 19.06562383 -1 14 C-0.67 14 -0.34 14 0 14 C0 9.38 0 4.76 0 0 Z " fill="#8150BF" transform="translate(226,544)"/>
<path d="M0 0 C0 3 0 3 -1.6796875 5.0078125 C-2.40414063 5.70648438 -3.12859375 6.40515625 -3.875 7.125 C-4.59429687 7.82882812 -5.31359375 8.53265625 -6.0546875 9.2578125 C-9.38985987 12.24473394 -11.60985315 12.09543798 -16 12 C-13.04983186 8.82559105 -9.99784714 6.58078442 -6.3125 4.3125 C-2.97781689 2.39067278 -2.97781689 2.39067278 0 0 Z " fill="#9C4DCD" transform="translate(290,422)"/>
<path d="M0 0 C3 3.875 3 3.875 3 5 C-7.67988521 4.4699529 -18.34372444 3.89918304 -29 3 C-29 2.67 -29 2.34 -29 2 C-9.65957447 1.80851064 -9.65957447 1.80851064 0 3 C0 2.01 0 1.02 0 0 Z " fill="#C871D2" transform="translate(601,342)"/>
<path d="M0 0 C0.33 0.66 0.66 1.32 1 2 C0.34 2 -0.32 2 -1 2 C-1.2475 2.57621094 -1.495 3.15242188 -1.75 3.74609375 C-3.18694245 6.3370806 -4.85958333 8.02044807 -7 10.0625 C-9.37442798 12.33653856 -11.16347952 14.24521929 -13 17 C-13.66 16.67 -14.32 16.34 -15 16 C-5.77448747 4.29384966 -5.77448747 4.29384966 0 0 Z " fill="#B07EDA" transform="translate(367,416)"/>
<path d="M0 0 C0 3 0 3 -1.4609375 4.5078125 C-2.09257812 5.04148437 -2.72421875 5.57515625 -3.375 6.125 C-7.44189874 9.96185194 -8.39443121 13.54988093 -9 19 C-9.33 19 -9.66 19 -10 19 C-10.49726512 14.0273488 -10.63773907 10.96571916 -7.8125 6.6875 C-5.30198805 4.28856635 -2.78665273 2.07008488 0 0 Z " fill="#D157C8" transform="translate(291,303)"/>
<path d="M0 0 C0 3.96130371 -1.34877125 4.82914401 -4 7.6875 C-4.7425 8.49574219 -5.485 9.30398437 -6.25 10.13671875 C-6.8275 10.75160156 -7.405 11.36648437 -8 12 C-8.33 11.34 -8.66 10.68 -9 10 C-9.66 9.67 -10.32 9.34 -11 9 C-7.37 6.03 -3.74 3.06 0 0 Z " fill="#DF7ED4" transform="translate(379,230)"/>
<path d="M0 0 C0.66 0.33 1.32 0.66 2 1 C-0.97 4.96 -0.97 4.96 -4 9 C-4.33 8.34 -4.66 7.68 -5 7 C-6.32 7.99 -7.64 8.98 -9 10 C-9.66 9.67 -10.32 9.34 -11 9 C-7.37 6.03 -3.74 3.06 0 0 Z " fill="#F1DBF2" transform="translate(563,90)"/>
<path d="M0 0 C2 2 2 2 2 5 C-4.27 5 -10.54 5 -17 5 C-16.67 4.01 -16.34 3.02 -16 2 C-15.67 2.66 -15.34 3.32 -15 4 C-14.34 3.67 -13.68 3.34 -13 3 C-10.95944995 2.92934383 -8.91665743 2.91578024 -6.875 2.9375 C-5.77929688 2.94652344 -4.68359375 2.95554687 -3.5546875 2.96484375 C-2.71164062 2.97644531 -1.86859375 2.98804688 -1 3 C-0.67 2.01 -0.34 1.02 0 0 Z " fill="#C868CC" transform="translate(643,300)"/>
<path d="M0 0 C0.66 0.33 1.32 0.66 2 1 C0.71284028 2.64936048 -0.57987019 4.29439047 -1.875 5.9375 C-2.95394531 7.31228516 -2.95394531 7.31228516 -4.0546875 8.71484375 C-6 11 -6 11 -8 12 C-7.92303847 8.76761586 -7.62561345 6.66772205 -5.375 4.265625 C-3.62229929 2.78148327 -1.84920638 1.36155666 0 0 Z " fill="#DE67CC" transform="translate(743,259)"/>
<path d="M0 0 C0.93779297 0.00322266 1.87558594 0.00644531 2.84179688 0.00976562 C4.30649414 0.02233398 4.30649414 0.02233398 5.80078125 0.03515625 C7.28288086 0.04192383 7.28288086 0.04192383 8.79492188 0.04882812 C11.23443599 0.06061322 13.67382814 0.07706614 16.11328125 0.09765625 C16.11328125 0.42765625 16.11328125 0.75765625 16.11328125 1.09765625 C9.84328125 1.09765625 3.57328125 1.09765625 -2.88671875 1.09765625 C-2.88671875 1.75765625 -2.88671875 2.41765625 -2.88671875 3.09765625 C-2.22671875 3.42765625 -1.56671875 3.75765625 -0.88671875 4.09765625 C-2.20671875 4.09765625 -3.52671875 4.09765625 -4.88671875 4.09765625 C-4.88671875 3.43765625 -4.88671875 2.77765625 -4.88671875 2.09765625 C-5.87671875 1.76765625 -6.86671875 1.43765625 -7.88671875 1.09765625 C-4.94539984 0.11721661 -3.0617021 -0.01855577 0 0 Z " fill="#613C9C" transform="translate(717.88671875,617.90234375)"/>
<path d="M0 0 C0.66 0.33 1.32 0.66 2 1 C1.28972656 1.6290625 0.57945312 2.258125 -0.15234375 2.90625 C-6.35921305 8.25853616 -6.35921305 8.25853616 -9.125 15.625 C-9.08375 16.73875 -9.0425 17.8525 -9 19 C-9.33 19 -9.66 19 -10 19 C-10.78553616 10.98753117 -10.78553616 10.98753117 -7.8125 7.25 C-6.4203125 6.13625 -6.4203125 6.13625 -5 5 C-4.071875 4.071875 -3.14375 3.14375 -2.1875 2.1875 C-1.1046875 1.1046875 -1.1046875 1.1046875 0 0 Z " fill="#6E3BAF" transform="translate(595,569)"/>
<path d="M0 0 C0.66 0 1.32 0 2 0 C1.67 2.97 1.34 5.94 1 9 C-0.32 9.33 -1.64 9.66 -3 10 C-2.69201674 8.51988629 -2.378482 7.04092675 -2.0625 5.5625 C-1.88847656 4.73878906 -1.71445312 3.91507812 -1.53515625 3.06640625 C-1 1 -1 1 0 0 Z " fill="#A63EC7" transform="translate(563,403)"/>
<path d="M0 0 C0.66 0.33 1.32 0.66 2 1 C1.50628906 1.4125 1.01257813 1.825 0.50390625 2.25 C-2.99558463 5.40447065 -5.38764441 7.61767206 -5.9375 12.4375 C-5.958125 13.613125 -5.97875 14.78875 -6 16 C-7.125 14.375 -7.125 14.375 -8 12 C-7.03137447 6.94162226 -4.77556941 4.38833153 -1 1 C-0.67 0.67 -0.34 0.34 0 0 Z " fill="#E6A6E1" transform="translate(502,137)"/>
<path d="M0 0 C0.66 0 1.32 0 2 0 C2.33 0.99 2.66 1.98 3 3 C4.65 3.33 6.3 3.66 8 4 C8 4.66 8 5.32 8 6 C8.66 6.33 9.32 6.66 10 7 C2.25 6.125 2.25 6.125 0 5 C0 3.35 0 1.7 0 0 Z " fill="#6437A0" transform="translate(571,600)"/>
<path d="M0 0 C0.66 0.66 1.32 1.32 2 2 C4.43252661 2.46162427 4.43252661 2.46162427 7.125 2.625 C8.03507813 2.69976563 8.94515625 2.77453125 9.8828125 2.8515625 C10.58148438 2.90054688 11.28015625 2.94953125 12 3 C8.59956236 5.97921225 8.59956236 5.97921225 5.859375 6.07421875 C3.90625 5.71614583 1.953125 5.35807292 0 5 C0 3.35 0 1.7 0 0 Z " fill="#7442B4" transform="translate(228,568)"/>
<path d="M0 0 C0.99 0.33 1.98 0.66 3 1 C2.54109375 1.36351562 2.0821875 1.72703125 1.609375 2.1015625 C-2.43493987 5.41518183 -5.32533314 8.50655967 -8 13 C-8 9.66237377 -7.43233181 8.69114312 -5.6875 5.9375 C-5.25824219 5.24527344 -4.82898438 4.55304688 -4.38671875 3.83984375 C-3 2 -3 2 0 0 Z " fill="#8D3FCC" transform="translate(207,482)"/>
<path d="M0 0 C-0.680625 0.37125 -1.36125 0.7425 -2.0625 1.125 C-5.68069009 3.43448304 -8.80033575 6.15073126 -12 9 C-6.73629243 -2.02088773 -6.73629243 -2.02088773 0 0 Z " fill="#E7ACE3" transform="translate(482,134)"/>
<path d="M0 0 C3 3.875 3 3.875 3 5 C1.741875 5.04125 0.48375 5.0825 -0.8125 5.125 C-1.52019531 5.14820313 -2.22789062 5.17140625 -2.95703125 5.1953125 C-5 5 -5 5 -8 3 C-5.36 3 -2.72 3 0 3 C0 2.01 0 1.02 0 0 Z " fill="#C163CE" transform="translate(601,342)"/>
<path d="M0 0 C0.66 0.33 1.32 0.66 2 1 C-0.64 3.97 -3.28 6.94 -6 10 C-6.66 9.34 -7.32 8.68 -8 8 C-5.36 5.36 -2.72 2.72 0 0 Z " fill="#C97CD6" transform="translate(433,343)"/>
<path d="M0 0 C0.66 0.33 1.32 0.66 2 1 C-0.31 3.31 -2.62 5.62 -5 8 C-5.33 7.34 -5.66 6.68 -6 6 C-2.25 1.125 -2.25 1.125 0 0 Z " fill="#6330A3" transform="translate(720,589)"/>
<path d="M0 0 C0.99 0.33 1.98 0.66 3 1 C0.69 3.31 -1.62 5.62 -4 8 C-4.66 7.67 -5.32 7.34 -6 7 C-4.02 4.69 -2.04 2.38 0 0 Z " fill="#6836A7" transform="translate(695,586)"/>
<path d="M0 0 C0.66 0.33 1.32 0.66 2 1 C1.0479279 2.00596297 0.08812654 3.00461563 -0.875 4 C-1.40867187 4.556875 -1.94234375 5.11375 -2.4921875 5.6875 C-4 7 -4 7 -6 7 C-4.60667426 3.63279613 -3.0210714 2.0140476 0 0 Z " fill="#7530BD" transform="translate(78,538)"/>
<path d="M0 0 C-1.36983503 3.16115776 -1.9890638 3.9927092 -5 6 C-5.66 5.34 -6.32 4.68 -7 4 C-2.25 0 -2.25 0 0 0 Z " fill="#BE55CB" transform="translate(426,352)"/>
</svg>
